G04 #@! TF.FileFunction,Copper,L1,Top,Signal*
%FSLAX46Y46*%
G04 Gerber Fmt 4.6, Leading zero omitted, Abs format (unit mm)*
G04 Created by KiCad (PCBNEW 4.0.6) date Wednesday, July 12, 2017 'PMt' 01:28:44 PM*
%MOMM*%
%LPD*%
G01*
G04 APERTURE LIST*
%ADD10C,0.100000*%
%ADD11R,0.750000X0.800000*%
%ADD12R,0.800000X0.750000*%
%ADD13R,1.600000X3.500000*%
%ADD14R,0.900000X1.200000*%
%ADD15R,1.800000X1.800000*%
%ADD16C,1.800000*%
%ADD17R,1.700000X1.700000*%
%ADD18O,1.700000X1.700000*%
%ADD19C,1.998980*%
%ADD20C,2.500000*%
%ADD21R,0.700000X1.300000*%
%ADD22R,1.300000X0.700000*%
%ADD23R,1.500000X0.600000*%
%ADD24R,1.550000X0.600000*%
%ADD25R,1.060000X0.650000*%
%ADD26O,1.501140X0.899160*%
%ADD27R,1.500000X1.950000*%
%ADD28R,1.600000X1.600000*%
%ADD29O,1.600000X1.600000*%
%ADD30R,2.200000X0.600000*%
%ADD31R,2.400000X3.100000*%
%ADD32C,0.600000*%
%ADD33C,1.270000*%
%ADD34C,0.762000*%
%ADD35C,0.381000*%
%ADD36C,0.254000*%
G04 APERTURE END LIST*
D10*
D11*
X160655000Y-52590000D03*
X160655000Y-54090000D03*
X169545000Y-55360000D03*
X169545000Y-53860000D03*
X179070000Y-53860000D03*
X179070000Y-55360000D03*
D12*
X156960000Y-114300000D03*
X155460000Y-114300000D03*
D13*
X157480000Y-118585000D03*
X157480000Y-123985000D03*
D14*
X159514000Y-79883000D03*
X162814000Y-79883000D03*
D15*
X159385000Y-60960000D03*
D16*
X161925000Y-60960000D03*
D17*
X166370000Y-120015000D03*
D18*
X168910000Y-120015000D03*
X171450000Y-120015000D03*
X173990000Y-120015000D03*
X176530000Y-120015000D03*
X179070000Y-120015000D03*
D17*
X166370000Y-124460000D03*
D18*
X168910000Y-124460000D03*
X171450000Y-124460000D03*
X173990000Y-124460000D03*
X176530000Y-124460000D03*
X179070000Y-124460000D03*
D17*
X154305000Y-52070000D03*
D18*
X151765000Y-52070000D03*
D17*
X177800000Y-83185000D03*
D18*
X177800000Y-85725000D03*
D19*
X158750000Y-71120000D03*
D20*
X161375000Y-68495000D03*
X156125000Y-68495000D03*
X161375000Y-73745000D03*
X156125000Y-73745000D03*
D17*
X157480000Y-83820000D03*
D18*
X160020000Y-83820000D03*
D21*
X160970000Y-77470000D03*
X159070000Y-77470000D03*
D22*
X167005000Y-57470000D03*
X167005000Y-59370000D03*
X151130000Y-113985000D03*
X151130000Y-115885000D03*
D23*
X177005000Y-106045000D03*
X177005000Y-107315000D03*
X177005000Y-108585000D03*
X177005000Y-109855000D03*
X177005000Y-111125000D03*
X177005000Y-112395000D03*
X177005000Y-113665000D03*
X177005000Y-114935000D03*
X182405000Y-114935000D03*
X182405000Y-113665000D03*
X182405000Y-112395000D03*
X182405000Y-111125000D03*
X182405000Y-109855000D03*
X182405000Y-108585000D03*
X182405000Y-107315000D03*
X182405000Y-106045000D03*
D24*
X173355000Y-81915000D03*
X173355000Y-80645000D03*
X173355000Y-79375000D03*
X173355000Y-78105000D03*
X167955000Y-78105000D03*
X167955000Y-79375000D03*
X167955000Y-80645000D03*
X167955000Y-81915000D03*
D25*
X173525000Y-53340000D03*
X173525000Y-54290000D03*
X173525000Y-55240000D03*
X175725000Y-55240000D03*
X175725000Y-53340000D03*
D17*
X189230000Y-57150000D03*
D18*
X191770000Y-57150000D03*
X189230000Y-59690000D03*
X191770000Y-59690000D03*
X189230000Y-62230000D03*
X191770000Y-62230000D03*
X189230000Y-64770000D03*
X191770000Y-64770000D03*
X189230000Y-67310000D03*
X191770000Y-67310000D03*
X189230000Y-69850000D03*
X191770000Y-69850000D03*
X189230000Y-72390000D03*
X191770000Y-72390000D03*
X189230000Y-74930000D03*
X191770000Y-74930000D03*
X189230000Y-77470000D03*
X191770000Y-77470000D03*
X189230000Y-80010000D03*
X191770000Y-80010000D03*
D17*
X143510000Y-66294000D03*
D18*
X146050000Y-66294000D03*
X143510000Y-68834000D03*
X146050000Y-68834000D03*
X143510000Y-71374000D03*
X146050000Y-71374000D03*
X143510000Y-73914000D03*
X146050000Y-73914000D03*
X143510000Y-76454000D03*
X146050000Y-76454000D03*
X143510000Y-78994000D03*
X146050000Y-78994000D03*
X143510000Y-81534000D03*
X146050000Y-81534000D03*
X143510000Y-84074000D03*
X146050000Y-84074000D03*
D17*
X143510000Y-89154000D03*
D18*
X146050000Y-89154000D03*
X143510000Y-91694000D03*
X146050000Y-91694000D03*
X143510000Y-94234000D03*
X146050000Y-94234000D03*
X143510000Y-96774000D03*
X146050000Y-96774000D03*
X143510000Y-99314000D03*
X146050000Y-99314000D03*
X143510000Y-101854000D03*
X146050000Y-101854000D03*
X143510000Y-104394000D03*
X146050000Y-104394000D03*
X143510000Y-106934000D03*
X146050000Y-106934000D03*
X143510000Y-109474000D03*
X146050000Y-109474000D03*
X143510000Y-112014000D03*
X146050000Y-112014000D03*
X143510000Y-114554000D03*
X146050000Y-114554000D03*
X143510000Y-117094000D03*
X146050000Y-117094000D03*
X143510000Y-119634000D03*
X146050000Y-119634000D03*
X143510000Y-122174000D03*
X146050000Y-122174000D03*
X143510000Y-124714000D03*
X146050000Y-124714000D03*
D17*
X189230000Y-84074000D03*
D18*
X191770000Y-84074000D03*
X189230000Y-86614000D03*
X191770000Y-86614000D03*
X189230000Y-89154000D03*
X191770000Y-89154000D03*
X189230000Y-91694000D03*
X191770000Y-91694000D03*
X189230000Y-94234000D03*
X191770000Y-94234000D03*
X189230000Y-96774000D03*
X191770000Y-96774000D03*
X189230000Y-99314000D03*
X191770000Y-99314000D03*
X189230000Y-101854000D03*
X191770000Y-101854000D03*
X189230000Y-104394000D03*
X191770000Y-104394000D03*
X189230000Y-106934000D03*
X191770000Y-106934000D03*
X189230000Y-109474000D03*
X191770000Y-109474000D03*
X189230000Y-112014000D03*
X191770000Y-112014000D03*
X189230000Y-114554000D03*
X191770000Y-114554000D03*
X189230000Y-117094000D03*
X191770000Y-117094000D03*
X189230000Y-119634000D03*
X191770000Y-119634000D03*
X189230000Y-122174000D03*
X191770000Y-122174000D03*
X189230000Y-124714000D03*
X191770000Y-124714000D03*
D26*
X164465000Y-53340000D03*
X164465000Y-54610000D03*
X164465000Y-52070000D03*
D12*
X177050000Y-104140000D03*
X178550000Y-104140000D03*
X170700000Y-76200000D03*
X172200000Y-76200000D03*
D27*
X158115000Y-51965000D03*
X158115000Y-54715000D03*
D17*
X173355000Y-99060000D03*
D18*
X173355000Y-96520000D03*
D22*
X173355000Y-106360000D03*
X173355000Y-104460000D03*
D21*
X153355000Y-80010000D03*
X155255000Y-80010000D03*
X153355000Y-77470000D03*
X155255000Y-77470000D03*
D28*
X157353000Y-79883000D03*
D29*
X164973000Y-79883000D03*
D30*
X156397000Y-108204000D03*
X151197000Y-108204000D03*
X156397000Y-109474000D03*
X151197000Y-109474000D03*
X156397000Y-110744000D03*
X151197000Y-110744000D03*
X156397000Y-112014000D03*
X151197000Y-112014000D03*
D31*
X153797000Y-110109000D03*
D32*
X162560000Y-52070000D03*
D33*
X156210000Y-50165000D03*
X158750000Y-114300000D03*
D32*
X152146000Y-50292000D03*
X150622000Y-50292000D03*
X149225000Y-50292000D03*
X149225000Y-51689000D03*
X149225000Y-52959000D03*
X151257000Y-54102000D03*
X152400000Y-53975000D03*
X193294000Y-82931000D03*
X193294000Y-68707000D03*
X176530000Y-122174000D03*
X148590000Y-89535000D03*
X175260000Y-85725000D03*
X175260000Y-97155000D03*
X161290000Y-66675000D03*
X162560000Y-66675000D03*
X163195000Y-67310000D03*
X163195000Y-68580000D03*
X163195000Y-69850000D03*
X163195000Y-71120000D03*
X163195000Y-72390000D03*
X163195000Y-73660000D03*
X163195000Y-74930000D03*
X162560000Y-75565000D03*
X161290000Y-75565000D03*
X160020000Y-75565000D03*
X157480000Y-75565000D03*
X156210000Y-75565000D03*
X154940000Y-75565000D03*
X154305000Y-74930000D03*
X154305000Y-73660000D03*
X154305000Y-72390000D03*
X154305000Y-71120000D03*
X154305000Y-69850000D03*
X154305000Y-68580000D03*
X154305000Y-67310000D03*
X154940000Y-66675000D03*
X156210000Y-66675000D03*
X160020000Y-66675000D03*
X158750000Y-66675000D03*
X157480000Y-66675000D03*
X157480000Y-60960000D03*
X171450000Y-56515000D03*
X171450000Y-53975000D03*
X167640000Y-53340000D03*
X165735000Y-55880000D03*
X173355000Y-56515000D03*
X173355000Y-52070000D03*
X180467000Y-53848000D03*
X180467000Y-52705000D03*
X179451000Y-52070000D03*
X178181000Y-52070000D03*
X178181000Y-52070000D03*
X177038000Y-52070000D03*
X175641000Y-52070000D03*
X177165000Y-102870000D03*
X168910000Y-76200000D03*
X158496000Y-81661000D03*
X164973000Y-78232000D03*
X163830000Y-59690000D03*
D33*
X160655000Y-115316000D03*
X148590000Y-106045000D03*
D32*
X175895000Y-83185000D03*
X157480000Y-76835000D03*
X175006000Y-112395000D03*
X153162000Y-85852000D03*
X187365375Y-81964127D03*
X184785000Y-113665000D03*
X175260000Y-107315000D03*
X174180973Y-108467251D03*
X186944000Y-59690000D03*
X171450000Y-118110000D03*
X173990000Y-118110000D03*
D34*
X160655000Y-52590000D02*
X161175000Y-52070000D01*
X161175000Y-52070000D02*
X162560000Y-52070000D01*
X156397000Y-112014000D02*
X156464000Y-112014000D01*
X156464000Y-112014000D02*
X158750000Y-114300000D01*
X158115000Y-51965000D02*
X158010000Y-51965000D01*
X158010000Y-51965000D02*
X156210000Y-50165000D01*
X157480000Y-118585000D02*
X157480000Y-114730000D01*
X157480000Y-114730000D02*
X157005000Y-114255000D01*
X157005000Y-114255000D02*
X156960000Y-114300000D01*
X158750000Y-114300000D02*
X156960000Y-114300000D01*
X158115000Y-51965000D02*
X160030000Y-51965000D01*
X160030000Y-51965000D02*
X160655000Y-52590000D01*
X158010000Y-52070000D02*
X158115000Y-51965000D01*
D35*
X191770000Y-64770000D02*
X193294000Y-66294000D01*
X193294000Y-66294000D02*
X193294000Y-68707000D01*
X161290000Y-66675000D02*
X160020000Y-66675000D01*
X163195000Y-67310000D02*
X162560000Y-66675000D01*
X163195000Y-69850000D02*
X163195000Y-68580000D01*
X163195000Y-72390000D02*
X163195000Y-71120000D01*
X163195000Y-74930000D02*
X163195000Y-73660000D01*
X161290000Y-75565000D02*
X162560000Y-75565000D01*
X157480000Y-75565000D02*
X160020000Y-75565000D01*
X156210000Y-75565000D02*
X157480000Y-75565000D01*
X154305000Y-74930000D02*
X154940000Y-75565000D01*
X154305000Y-73660000D02*
X154305000Y-74930000D01*
X154305000Y-71120000D02*
X154305000Y-72390000D01*
X154305000Y-69850000D02*
X154305000Y-71120000D01*
X154305000Y-67310000D02*
X154305000Y-68580000D01*
X156210000Y-66675000D02*
X154940000Y-66675000D01*
X157480000Y-66675000D02*
X158750000Y-66675000D01*
X173525000Y-54290000D02*
X171765000Y-54290000D01*
X171765000Y-54290000D02*
X171450000Y-53975000D01*
X165735000Y-55880000D02*
X166255000Y-55360000D01*
X166255000Y-55360000D02*
X166370000Y-55360000D01*
X173355000Y-56515000D02*
X173355000Y-55410000D01*
X173355000Y-55410000D02*
X173525000Y-55240000D01*
X173525000Y-53340000D02*
X173525000Y-52240000D01*
X173525000Y-52240000D02*
X173355000Y-52070000D01*
X169545000Y-55360000D02*
X173405000Y-55360000D01*
X173405000Y-55360000D02*
X173525000Y-55240000D01*
X166370000Y-55360000D02*
X168789000Y-55360000D01*
X167005000Y-57470000D02*
X167005000Y-55995000D01*
X167005000Y-55995000D02*
X166370000Y-55360000D01*
X164465000Y-54610000D02*
X164765990Y-54610000D01*
X168789000Y-55360000D02*
X169545000Y-55360000D01*
X177005000Y-106045000D02*
X177005000Y-104185000D01*
X177005000Y-104185000D02*
X177050000Y-104140000D01*
X180467000Y-52705000D02*
X180467000Y-53848000D01*
X179451000Y-52070000D02*
X179832000Y-52070000D01*
X179832000Y-52070000D02*
X180467000Y-52705000D01*
X178181000Y-52070000D02*
X179451000Y-52070000D01*
X177038000Y-52070000D02*
X178181000Y-52070000D01*
X175641000Y-52070000D02*
X177038000Y-52070000D01*
X175725000Y-53340000D02*
X175725000Y-52154000D01*
X175725000Y-52154000D02*
X175641000Y-52070000D01*
X178550000Y-53340000D02*
X179070000Y-53860000D01*
X175725000Y-53340000D02*
X178550000Y-53340000D01*
X177050000Y-104140000D02*
X177050000Y-102985000D01*
X177050000Y-102985000D02*
X177165000Y-102870000D01*
X170700000Y-76200000D02*
X168910000Y-76200000D01*
X167955000Y-81915000D02*
X169111000Y-81915000D01*
X169111000Y-81915000D02*
X170700000Y-80326000D01*
X170700000Y-80326000D02*
X170700000Y-76956000D01*
X170700000Y-76956000D02*
X170700000Y-76200000D01*
X177050000Y-106000000D02*
X177005000Y-106045000D01*
X159514000Y-79883000D02*
X159514000Y-80643000D01*
X159514000Y-80643000D02*
X158496000Y-81661000D01*
X159514000Y-79883000D02*
X157353000Y-79883000D01*
X160970000Y-77470000D02*
X162814000Y-77470000D01*
X162814000Y-77470000D02*
X164846000Y-77470000D01*
X162814000Y-79883000D02*
X162814000Y-77470000D01*
X164973000Y-79883000D02*
X162814000Y-79883000D01*
X164846000Y-77470000D02*
X167320000Y-77470000D01*
X164846000Y-77470000D02*
X164973000Y-77597000D01*
X164973000Y-77597000D02*
X164973000Y-79883000D01*
X167320000Y-77470000D02*
X167955000Y-78105000D01*
X161035000Y-77535000D02*
X160970000Y-77470000D01*
X167005000Y-59370000D02*
X164150000Y-59370000D01*
X164150000Y-59370000D02*
X163830000Y-59690000D01*
D34*
X156397000Y-110744000D02*
X158259000Y-110744000D01*
X158259000Y-110744000D02*
X160655000Y-113140000D01*
X160655000Y-113140000D02*
X160655000Y-115316000D01*
X156397000Y-108204000D02*
X156397000Y-107142000D01*
X156397000Y-107142000D02*
X155300000Y-106045000D01*
X155300000Y-106045000D02*
X149488025Y-106045000D01*
X149488025Y-106045000D02*
X148590000Y-106045000D01*
D35*
X173355000Y-81915000D02*
X174625000Y-81915000D01*
X174625000Y-81915000D02*
X175895000Y-83185000D01*
X173355000Y-80645000D02*
X173355000Y-81915000D01*
X155255000Y-77470000D02*
X155255000Y-80010000D01*
X157480000Y-76835000D02*
X155890000Y-76835000D01*
X155890000Y-76835000D02*
X155255000Y-77470000D01*
X157480000Y-76835000D02*
X158435000Y-76835000D01*
X158435000Y-76835000D02*
X159070000Y-77470000D01*
X146050000Y-78994000D02*
X148272932Y-78994000D01*
X148272932Y-78994000D02*
X153162000Y-83883068D01*
X153162000Y-83883068D02*
X153162000Y-85852000D01*
X175006000Y-112395000D02*
X177005000Y-112395000D01*
X192286701Y-81964127D02*
X187789639Y-81964127D01*
X193410354Y-71490354D02*
X193410354Y-80840474D01*
X191770000Y-69850000D02*
X193410354Y-71490354D01*
X193410354Y-80840474D02*
X192286701Y-81964127D01*
X187789639Y-81964127D02*
X187365375Y-81964127D01*
X182405000Y-113665000D02*
X184785000Y-113665000D01*
X151197000Y-112014000D02*
X151197000Y-113918000D01*
X151197000Y-113918000D02*
X151130000Y-113985000D01*
X177005000Y-107315000D02*
X175260000Y-107315000D01*
X177005000Y-108585000D02*
X174298722Y-108585000D01*
X174298722Y-108585000D02*
X174180973Y-108467251D01*
X173880974Y-108167252D02*
X174180973Y-108467251D01*
X173355000Y-107641278D02*
X173880974Y-108167252D01*
X173355000Y-106360000D02*
X173355000Y-107641278D01*
X189230000Y-59690000D02*
X186944000Y-59690000D01*
X189230000Y-77470000D02*
X187325000Y-79375000D01*
X187325000Y-79375000D02*
X173355000Y-79375000D01*
X143510000Y-89154000D02*
X143510000Y-87919296D01*
X143510000Y-87919296D02*
X144434296Y-86995000D01*
X144434296Y-86995000D02*
X160771298Y-86995000D01*
X160771298Y-86995000D02*
X167121298Y-80645000D01*
X167121298Y-80645000D02*
X167955000Y-80645000D01*
X167955000Y-79375000D02*
X167955000Y-80645000D01*
X151197000Y-109474000D02*
X146050000Y-109474000D01*
X146304000Y-109220000D02*
X146050000Y-109474000D01*
X151197000Y-110744000D02*
X147320000Y-110744000D01*
X147320000Y-110744000D02*
X146050000Y-112014000D01*
X177005000Y-113665000D02*
X175874000Y-113665000D01*
X175874000Y-113665000D02*
X171450000Y-118089000D01*
X171450000Y-118089000D02*
X171450000Y-118110000D01*
X182405000Y-114935000D02*
X181274000Y-114935000D01*
X181274000Y-114935000D02*
X178099000Y-118110000D01*
X178099000Y-118110000D02*
X173990000Y-118110000D01*
D36*
G36*
X154940221Y-49911273D02*
X154939780Y-50416510D01*
X155004258Y-50572560D01*
X153455000Y-50572560D01*
X153219683Y-50616838D01*
X153003559Y-50755910D01*
X152858569Y-50968110D01*
X152836699Y-51076107D01*
X152531924Y-50798355D01*
X152121890Y-50628524D01*
X151892000Y-50749845D01*
X151892000Y-51943000D01*
X151912000Y-51943000D01*
X151912000Y-52197000D01*
X151892000Y-52197000D01*
X151892000Y-53390155D01*
X152121890Y-53511476D01*
X152531924Y-53341645D01*
X152834937Y-53065499D01*
X152851838Y-53155317D01*
X152990910Y-53371441D01*
X153203110Y-53516431D01*
X153455000Y-53567440D01*
X155155000Y-53567440D01*
X155390317Y-53523162D01*
X155606441Y-53384090D01*
X155751431Y-53171890D01*
X155802440Y-52920000D01*
X155802440Y-51370902D01*
X155956273Y-51434779D01*
X156043014Y-51434855D01*
X156717560Y-52109401D01*
X156717560Y-52940000D01*
X156761838Y-53175317D01*
X156867482Y-53339493D01*
X156826673Y-53380302D01*
X156730000Y-53613691D01*
X156730000Y-54429250D01*
X156888750Y-54588000D01*
X157988000Y-54588000D01*
X157988000Y-54568000D01*
X158242000Y-54568000D01*
X158242000Y-54588000D01*
X159341250Y-54588000D01*
X159500000Y-54429250D01*
X159500000Y-54375750D01*
X159645000Y-54375750D01*
X159645000Y-54616309D01*
X159741673Y-54849698D01*
X159920301Y-55028327D01*
X160153690Y-55125000D01*
X160369250Y-55125000D01*
X160528000Y-54966250D01*
X160528000Y-54217000D01*
X160782000Y-54217000D01*
X160782000Y-54966250D01*
X160940750Y-55125000D01*
X161156310Y-55125000D01*
X161389699Y-55028327D01*
X161568327Y-54849698D01*
X161665000Y-54616309D01*
X161665000Y-54375750D01*
X161506250Y-54217000D01*
X160782000Y-54217000D01*
X160528000Y-54217000D01*
X159803750Y-54217000D01*
X159645000Y-54375750D01*
X159500000Y-54375750D01*
X159500000Y-53613691D01*
X159403327Y-53380302D01*
X159361366Y-53338340D01*
X159461431Y-53191890D01*
X159504137Y-52981000D01*
X159609160Y-52981000D01*
X159635898Y-53007738D01*
X159676838Y-53225317D01*
X159743329Y-53328646D01*
X159741673Y-53330302D01*
X159645000Y-53563691D01*
X159645000Y-53804250D01*
X159803750Y-53963000D01*
X160528000Y-53963000D01*
X160528000Y-53943000D01*
X160782000Y-53943000D01*
X160782000Y-53963000D01*
X161506250Y-53963000D01*
X161665000Y-53804250D01*
X161665000Y-53563691D01*
X161569731Y-53333691D01*
X168535000Y-53333691D01*
X168535000Y-53574250D01*
X168693750Y-53733000D01*
X169418000Y-53733000D01*
X169418000Y-52983750D01*
X169672000Y-52983750D01*
X169672000Y-53733000D01*
X170396250Y-53733000D01*
X170555000Y-53574250D01*
X170555000Y-53333691D01*
X170458327Y-53100302D01*
X170279699Y-52921673D01*
X170046310Y-52825000D01*
X169830750Y-52825000D01*
X169672000Y-52983750D01*
X169418000Y-52983750D01*
X169259250Y-52825000D01*
X169043690Y-52825000D01*
X168810301Y-52921673D01*
X168631673Y-53100302D01*
X168535000Y-53333691D01*
X161569731Y-53333691D01*
X161568327Y-53330302D01*
X161566957Y-53328932D01*
X161626431Y-53241890D01*
X161658000Y-53086000D01*
X162560000Y-53086000D01*
X162948806Y-53008662D01*
X163230191Y-52820645D01*
X163120019Y-53046065D01*
X163246932Y-53213000D01*
X164338000Y-53213000D01*
X164338000Y-53193000D01*
X164592000Y-53193000D01*
X164592000Y-53213000D01*
X165683068Y-53213000D01*
X165809981Y-53046065D01*
X165645359Y-52709238D01*
X165795156Y-52485051D01*
X165877715Y-52070000D01*
X165795156Y-51654949D01*
X165560049Y-51303086D01*
X165208186Y-51067979D01*
X164793135Y-50985420D01*
X164136865Y-50985420D01*
X163721814Y-51067979D01*
X163369951Y-51303086D01*
X163307984Y-51395826D01*
X163278420Y-51351580D01*
X162948806Y-51131338D01*
X162560000Y-51054000D01*
X161175000Y-51054000D01*
X160850700Y-51118507D01*
X160786193Y-51131338D01*
X160681071Y-51201579D01*
X160418807Y-51026338D01*
X160354300Y-51013507D01*
X160030000Y-50949000D01*
X159504725Y-50949000D01*
X159468162Y-50754683D01*
X159329090Y-50538559D01*
X159116890Y-50393569D01*
X158865000Y-50342560D01*
X157824400Y-50342560D01*
X157480146Y-49998306D01*
X157480220Y-49913490D01*
X157352755Y-49605000D01*
X193600000Y-49605000D01*
X193600000Y-52263668D01*
X193037679Y-51700364D01*
X192216519Y-51359389D01*
X191327381Y-51358613D01*
X190505628Y-51698155D01*
X189876364Y-52326321D01*
X189535389Y-53147481D01*
X189534613Y-54036619D01*
X189874155Y-54858372D01*
X190502321Y-55487636D01*
X191192275Y-55774130D01*
X191172622Y-55778039D01*
X190690853Y-56099946D01*
X190690029Y-56101179D01*
X190683162Y-56064683D01*
X190544090Y-55848559D01*
X190331890Y-55703569D01*
X190080000Y-55652560D01*
X188380000Y-55652560D01*
X188144683Y-55696838D01*
X187928559Y-55835910D01*
X187783569Y-56048110D01*
X187732560Y-56300000D01*
X187732560Y-58000000D01*
X187776838Y-58235317D01*
X187915910Y-58451441D01*
X188128110Y-58596431D01*
X188195541Y-58610086D01*
X188150853Y-58639946D01*
X188000811Y-58864500D01*
X187394113Y-58864500D01*
X187130799Y-58755162D01*
X186758833Y-58754838D01*
X186415057Y-58896883D01*
X186151808Y-59159673D01*
X186009162Y-59503201D01*
X186008838Y-59875167D01*
X186150883Y-60218943D01*
X186413673Y-60482192D01*
X186757201Y-60624838D01*
X187129167Y-60625162D01*
X187394570Y-60515500D01*
X188000811Y-60515500D01*
X188150853Y-60740054D01*
X188480026Y-60960000D01*
X188150853Y-61179946D01*
X187828946Y-61661715D01*
X187715907Y-62230000D01*
X187828946Y-62798285D01*
X188150853Y-63280054D01*
X188480026Y-63500000D01*
X188150853Y-63719946D01*
X187828946Y-64201715D01*
X187715907Y-64770000D01*
X187828946Y-65338285D01*
X188150853Y-65820054D01*
X188480026Y-66040000D01*
X188150853Y-66259946D01*
X187828946Y-66741715D01*
X187715907Y-67310000D01*
X187828946Y-67878285D01*
X188150853Y-68360054D01*
X188480026Y-68580000D01*
X188150853Y-68799946D01*
X187828946Y-69281715D01*
X187715907Y-69850000D01*
X187828946Y-70418285D01*
X188150853Y-70900054D01*
X188480026Y-71120000D01*
X188150853Y-71339946D01*
X187828946Y-71821715D01*
X187715907Y-72390000D01*
X187828946Y-72958285D01*
X188150853Y-73440054D01*
X188480026Y-73660000D01*
X188150853Y-73879946D01*
X187828946Y-74361715D01*
X187715907Y-74930000D01*
X187828946Y-75498285D01*
X188150853Y-75980054D01*
X188480026Y-76200000D01*
X188150853Y-76419946D01*
X187828946Y-76901715D01*
X187715907Y-77470000D01*
X187773421Y-77759145D01*
X186983066Y-78549500D01*
X174757465Y-78549500D01*
X174765000Y-78531310D01*
X174765000Y-78390750D01*
X174606250Y-78232000D01*
X173482000Y-78232000D01*
X173482000Y-78252000D01*
X173228000Y-78252000D01*
X173228000Y-78232000D01*
X172103750Y-78232000D01*
X171945000Y-78390750D01*
X171945000Y-78531310D01*
X172034806Y-78748122D01*
X171983569Y-78823110D01*
X171932560Y-79075000D01*
X171932560Y-79675000D01*
X171976838Y-79910317D01*
X172040678Y-80009528D01*
X171983569Y-80093110D01*
X171932560Y-80345000D01*
X171932560Y-80945000D01*
X171976838Y-81180317D01*
X172040678Y-81279528D01*
X171983569Y-81363110D01*
X171932560Y-81615000D01*
X171932560Y-82215000D01*
X171976838Y-82450317D01*
X172115910Y-82666441D01*
X172328110Y-82811431D01*
X172580000Y-82862440D01*
X174130000Y-82862440D01*
X174361455Y-82818889D01*
X174993006Y-83450439D01*
X175101883Y-83713943D01*
X175364673Y-83977192D01*
X175708201Y-84119838D01*
X176080167Y-84120162D01*
X176302560Y-84028271D01*
X176302560Y-84035000D01*
X176346838Y-84270317D01*
X176485910Y-84486441D01*
X176698110Y-84631431D01*
X176806107Y-84653301D01*
X176528355Y-84958076D01*
X176358524Y-85368110D01*
X176479845Y-85598000D01*
X177673000Y-85598000D01*
X177673000Y-85578000D01*
X177927000Y-85578000D01*
X177927000Y-85598000D01*
X179120155Y-85598000D01*
X179241476Y-85368110D01*
X179071645Y-84958076D01*
X178795499Y-84655063D01*
X178885317Y-84638162D01*
X179101441Y-84499090D01*
X179246431Y-84286890D01*
X179297440Y-84035000D01*
X179297440Y-82335000D01*
X179253162Y-82099683D01*
X179114090Y-81883559D01*
X178901890Y-81738569D01*
X178650000Y-81687560D01*
X176950000Y-81687560D01*
X176714683Y-81731838D01*
X176498559Y-81870910D01*
X176353569Y-82083110D01*
X176302560Y-82335000D01*
X176302560Y-82341830D01*
X176160115Y-82282682D01*
X175208717Y-81331283D01*
X174940906Y-81152337D01*
X174743408Y-81113053D01*
X174777440Y-80945000D01*
X174777440Y-80345000D01*
X174750250Y-80200500D01*
X187325000Y-80200500D01*
X187640906Y-80137663D01*
X187729523Y-80078451D01*
X187828946Y-80578285D01*
X188150853Y-81060054D01*
X188268446Y-81138627D01*
X187815488Y-81138627D01*
X187552174Y-81029289D01*
X187180208Y-81028965D01*
X186836432Y-81171010D01*
X186573183Y-81433800D01*
X186430537Y-81777328D01*
X186430213Y-82149294D01*
X186572258Y-82493070D01*
X186835048Y-82756319D01*
X187178576Y-82898965D01*
X187550542Y-82899289D01*
X187815945Y-82789627D01*
X187908254Y-82789627D01*
X187783569Y-82972110D01*
X187732560Y-83224000D01*
X187732560Y-84924000D01*
X187776838Y-85159317D01*
X187915910Y-85375441D01*
X188128110Y-85520431D01*
X188236107Y-85542301D01*
X187958355Y-85847076D01*
X187788524Y-86257110D01*
X187909845Y-86487000D01*
X189103000Y-86487000D01*
X189103000Y-86467000D01*
X189357000Y-86467000D01*
X189357000Y-86487000D01*
X189377000Y-86487000D01*
X189377000Y-86741000D01*
X189357000Y-86741000D01*
X189357000Y-86761000D01*
X189103000Y-86761000D01*
X189103000Y-86741000D01*
X187909845Y-86741000D01*
X187788524Y-86970890D01*
X187958355Y-87380924D01*
X188127764Y-87566815D01*
X187335128Y-87503404D01*
X187300093Y-87505466D01*
X184125093Y-88140466D01*
X184109839Y-88144517D01*
X182224390Y-88773000D01*
X165765789Y-88773000D01*
X162066452Y-86867280D01*
X162851842Y-86081890D01*
X176358524Y-86081890D01*
X176528355Y-86491924D01*
X176918642Y-86920183D01*
X177443108Y-87166486D01*
X177673000Y-87045819D01*
X177673000Y-85852000D01*
X177927000Y-85852000D01*
X177927000Y-87045819D01*
X178156892Y-87166486D01*
X178681358Y-86920183D01*
X179071645Y-86491924D01*
X179241476Y-86081890D01*
X179120155Y-85852000D01*
X177927000Y-85852000D01*
X177673000Y-85852000D01*
X176479845Y-85852000D01*
X176358524Y-86081890D01*
X162851842Y-86081890D01*
X166562043Y-82371689D01*
X166576838Y-82450317D01*
X166715910Y-82666441D01*
X166928110Y-82811431D01*
X167180000Y-82862440D01*
X168730000Y-82862440D01*
X168965317Y-82818162D01*
X169086007Y-82740500D01*
X169111000Y-82740500D01*
X169426906Y-82677663D01*
X169694717Y-82498717D01*
X171283714Y-80909719D01*
X171283717Y-80909717D01*
X171462663Y-80641905D01*
X171525500Y-80326000D01*
X171525500Y-77678690D01*
X171945000Y-77678690D01*
X171945000Y-77819250D01*
X172103750Y-77978000D01*
X173228000Y-77978000D01*
X173228000Y-77328750D01*
X173482000Y-77328750D01*
X173482000Y-77978000D01*
X174606250Y-77978000D01*
X174765000Y-77819250D01*
X174765000Y-77678690D01*
X174668327Y-77445301D01*
X174489698Y-77266673D01*
X174256309Y-77170000D01*
X173640750Y-77170000D01*
X173482000Y-77328750D01*
X173228000Y-77328750D01*
X173069250Y-77170000D01*
X172822877Y-77170000D01*
X172959698Y-77113327D01*
X173138327Y-76934699D01*
X173235000Y-76701310D01*
X173235000Y-76485750D01*
X173076250Y-76327000D01*
X172327000Y-76327000D01*
X172327000Y-77051250D01*
X172448076Y-77172326D01*
X172220302Y-77266673D01*
X172041673Y-77445301D01*
X171945000Y-77678690D01*
X171525500Y-77678690D01*
X171525500Y-77148617D01*
X171673691Y-77210000D01*
X171914250Y-77210000D01*
X172073000Y-77051250D01*
X172073000Y-76327000D01*
X172053000Y-76327000D01*
X172053000Y-76073000D01*
X172073000Y-76073000D01*
X172073000Y-75348750D01*
X172327000Y-75348750D01*
X172327000Y-76073000D01*
X173076250Y-76073000D01*
X173235000Y-75914250D01*
X173235000Y-75698690D01*
X173138327Y-75465301D01*
X172959698Y-75286673D01*
X172726309Y-75190000D01*
X172485750Y-75190000D01*
X172327000Y-75348750D01*
X172073000Y-75348750D01*
X171914250Y-75190000D01*
X171673691Y-75190000D01*
X171440302Y-75286673D01*
X171438932Y-75288043D01*
X171351890Y-75228569D01*
X171100000Y-75177560D01*
X170300000Y-75177560D01*
X170064683Y-75221838D01*
X169848559Y-75360910D01*
X169839273Y-75374500D01*
X169360113Y-75374500D01*
X169096799Y-75265162D01*
X168724833Y-75264838D01*
X168381057Y-75406883D01*
X168117808Y-75669673D01*
X167975162Y-76013201D01*
X167974838Y-76385167D01*
X168116883Y-76728943D01*
X168379673Y-76992192D01*
X168723201Y-77134838D01*
X169095167Y-77135162D01*
X169360570Y-77025500D01*
X169835304Y-77025500D01*
X169835910Y-77026441D01*
X169874500Y-77052808D01*
X169874500Y-79984067D01*
X169377440Y-80481127D01*
X169377440Y-80345000D01*
X169333162Y-80109683D01*
X169269322Y-80010472D01*
X169326431Y-79926890D01*
X169377440Y-79675000D01*
X169377440Y-79075000D01*
X169333162Y-78839683D01*
X169269322Y-78740472D01*
X169326431Y-78656890D01*
X169377440Y-78405000D01*
X169377440Y-77805000D01*
X169333162Y-77569683D01*
X169194090Y-77353559D01*
X168981890Y-77208569D01*
X168730000Y-77157560D01*
X168174994Y-77157560D01*
X167903717Y-76886283D01*
X167635906Y-76707337D01*
X167320000Y-76644500D01*
X161934417Y-76644500D01*
X161923162Y-76584683D01*
X161784090Y-76368559D01*
X161571890Y-76223569D01*
X161320000Y-76172560D01*
X160620000Y-76172560D01*
X160384683Y-76216838D01*
X160168559Y-76355910D01*
X160023569Y-76568110D01*
X160020919Y-76581197D01*
X159884090Y-76368559D01*
X159671890Y-76223569D01*
X159420000Y-76172560D01*
X158900900Y-76172560D01*
X158750906Y-76072337D01*
X158435000Y-76009500D01*
X157930113Y-76009500D01*
X157666799Y-75900162D01*
X157294833Y-75899838D01*
X157029430Y-76009500D01*
X155890005Y-76009500D01*
X155890000Y-76009499D01*
X155574095Y-76072337D01*
X155424100Y-76172560D01*
X154905000Y-76172560D01*
X154669683Y-76216838D01*
X154453559Y-76355910D01*
X154308569Y-76568110D01*
X154301809Y-76601490D01*
X154243327Y-76460301D01*
X154064698Y-76281673D01*
X153831309Y-76185000D01*
X153640750Y-76185000D01*
X153482000Y-76343750D01*
X153482000Y-77343000D01*
X153502000Y-77343000D01*
X153502000Y-77597000D01*
X153482000Y-77597000D01*
X153482000Y-78596250D01*
X153625750Y-78740000D01*
X153482000Y-78883750D01*
X153482000Y-79883000D01*
X153502000Y-79883000D01*
X153502000Y-80137000D01*
X153482000Y-80137000D01*
X153482000Y-81136250D01*
X153640750Y-81295000D01*
X153831309Y-81295000D01*
X154064698Y-81198327D01*
X154243327Y-81019699D01*
X154299654Y-80883713D01*
X154301838Y-80895317D01*
X154440910Y-81111441D01*
X154653110Y-81256431D01*
X154905000Y-81307440D01*
X155605000Y-81307440D01*
X155840317Y-81263162D01*
X156056441Y-81124090D01*
X156069732Y-81104638D01*
X156088910Y-81134441D01*
X156301110Y-81279431D01*
X156553000Y-81330440D01*
X157620857Y-81330440D01*
X157561162Y-81474201D01*
X157560838Y-81846167D01*
X157702883Y-82189943D01*
X157835269Y-82322560D01*
X156630000Y-82322560D01*
X156394683Y-82366838D01*
X156178559Y-82505910D01*
X156033569Y-82718110D01*
X155982560Y-82970000D01*
X155982560Y-84670000D01*
X156026838Y-84905317D01*
X156165910Y-85121441D01*
X156378110Y-85266431D01*
X156630000Y-85317440D01*
X158330000Y-85317440D01*
X158565317Y-85273162D01*
X158781441Y-85134090D01*
X158926431Y-84921890D01*
X158940086Y-84854459D01*
X158969946Y-84899147D01*
X159451715Y-85221054D01*
X160020000Y-85334093D01*
X160588285Y-85221054D01*
X161070054Y-84899147D01*
X161391961Y-84417378D01*
X161505000Y-83849093D01*
X161505000Y-83790907D01*
X161391961Y-83222622D01*
X161070054Y-82740853D01*
X160588285Y-82418946D01*
X160020000Y-82305907D01*
X159451715Y-82418946D01*
X158969946Y-82740853D01*
X158942150Y-82782452D01*
X158933162Y-82734683D01*
X158809820Y-82543004D01*
X159024943Y-82454117D01*
X159288192Y-82191327D01*
X159398318Y-81926116D01*
X160097714Y-81226719D01*
X160097717Y-81226717D01*
X160190528Y-81087816D01*
X160199317Y-81086162D01*
X160415441Y-80947090D01*
X160560431Y-80734890D01*
X160611440Y-80483000D01*
X160611440Y-79283000D01*
X160567162Y-79047683D01*
X160428090Y-78831559D01*
X160215890Y-78686569D01*
X159964000Y-78635560D01*
X159791454Y-78635560D01*
X159871441Y-78584090D01*
X160016431Y-78371890D01*
X160019081Y-78358803D01*
X160155910Y-78571441D01*
X160368110Y-78716431D01*
X160620000Y-78767440D01*
X161320000Y-78767440D01*
X161555317Y-78723162D01*
X161771441Y-78584090D01*
X161916431Y-78371890D01*
X161931900Y-78295500D01*
X161988500Y-78295500D01*
X161988500Y-78770043D01*
X161912559Y-78818910D01*
X161767569Y-79031110D01*
X161716560Y-79283000D01*
X161716560Y-80483000D01*
X161760838Y-80718317D01*
X161899910Y-80934441D01*
X162112110Y-81079431D01*
X162364000Y-81130440D01*
X163264000Y-81130440D01*
X163499317Y-81086162D01*
X163715441Y-80947090D01*
X163840700Y-80763768D01*
X163930189Y-80897698D01*
X164395736Y-81208767D01*
X164944887Y-81318000D01*
X165001113Y-81318000D01*
X165350327Y-81248537D01*
X160429364Y-86169500D01*
X154042566Y-86169500D01*
X154096838Y-86038799D01*
X154097162Y-85666833D01*
X153987500Y-85401430D01*
X153987500Y-83883068D01*
X153964754Y-83768716D01*
X153924663Y-83567162D01*
X153794125Y-83371799D01*
X153745717Y-83299351D01*
X153745714Y-83299349D01*
X150742116Y-80295750D01*
X152370000Y-80295750D01*
X152370000Y-80786310D01*
X152466673Y-81019699D01*
X152645302Y-81198327D01*
X152878691Y-81295000D01*
X153069250Y-81295000D01*
X153228000Y-81136250D01*
X153228000Y-80137000D01*
X152528750Y-80137000D01*
X152370000Y-80295750D01*
X150742116Y-80295750D01*
X148856649Y-78410283D01*
X148588838Y-78231337D01*
X148272932Y-78168500D01*
X147279189Y-78168500D01*
X147129147Y-77943946D01*
X146847492Y-77755750D01*
X152370000Y-77755750D01*
X152370000Y-78246310D01*
X152466673Y-78479699D01*
X152645302Y-78658327D01*
X152842478Y-78740000D01*
X152645302Y-78821673D01*
X152466673Y-79000301D01*
X152370000Y-79233690D01*
X152370000Y-79724250D01*
X152528750Y-79883000D01*
X153228000Y-79883000D01*
X153228000Y-78883750D01*
X153084250Y-78740000D01*
X153228000Y-78596250D01*
X153228000Y-77597000D01*
X152528750Y-77597000D01*
X152370000Y-77755750D01*
X146847492Y-77755750D01*
X146799974Y-77724000D01*
X147129147Y-77504054D01*
X147451054Y-77022285D01*
X147516415Y-76693690D01*
X152370000Y-76693690D01*
X152370000Y-77184250D01*
X152528750Y-77343000D01*
X153228000Y-77343000D01*
X153228000Y-76343750D01*
X153069250Y-76185000D01*
X152878691Y-76185000D01*
X152645302Y-76281673D01*
X152466673Y-76460301D01*
X152370000Y-76693690D01*
X147516415Y-76693690D01*
X147564093Y-76454000D01*
X147451054Y-75885715D01*
X147129147Y-75403946D01*
X146799974Y-75184000D01*
X146958135Y-75078320D01*
X154971285Y-75078320D01*
X155100533Y-75371123D01*
X155800806Y-75639388D01*
X156550435Y-75619250D01*
X157149467Y-75371123D01*
X157278715Y-75078320D01*
X160221285Y-75078320D01*
X160350533Y-75371123D01*
X161050806Y-75639388D01*
X161800435Y-75619250D01*
X162399467Y-75371123D01*
X162528715Y-75078320D01*
X161375000Y-73924605D01*
X160221285Y-75078320D01*
X157278715Y-75078320D01*
X156125000Y-73924605D01*
X154971285Y-75078320D01*
X146958135Y-75078320D01*
X147129147Y-74964054D01*
X147451054Y-74482285D01*
X147564093Y-73914000D01*
X147465991Y-73420806D01*
X154230612Y-73420806D01*
X154250750Y-74170435D01*
X154498877Y-74769467D01*
X154791680Y-74898715D01*
X155945395Y-73745000D01*
X156304605Y-73745000D01*
X157458320Y-74898715D01*
X157751123Y-74769467D01*
X158019388Y-74069194D01*
X158001970Y-73420806D01*
X159480612Y-73420806D01*
X159500750Y-74170435D01*
X159748877Y-74769467D01*
X160041680Y-74898715D01*
X161195395Y-73745000D01*
X161554605Y-73745000D01*
X162708320Y-74898715D01*
X163001123Y-74769467D01*
X163269388Y-74069194D01*
X163249250Y-73319565D01*
X163001123Y-72720533D01*
X162708320Y-72591285D01*
X161554605Y-73745000D01*
X161195395Y-73745000D01*
X160041680Y-72591285D01*
X159748877Y-72720533D01*
X159480612Y-73420806D01*
X158001970Y-73420806D01*
X157999250Y-73319565D01*
X157751123Y-72720533D01*
X157458320Y-72591285D01*
X156304605Y-73745000D01*
X155945395Y-73745000D01*
X154791680Y-72591285D01*
X154498877Y-72720533D01*
X154230612Y-73420806D01*
X147465991Y-73420806D01*
X147451054Y-73345715D01*
X147129147Y-72863946D01*
X146799974Y-72644000D01*
X147129147Y-72424054D01*
X147137415Y-72411680D01*
X154971285Y-72411680D01*
X156125000Y-73565395D01*
X157278715Y-72411680D01*
X157149467Y-72118877D01*
X156449194Y-71850612D01*
X155699565Y-71870750D01*
X155100533Y-72118877D01*
X154971285Y-72411680D01*
X147137415Y-72411680D01*
X147451054Y-71942285D01*
X147550229Y-71443694D01*
X157115226Y-71443694D01*
X157363538Y-72044655D01*
X157822927Y-72504846D01*
X158423453Y-72754206D01*
X159073694Y-72754774D01*
X159674655Y-72506462D01*
X159769602Y-72411680D01*
X160221285Y-72411680D01*
X161375000Y-73565395D01*
X162528715Y-72411680D01*
X162399467Y-72118877D01*
X161699194Y-71850612D01*
X160949565Y-71870750D01*
X160350533Y-72118877D01*
X160221285Y-72411680D01*
X159769602Y-72411680D01*
X160134846Y-72047073D01*
X160384206Y-71446547D01*
X160384774Y-70796306D01*
X160136462Y-70195345D01*
X159770077Y-69828320D01*
X160221285Y-69828320D01*
X160350533Y-70121123D01*
X161050806Y-70389388D01*
X161800435Y-70369250D01*
X162399467Y-70121123D01*
X162528715Y-69828320D01*
X161375000Y-68674605D01*
X160221285Y-69828320D01*
X159770077Y-69828320D01*
X159677073Y-69735154D01*
X159076547Y-69485794D01*
X158426306Y-69485226D01*
X157825345Y-69733538D01*
X157365154Y-70192927D01*
X157115794Y-70793453D01*
X157115226Y-71443694D01*
X147550229Y-71443694D01*
X147564093Y-71374000D01*
X147451054Y-70805715D01*
X147129147Y-70323946D01*
X146799974Y-70104000D01*
X147129147Y-69884054D01*
X147166387Y-69828320D01*
X154971285Y-69828320D01*
X155100533Y-70121123D01*
X155800806Y-70389388D01*
X156550435Y-70369250D01*
X157149467Y-70121123D01*
X157278715Y-69828320D01*
X156125000Y-68674605D01*
X154971285Y-69828320D01*
X147166387Y-69828320D01*
X147451054Y-69402285D01*
X147564093Y-68834000D01*
X147451054Y-68265715D01*
X147387638Y-68170806D01*
X154230612Y-68170806D01*
X154250750Y-68920435D01*
X154498877Y-69519467D01*
X154791680Y-69648715D01*
X155945395Y-68495000D01*
X156304605Y-68495000D01*
X157458320Y-69648715D01*
X157751123Y-69519467D01*
X158019388Y-68819194D01*
X158001970Y-68170806D01*
X159480612Y-68170806D01*
X159500750Y-68920435D01*
X159748877Y-69519467D01*
X160041680Y-69648715D01*
X161195395Y-68495000D01*
X161554605Y-68495000D01*
X162708320Y-69648715D01*
X163001123Y-69519467D01*
X163269388Y-68819194D01*
X163249250Y-68069565D01*
X163001123Y-67470533D01*
X162708320Y-67341285D01*
X161554605Y-68495000D01*
X161195395Y-68495000D01*
X160041680Y-67341285D01*
X159748877Y-67470533D01*
X159480612Y-68170806D01*
X158001970Y-68170806D01*
X157999250Y-68069565D01*
X157751123Y-67470533D01*
X157458320Y-67341285D01*
X156304605Y-68495000D01*
X155945395Y-68495000D01*
X154791680Y-67341285D01*
X154498877Y-67470533D01*
X154230612Y-68170806D01*
X147387638Y-68170806D01*
X147129147Y-67783946D01*
X146799974Y-67564000D01*
X147129147Y-67344054D01*
X147251005Y-67161680D01*
X154971285Y-67161680D01*
X156125000Y-68315395D01*
X157278715Y-67161680D01*
X160221285Y-67161680D01*
X161375000Y-68315395D01*
X162528715Y-67161680D01*
X162399467Y-66868877D01*
X161699194Y-66600612D01*
X160949565Y-66620750D01*
X160350533Y-66868877D01*
X160221285Y-67161680D01*
X157278715Y-67161680D01*
X157149467Y-66868877D01*
X156449194Y-66600612D01*
X155699565Y-66620750D01*
X155100533Y-66868877D01*
X154971285Y-67161680D01*
X147251005Y-67161680D01*
X147451054Y-66862285D01*
X147564093Y-66294000D01*
X147451054Y-65725715D01*
X147129147Y-65243946D01*
X146647378Y-64922039D01*
X146079093Y-64809000D01*
X146076537Y-64809000D01*
X147591942Y-61245750D01*
X157850000Y-61245750D01*
X157850000Y-61986310D01*
X157946673Y-62219699D01*
X158125302Y-62398327D01*
X158358691Y-62495000D01*
X159099250Y-62495000D01*
X159258000Y-62336250D01*
X159258000Y-61087000D01*
X158008750Y-61087000D01*
X157850000Y-61245750D01*
X147591942Y-61245750D01*
X148149944Y-59933690D01*
X157850000Y-59933690D01*
X157850000Y-60674250D01*
X158008750Y-60833000D01*
X159258000Y-60833000D01*
X159258000Y-59583750D01*
X159512000Y-59583750D01*
X159512000Y-60833000D01*
X159532000Y-60833000D01*
X159532000Y-61087000D01*
X159512000Y-61087000D01*
X159512000Y-62336250D01*
X159670750Y-62495000D01*
X160411309Y-62495000D01*
X160644698Y-62398327D01*
X160823327Y-62219699D01*
X160879119Y-62085006D01*
X161054357Y-62260551D01*
X161618330Y-62494733D01*
X162228991Y-62495265D01*
X162793371Y-62262068D01*
X163225551Y-61830643D01*
X163459733Y-61266670D01*
X163460265Y-60656009D01*
X163406831Y-60526688D01*
X163643201Y-60624838D01*
X164015167Y-60625162D01*
X164358943Y-60483117D01*
X164622192Y-60220327D01*
X164632501Y-60195500D01*
X165926122Y-60195500D01*
X166103110Y-60316431D01*
X166355000Y-60367440D01*
X167655000Y-60367440D01*
X167890317Y-60323162D01*
X168106441Y-60184090D01*
X168251431Y-59971890D01*
X168302440Y-59720000D01*
X168302440Y-59020000D01*
X168258162Y-58784683D01*
X168119090Y-58568559D01*
X167906890Y-58423569D01*
X167893803Y-58420919D01*
X168106441Y-58284090D01*
X168251431Y-58071890D01*
X168302440Y-57820000D01*
X168302440Y-57120000D01*
X168258162Y-56884683D01*
X168119090Y-56668559D01*
X167906890Y-56523569D01*
X167830500Y-56508100D01*
X167830500Y-56185500D01*
X168689217Y-56185500D01*
X168705910Y-56211441D01*
X168918110Y-56356431D01*
X169170000Y-56407440D01*
X169920000Y-56407440D01*
X170155317Y-56363162D01*
X170371441Y-56224090D01*
X170397808Y-56185500D01*
X172479417Y-56185500D01*
X172420162Y-56328201D01*
X172419838Y-56700167D01*
X172561883Y-57043943D01*
X172824673Y-57307192D01*
X173168201Y-57449838D01*
X173540167Y-57450162D01*
X173883943Y-57308117D01*
X174147192Y-57045327D01*
X174289838Y-56701799D01*
X174290162Y-56329833D01*
X174228191Y-56179852D01*
X174290317Y-56168162D01*
X174506441Y-56029090D01*
X174626233Y-55853768D01*
X174730910Y-56016441D01*
X174943110Y-56161431D01*
X175195000Y-56212440D01*
X176255000Y-56212440D01*
X176490317Y-56168162D01*
X176706441Y-56029090D01*
X176851431Y-55816890D01*
X176886087Y-55645750D01*
X178060000Y-55645750D01*
X178060000Y-55886309D01*
X178156673Y-56119698D01*
X178335301Y-56298327D01*
X178568690Y-56395000D01*
X178784250Y-56395000D01*
X178943000Y-56236250D01*
X178943000Y-55487000D01*
X179197000Y-55487000D01*
X179197000Y-56236250D01*
X179355750Y-56395000D01*
X179571310Y-56395000D01*
X179804699Y-56298327D01*
X179983327Y-56119698D01*
X180080000Y-55886309D01*
X180080000Y-55645750D01*
X179921250Y-55487000D01*
X179197000Y-55487000D01*
X178943000Y-55487000D01*
X178218750Y-55487000D01*
X178060000Y-55645750D01*
X176886087Y-55645750D01*
X176902440Y-55565000D01*
X176902440Y-55158024D01*
X177300184Y-55233785D01*
X177419000Y-55245000D01*
X180975000Y-55245000D01*
X181205795Y-55201573D01*
X181417767Y-55065173D01*
X181559971Y-54857051D01*
X181610000Y-54610000D01*
X181610000Y-51562000D01*
X181566573Y-51331205D01*
X181430173Y-51119233D01*
X181222051Y-50977029D01*
X180975000Y-50927000D01*
X174752000Y-50927000D01*
X174521205Y-50970427D01*
X174309233Y-51106827D01*
X174167029Y-51314949D01*
X174125774Y-51518675D01*
X173885327Y-51277808D01*
X173541799Y-51135162D01*
X173169833Y-51134838D01*
X172826057Y-51276883D01*
X172562808Y-51539673D01*
X172420162Y-51883201D01*
X172419838Y-52255167D01*
X172542610Y-52552299D01*
X172398569Y-52763110D01*
X172347560Y-53015000D01*
X172347560Y-53665000D01*
X172373919Y-53805086D01*
X172360000Y-53838690D01*
X172360000Y-54004250D01*
X172518750Y-54163000D01*
X172599051Y-54163000D01*
X172743110Y-54261431D01*
X172880120Y-54289176D01*
X172759683Y-54311838D01*
X172596257Y-54417000D01*
X172518750Y-54417000D01*
X172401250Y-54534500D01*
X170493617Y-54534500D01*
X170555000Y-54386309D01*
X170555000Y-54145750D01*
X170396250Y-53987000D01*
X169672000Y-53987000D01*
X169672000Y-54007000D01*
X169418000Y-54007000D01*
X169418000Y-53987000D01*
X168693750Y-53987000D01*
X168535000Y-54145750D01*
X168535000Y-54386309D01*
X168596383Y-54534500D01*
X166255000Y-54534500D01*
X165939094Y-54597337D01*
X165871212Y-54642695D01*
X165877715Y-54610000D01*
X165795156Y-54194949D01*
X165645359Y-53970762D01*
X165809981Y-53633935D01*
X165683068Y-53467000D01*
X164592000Y-53467000D01*
X164592000Y-53487000D01*
X164338000Y-53487000D01*
X164338000Y-53467000D01*
X163246932Y-53467000D01*
X163120019Y-53633935D01*
X163284641Y-53970762D01*
X163134844Y-54194949D01*
X163052285Y-54610000D01*
X163134844Y-55025051D01*
X163369951Y-55376914D01*
X163721814Y-55612021D01*
X164136865Y-55694580D01*
X164793135Y-55694580D01*
X164800170Y-55693181D01*
X164800162Y-55693201D01*
X164799838Y-56065167D01*
X164941883Y-56408943D01*
X165204673Y-56672192D01*
X165548201Y-56814838D01*
X165794821Y-56815053D01*
X165758569Y-56868110D01*
X165707560Y-57120000D01*
X165707560Y-57820000D01*
X165751838Y-58055317D01*
X165890910Y-58271441D01*
X166103110Y-58416431D01*
X166116197Y-58419081D01*
X165921291Y-58544500D01*
X164150000Y-58544500D01*
X163834094Y-58607337D01*
X163726824Y-58679013D01*
X163566283Y-58786283D01*
X163566281Y-58786286D01*
X163564562Y-58788005D01*
X163301057Y-58896883D01*
X163037808Y-59159673D01*
X162895162Y-59503201D01*
X162894939Y-59758919D01*
X162795643Y-59659449D01*
X162231670Y-59425267D01*
X161621009Y-59424735D01*
X161056629Y-59657932D01*
X160879159Y-59835092D01*
X160823327Y-59700301D01*
X160644698Y-59521673D01*
X160411309Y-59425000D01*
X159670750Y-59425000D01*
X159512000Y-59583750D01*
X159258000Y-59583750D01*
X159099250Y-59425000D01*
X158358691Y-59425000D01*
X158125302Y-59521673D01*
X157946673Y-59700301D01*
X157850000Y-59933690D01*
X148149944Y-59933690D01*
X150230870Y-55040703D01*
X150239589Y-55000750D01*
X156730000Y-55000750D01*
X156730000Y-55816309D01*
X156826673Y-56049698D01*
X157005301Y-56228327D01*
X157238690Y-56325000D01*
X157829250Y-56325000D01*
X157988000Y-56166250D01*
X157988000Y-54842000D01*
X158242000Y-54842000D01*
X158242000Y-56166250D01*
X158400750Y-56325000D01*
X158991310Y-56325000D01*
X159224699Y-56228327D01*
X159403327Y-56049698D01*
X159500000Y-55816309D01*
X159500000Y-55000750D01*
X159341250Y-54842000D01*
X158242000Y-54842000D01*
X157988000Y-54842000D01*
X156888750Y-54842000D01*
X156730000Y-55000750D01*
X150239589Y-55000750D01*
X150240952Y-54994509D01*
X150232315Y-54944841D01*
X150205035Y-54902447D01*
X150163410Y-54874006D01*
X150114000Y-54864000D01*
X149479000Y-54864000D01*
X149435725Y-54871600D01*
X149392681Y-54897844D01*
X149363239Y-54938766D01*
X144825666Y-64995008D01*
X144824090Y-64992559D01*
X144611890Y-64847569D01*
X144360000Y-64796560D01*
X142660000Y-64796560D01*
X142424683Y-64840838D01*
X142208559Y-64979910D01*
X142063569Y-65192110D01*
X142012560Y-65444000D01*
X142012560Y-67144000D01*
X142056838Y-67379317D01*
X142195910Y-67595441D01*
X142408110Y-67740431D01*
X142475541Y-67754086D01*
X142430853Y-67783946D01*
X142108946Y-68265715D01*
X141995907Y-68834000D01*
X142108946Y-69402285D01*
X142430853Y-69884054D01*
X142760026Y-70104000D01*
X142430853Y-70323946D01*
X142108946Y-70805715D01*
X141995907Y-71374000D01*
X142108946Y-71942285D01*
X142430853Y-72424054D01*
X142760026Y-72644000D01*
X142430853Y-72863946D01*
X142108946Y-73345715D01*
X141995907Y-73914000D01*
X142108946Y-74482285D01*
X142430853Y-74964054D01*
X142760026Y-75184000D01*
X142430853Y-75403946D01*
X142108946Y-75885715D01*
X141995907Y-76454000D01*
X142108946Y-77022285D01*
X142430853Y-77504054D01*
X142771553Y-77731702D01*
X142628642Y-77798817D01*
X142238355Y-78227076D01*
X142068524Y-78637110D01*
X142189845Y-78867000D01*
X143383000Y-78867000D01*
X143383000Y-78847000D01*
X143637000Y-78847000D01*
X143637000Y-78867000D01*
X143657000Y-78867000D01*
X143657000Y-79121000D01*
X143637000Y-79121000D01*
X143637000Y-81407000D01*
X143657000Y-81407000D01*
X143657000Y-81661000D01*
X143637000Y-81661000D01*
X143637000Y-81681000D01*
X143383000Y-81681000D01*
X143383000Y-81661000D01*
X142189845Y-81661000D01*
X142068524Y-81890890D01*
X142238355Y-82300924D01*
X142628642Y-82729183D01*
X142771553Y-82796298D01*
X142430853Y-83023946D01*
X142108946Y-83505715D01*
X141995907Y-84074000D01*
X142108946Y-84642285D01*
X142430853Y-85124054D01*
X142912622Y-85445961D01*
X143480907Y-85559000D01*
X143539093Y-85559000D01*
X144107378Y-85445961D01*
X144589147Y-85124054D01*
X144780000Y-84838422D01*
X144970853Y-85124054D01*
X145452622Y-85445961D01*
X145923000Y-85539525D01*
X145923000Y-86169500D01*
X144434301Y-86169500D01*
X144434296Y-86169499D01*
X144118390Y-86232337D01*
X143850579Y-86411283D01*
X142926283Y-87335579D01*
X142747337Y-87603390D01*
X142736761Y-87656560D01*
X142660000Y-87656560D01*
X142424683Y-87700838D01*
X142208559Y-87839910D01*
X142063569Y-88052110D01*
X142012560Y-88304000D01*
X142012560Y-90004000D01*
X142056838Y-90239317D01*
X142195910Y-90455441D01*
X142408110Y-90600431D01*
X142475541Y-90614086D01*
X142430853Y-90643946D01*
X142108946Y-91125715D01*
X141995907Y-91694000D01*
X142108946Y-92262285D01*
X142430853Y-92744054D01*
X142760026Y-92964000D01*
X142430853Y-93183946D01*
X142108946Y-93665715D01*
X141995907Y-94234000D01*
X142108946Y-94802285D01*
X142430853Y-95284054D01*
X142760026Y-95504000D01*
X142430853Y-95723946D01*
X142108946Y-96205715D01*
X141995907Y-96774000D01*
X142108946Y-97342285D01*
X142430853Y-97824054D01*
X142760026Y-98044000D01*
X142430853Y-98263946D01*
X142108946Y-98745715D01*
X141995907Y-99314000D01*
X142108946Y-99882285D01*
X142430853Y-100364054D01*
X142760026Y-100584000D01*
X142430853Y-100803946D01*
X142108946Y-101285715D01*
X141995907Y-101854000D01*
X142108946Y-102422285D01*
X142430853Y-102904054D01*
X142760026Y-103124000D01*
X142430853Y-103343946D01*
X142108946Y-103825715D01*
X141995907Y-104394000D01*
X142108946Y-104962285D01*
X142430853Y-105444054D01*
X142760026Y-105664000D01*
X142430853Y-105883946D01*
X142108946Y-106365715D01*
X141995907Y-106934000D01*
X142108946Y-107502285D01*
X142430853Y-107984054D01*
X142760026Y-108204000D01*
X142430853Y-108423946D01*
X142108946Y-108905715D01*
X141995907Y-109474000D01*
X142108946Y-110042285D01*
X142430853Y-110524054D01*
X142760026Y-110744000D01*
X142430853Y-110963946D01*
X142108946Y-111445715D01*
X141995907Y-112014000D01*
X142108946Y-112582285D01*
X142430853Y-113064054D01*
X142760026Y-113284000D01*
X142430853Y-113503946D01*
X142108946Y-113985715D01*
X141995907Y-114554000D01*
X142108946Y-115122285D01*
X142430853Y-115604054D01*
X142771553Y-115831702D01*
X142628642Y-115898817D01*
X142238355Y-116327076D01*
X142068524Y-116737110D01*
X142189845Y-116967000D01*
X143383000Y-116967000D01*
X143383000Y-116947000D01*
X143637000Y-116947000D01*
X143637000Y-116967000D01*
X143657000Y-116967000D01*
X143657000Y-117221000D01*
X143637000Y-117221000D01*
X143637000Y-117241000D01*
X143383000Y-117241000D01*
X143383000Y-117221000D01*
X142189845Y-117221000D01*
X142068524Y-117450890D01*
X142238355Y-117860924D01*
X142628642Y-118289183D01*
X142771553Y-118356298D01*
X142430853Y-118583946D01*
X142108946Y-119065715D01*
X141995907Y-119634000D01*
X142108946Y-120202285D01*
X142430853Y-120684054D01*
X142760026Y-120904000D01*
X142430853Y-121123946D01*
X142108946Y-121605715D01*
X141995907Y-122174000D01*
X142108946Y-122742285D01*
X142430853Y-123224054D01*
X142760026Y-123444000D01*
X142430853Y-123663946D01*
X142108946Y-124145715D01*
X141995907Y-124714000D01*
X142108946Y-125282285D01*
X142430853Y-125764054D01*
X142912622Y-126085961D01*
X143480907Y-126199000D01*
X143539093Y-126199000D01*
X144107378Y-126085961D01*
X144589147Y-125764054D01*
X144780000Y-125478422D01*
X144970853Y-125764054D01*
X145452622Y-126085961D01*
X146020907Y-126199000D01*
X146079093Y-126199000D01*
X146647378Y-126085961D01*
X147129147Y-125764054D01*
X147451054Y-125282285D01*
X147564093Y-124714000D01*
X147451054Y-124145715D01*
X147129147Y-123663946D01*
X146799974Y-123444000D01*
X147129147Y-123224054D01*
X147451054Y-122742285D01*
X147564093Y-122174000D01*
X147551103Y-122108691D01*
X156045000Y-122108691D01*
X156045000Y-123699250D01*
X156203750Y-123858000D01*
X157353000Y-123858000D01*
X157353000Y-121758750D01*
X157607000Y-121758750D01*
X157607000Y-123858000D01*
X158756250Y-123858000D01*
X158915000Y-123699250D01*
X158915000Y-123610000D01*
X164872560Y-123610000D01*
X164872560Y-125310000D01*
X164916838Y-125545317D01*
X165055910Y-125761441D01*
X165268110Y-125906431D01*
X165520000Y-125957440D01*
X167220000Y-125957440D01*
X167455317Y-125913162D01*
X167671441Y-125774090D01*
X167816431Y-125561890D01*
X167830086Y-125494459D01*
X167859946Y-125539147D01*
X168341715Y-125861054D01*
X168910000Y-125974093D01*
X169478285Y-125861054D01*
X169960054Y-125539147D01*
X170180000Y-125209974D01*
X170399946Y-125539147D01*
X170881715Y-125861054D01*
X171450000Y-125974093D01*
X172018285Y-125861054D01*
X172500054Y-125539147D01*
X172720000Y-125209974D01*
X172939946Y-125539147D01*
X173421715Y-125861054D01*
X173990000Y-125974093D01*
X174558285Y-125861054D01*
X175040054Y-125539147D01*
X175260000Y-125209974D01*
X175479946Y-125539147D01*
X175961715Y-125861054D01*
X176530000Y-125974093D01*
X177098285Y-125861054D01*
X177580054Y-125539147D01*
X177800000Y-125209974D01*
X178019946Y-125539147D01*
X178501715Y-125861054D01*
X179070000Y-125974093D01*
X179638285Y-125861054D01*
X180120054Y-125539147D01*
X180441961Y-125057378D01*
X180555000Y-124489093D01*
X180555000Y-124430907D01*
X180441961Y-123862622D01*
X180120054Y-123380853D01*
X179638285Y-123058946D01*
X179070000Y-122945907D01*
X178501715Y-123058946D01*
X178019946Y-123380853D01*
X177800000Y-123710026D01*
X177580054Y-123380853D01*
X177098285Y-123058946D01*
X176530000Y-122945907D01*
X175961715Y-123058946D01*
X175479946Y-123380853D01*
X175260000Y-123710026D01*
X175040054Y-123380853D01*
X174558285Y-123058946D01*
X173990000Y-122945907D01*
X173421715Y-123058946D01*
X172939946Y-123380853D01*
X172720000Y-123710026D01*
X172500054Y-123380853D01*
X172018285Y-123058946D01*
X171450000Y-122945907D01*
X170881715Y-123058946D01*
X170399946Y-123380853D01*
X170180000Y-123710026D01*
X169960054Y-123380853D01*
X169478285Y-123058946D01*
X168910000Y-122945907D01*
X168341715Y-123058946D01*
X167859946Y-123380853D01*
X167832150Y-123422452D01*
X167823162Y-123374683D01*
X167684090Y-123158559D01*
X167471890Y-123013569D01*
X167220000Y-122962560D01*
X165520000Y-122962560D01*
X165284683Y-123006838D01*
X165068559Y-123145910D01*
X164923569Y-123358110D01*
X164872560Y-123610000D01*
X158915000Y-123610000D01*
X158915000Y-122108691D01*
X158818327Y-121875302D01*
X158639699Y-121696673D01*
X158406310Y-121600000D01*
X157765750Y-121600000D01*
X157607000Y-121758750D01*
X157353000Y-121758750D01*
X157194250Y-121600000D01*
X156553690Y-121600000D01*
X156320301Y-121696673D01*
X156141673Y-121875302D01*
X156045000Y-122108691D01*
X147551103Y-122108691D01*
X147451054Y-121605715D01*
X147129147Y-121123946D01*
X146799974Y-120904000D01*
X147129147Y-120684054D01*
X147451054Y-120202285D01*
X147564093Y-119634000D01*
X147451054Y-119065715D01*
X147129147Y-118583946D01*
X146799974Y-118364000D01*
X147129147Y-118144054D01*
X147451054Y-117662285D01*
X147564093Y-117094000D01*
X147451054Y-116525715D01*
X147213875Y-116170750D01*
X149845000Y-116170750D01*
X149845000Y-116361309D01*
X149941673Y-116594698D01*
X150120301Y-116773327D01*
X150353690Y-116870000D01*
X150844250Y-116870000D01*
X151003000Y-116711250D01*
X151003000Y-116012000D01*
X151257000Y-116012000D01*
X151257000Y-116711250D01*
X151415750Y-116870000D01*
X151906310Y-116870000D01*
X152139699Y-116773327D01*
X152318327Y-116594698D01*
X152415000Y-116361309D01*
X152415000Y-116170750D01*
X152256250Y-116012000D01*
X151257000Y-116012000D01*
X151003000Y-116012000D01*
X150003750Y-116012000D01*
X149845000Y-116170750D01*
X147213875Y-116170750D01*
X147129147Y-116043946D01*
X146799974Y-115824000D01*
X147129147Y-115604054D01*
X147451054Y-115122285D01*
X147564093Y-114554000D01*
X147451054Y-113985715D01*
X147129147Y-113503946D01*
X146799974Y-113284000D01*
X147129147Y-113064054D01*
X147451054Y-112582285D01*
X147564093Y-112014000D01*
X147506578Y-111724855D01*
X147661933Y-111569500D01*
X149478822Y-111569500D01*
X149449560Y-111714000D01*
X149449560Y-112314000D01*
X149493838Y-112549317D01*
X149632910Y-112765441D01*
X149845110Y-112910431D01*
X150097000Y-112961440D01*
X150371500Y-112961440D01*
X150371500Y-113007976D01*
X150244683Y-113031838D01*
X150028559Y-113170910D01*
X149883569Y-113383110D01*
X149832560Y-113635000D01*
X149832560Y-114335000D01*
X149876838Y-114570317D01*
X150015910Y-114786441D01*
X150228110Y-114931431D01*
X150261490Y-114938191D01*
X150120301Y-114996673D01*
X149941673Y-115175302D01*
X149845000Y-115408691D01*
X149845000Y-115599250D01*
X150003750Y-115758000D01*
X151003000Y-115758000D01*
X151003000Y-115738000D01*
X151257000Y-115738000D01*
X151257000Y-115758000D01*
X152256250Y-115758000D01*
X152415000Y-115599250D01*
X152415000Y-115408691D01*
X152318327Y-115175302D01*
X152139699Y-114996673D01*
X152003713Y-114940346D01*
X152015317Y-114938162D01*
X152231441Y-114799090D01*
X152376431Y-114586890D01*
X152376661Y-114585750D01*
X154425000Y-114585750D01*
X154425000Y-114801310D01*
X154521673Y-115034699D01*
X154700302Y-115213327D01*
X154933691Y-115310000D01*
X155174250Y-115310000D01*
X155333000Y-115151250D01*
X155333000Y-114427000D01*
X154583750Y-114427000D01*
X154425000Y-114585750D01*
X152376661Y-114585750D01*
X152427440Y-114335000D01*
X152427440Y-113798690D01*
X154425000Y-113798690D01*
X154425000Y-114014250D01*
X154583750Y-114173000D01*
X155333000Y-114173000D01*
X155333000Y-113448750D01*
X155174250Y-113290000D01*
X154933691Y-113290000D01*
X154700302Y-113386673D01*
X154521673Y-113565301D01*
X154425000Y-113798690D01*
X152427440Y-113798690D01*
X152427440Y-113635000D01*
X152383162Y-113399683D01*
X152244090Y-113183559D01*
X152031890Y-113038569D01*
X152022500Y-113036667D01*
X152022500Y-112961440D01*
X152297000Y-112961440D01*
X152532317Y-112917162D01*
X152748441Y-112778090D01*
X152893431Y-112565890D01*
X152944440Y-112314000D01*
X152944440Y-112294000D01*
X153511250Y-112294000D01*
X153670000Y-112135250D01*
X153670000Y-110236000D01*
X153650000Y-110236000D01*
X153650000Y-109982000D01*
X153670000Y-109982000D01*
X153670000Y-108082750D01*
X153511250Y-107924000D01*
X152926250Y-107924000D01*
X152932000Y-107918250D01*
X152932000Y-107777691D01*
X152835327Y-107544302D01*
X152656699Y-107365673D01*
X152423310Y-107269000D01*
X151482750Y-107269000D01*
X151324000Y-107427750D01*
X151324000Y-108077000D01*
X151344000Y-108077000D01*
X151344000Y-108331000D01*
X151324000Y-108331000D01*
X151324000Y-108351000D01*
X151070000Y-108351000D01*
X151070000Y-108331000D01*
X149620750Y-108331000D01*
X149462000Y-108489750D01*
X149462000Y-108630309D01*
X149469535Y-108648500D01*
X147279189Y-108648500D01*
X147129147Y-108423946D01*
X146799974Y-108204000D01*
X147129147Y-107984054D01*
X147267034Y-107777691D01*
X149462000Y-107777691D01*
X149462000Y-107918250D01*
X149620750Y-108077000D01*
X151070000Y-108077000D01*
X151070000Y-107427750D01*
X150911250Y-107269000D01*
X149970690Y-107269000D01*
X149737301Y-107365673D01*
X149558673Y-107544302D01*
X149462000Y-107777691D01*
X147267034Y-107777691D01*
X147451054Y-107502285D01*
X147564093Y-106934000D01*
X147534513Y-106785291D01*
X147869663Y-107121026D01*
X148336273Y-107314779D01*
X148841510Y-107315220D01*
X149308458Y-107122282D01*
X149369847Y-107061000D01*
X154879160Y-107061000D01*
X155109921Y-107291761D01*
X155061683Y-107300838D01*
X154845559Y-107439910D01*
X154700569Y-107652110D01*
X154649560Y-107904000D01*
X154649560Y-107924000D01*
X154082750Y-107924000D01*
X153924000Y-108082750D01*
X153924000Y-109982000D01*
X153944000Y-109982000D01*
X153944000Y-110236000D01*
X153924000Y-110236000D01*
X153924000Y-112135250D01*
X154082750Y-112294000D01*
X154649560Y-112294000D01*
X154649560Y-112314000D01*
X154693838Y-112549317D01*
X154832910Y-112765441D01*
X155045110Y-112910431D01*
X155297000Y-112961440D01*
X155974600Y-112961440D01*
X156333364Y-113320205D01*
X156324683Y-113321838D01*
X156221354Y-113388329D01*
X156219698Y-113386673D01*
X155986309Y-113290000D01*
X155745750Y-113290000D01*
X155587000Y-113448750D01*
X155587000Y-114173000D01*
X155607000Y-114173000D01*
X155607000Y-114427000D01*
X155587000Y-114427000D01*
X155587000Y-115151250D01*
X155745750Y-115310000D01*
X155986309Y-115310000D01*
X156219698Y-115213327D01*
X156221068Y-115211957D01*
X156308110Y-115271431D01*
X156464000Y-115303000D01*
X156464000Y-116228203D01*
X156444683Y-116231838D01*
X156228559Y-116370910D01*
X156083569Y-116583110D01*
X156032560Y-116835000D01*
X156032560Y-120335000D01*
X156076838Y-120570317D01*
X156215910Y-120786441D01*
X156428110Y-120931431D01*
X156680000Y-120982440D01*
X158280000Y-120982440D01*
X158515317Y-120938162D01*
X158731441Y-120799090D01*
X158876431Y-120586890D01*
X158927440Y-120335000D01*
X158927440Y-119165000D01*
X164872560Y-119165000D01*
X164872560Y-120865000D01*
X164916838Y-121100317D01*
X165055910Y-121316441D01*
X165268110Y-121461431D01*
X165520000Y-121512440D01*
X167220000Y-121512440D01*
X167455317Y-121468162D01*
X167671441Y-121329090D01*
X167816431Y-121116890D01*
X167830086Y-121049459D01*
X167859946Y-121094147D01*
X168341715Y-121416054D01*
X168910000Y-121529093D01*
X169478285Y-121416054D01*
X169960054Y-121094147D01*
X170180000Y-120764974D01*
X170399946Y-121094147D01*
X170881715Y-121416054D01*
X171450000Y-121529093D01*
X172018285Y-121416054D01*
X172500054Y-121094147D01*
X172720000Y-120764974D01*
X172939946Y-121094147D01*
X173421715Y-121416054D01*
X173990000Y-121529093D01*
X174558285Y-121416054D01*
X175040054Y-121094147D01*
X175267702Y-120753447D01*
X175334817Y-120896358D01*
X175763076Y-121286645D01*
X176173110Y-121456476D01*
X176403000Y-121335155D01*
X176403000Y-120142000D01*
X176383000Y-120142000D01*
X176383000Y-119888000D01*
X176403000Y-119888000D01*
X176403000Y-119868000D01*
X176657000Y-119868000D01*
X176657000Y-119888000D01*
X176677000Y-119888000D01*
X176677000Y-120142000D01*
X176657000Y-120142000D01*
X176657000Y-121335155D01*
X176886890Y-121456476D01*
X177296924Y-121286645D01*
X177725183Y-120896358D01*
X177792298Y-120753447D01*
X178019946Y-121094147D01*
X178501715Y-121416054D01*
X179070000Y-121529093D01*
X179638285Y-121416054D01*
X180120054Y-121094147D01*
X180441961Y-120612378D01*
X180555000Y-120044093D01*
X180555000Y-119985907D01*
X180441961Y-119417622D01*
X180120054Y-118935853D01*
X179638285Y-118613946D01*
X179070000Y-118500907D01*
X178827239Y-118549195D01*
X181521108Y-115855326D01*
X181655000Y-115882440D01*
X183155000Y-115882440D01*
X183390317Y-115838162D01*
X183606441Y-115699090D01*
X183751431Y-115486890D01*
X183802440Y-115235000D01*
X183802440Y-114635000D01*
X183775250Y-114490500D01*
X184334887Y-114490500D01*
X184598201Y-114599838D01*
X184970167Y-114600162D01*
X185313943Y-114458117D01*
X185577192Y-114195327D01*
X185719838Y-113851799D01*
X185720162Y-113479833D01*
X185578117Y-113136057D01*
X185315327Y-112872808D01*
X184971799Y-112730162D01*
X184599833Y-112729838D01*
X184334430Y-112839500D01*
X183773178Y-112839500D01*
X183802440Y-112695000D01*
X183802440Y-112095000D01*
X183758162Y-111859683D01*
X183694322Y-111760472D01*
X183751431Y-111676890D01*
X183802440Y-111425000D01*
X183802440Y-110825000D01*
X183758162Y-110589683D01*
X183694322Y-110490472D01*
X183751431Y-110406890D01*
X183802440Y-110155000D01*
X183802440Y-109555000D01*
X183758162Y-109319683D01*
X183694322Y-109220472D01*
X183751431Y-109136890D01*
X183802440Y-108885000D01*
X183802440Y-108285000D01*
X183758162Y-108049683D01*
X183694322Y-107950472D01*
X183751431Y-107866890D01*
X183802440Y-107615000D01*
X183802440Y-107015000D01*
X183758162Y-106779683D01*
X183694322Y-106680472D01*
X183751431Y-106596890D01*
X183802440Y-106345000D01*
X183802440Y-105745000D01*
X183758162Y-105509683D01*
X183619090Y-105293559D01*
X183406890Y-105148569D01*
X183155000Y-105097560D01*
X181655000Y-105097560D01*
X181419683Y-105141838D01*
X181203559Y-105280910D01*
X181058569Y-105493110D01*
X181007560Y-105745000D01*
X181007560Y-106345000D01*
X181051838Y-106580317D01*
X181115678Y-106679528D01*
X181058569Y-106763110D01*
X181007560Y-107015000D01*
X181007560Y-107615000D01*
X181051838Y-107850317D01*
X181115678Y-107949528D01*
X181058569Y-108033110D01*
X181007560Y-108285000D01*
X181007560Y-108885000D01*
X181051838Y-109120317D01*
X181115678Y-109219528D01*
X181058569Y-109303110D01*
X181007560Y-109555000D01*
X181007560Y-110155000D01*
X181051838Y-110390317D01*
X181115678Y-110489528D01*
X181058569Y-110573110D01*
X181007560Y-110825000D01*
X181007560Y-111425000D01*
X181051838Y-111660317D01*
X181115678Y-111759528D01*
X181058569Y-111843110D01*
X181007560Y-112095000D01*
X181007560Y-112695000D01*
X181051838Y-112930317D01*
X181115678Y-113029528D01*
X181058569Y-113113110D01*
X181007560Y-113365000D01*
X181007560Y-113965000D01*
X181043381Y-114155373D01*
X180958094Y-114172337D01*
X180690283Y-114351283D01*
X177757066Y-117284500D01*
X174440113Y-117284500D01*
X174176799Y-117175162D01*
X173804833Y-117174838D01*
X173461057Y-117316883D01*
X173197808Y-117579673D01*
X173055162Y-117923201D01*
X173054838Y-118295167D01*
X173196883Y-118638943D01*
X173271875Y-118714066D01*
X172939946Y-118935853D01*
X172720000Y-119265026D01*
X172500054Y-118935853D01*
X172168245Y-118714146D01*
X172242192Y-118640327D01*
X172367230Y-118339204D01*
X175644432Y-115062002D01*
X175778748Y-115062002D01*
X175620000Y-115220750D01*
X175620000Y-115361310D01*
X175716673Y-115594699D01*
X175895302Y-115773327D01*
X176128691Y-115870000D01*
X176719250Y-115870000D01*
X176878000Y-115711250D01*
X176878000Y-115062000D01*
X177132000Y-115062000D01*
X177132000Y-115711250D01*
X177290750Y-115870000D01*
X177881309Y-115870000D01*
X178114698Y-115773327D01*
X178293327Y-115594699D01*
X178390000Y-115361310D01*
X178390000Y-115220750D01*
X178231250Y-115062000D01*
X177132000Y-115062000D01*
X176878000Y-115062000D01*
X176858000Y-115062000D01*
X176858000Y-114808000D01*
X176878000Y-114808000D01*
X176878000Y-114788000D01*
X177132000Y-114788000D01*
X177132000Y-114808000D01*
X178231250Y-114808000D01*
X178390000Y-114649250D01*
X178390000Y-114508690D01*
X178300194Y-114291878D01*
X178351431Y-114216890D01*
X178402440Y-113965000D01*
X178402440Y-113365000D01*
X178358162Y-113129683D01*
X178294322Y-113030472D01*
X178351431Y-112946890D01*
X178402440Y-112695000D01*
X178402440Y-112095000D01*
X178358162Y-111859683D01*
X178294322Y-111760472D01*
X178351431Y-111676890D01*
X178402440Y-111425000D01*
X178402440Y-110825000D01*
X178358162Y-110589683D01*
X178294322Y-110490472D01*
X178351431Y-110406890D01*
X178402440Y-110155000D01*
X178402440Y-109555000D01*
X178358162Y-109319683D01*
X178294322Y-109220472D01*
X178351431Y-109136890D01*
X178402440Y-108885000D01*
X178402440Y-108285000D01*
X178358162Y-108049683D01*
X178294322Y-107950472D01*
X178351431Y-107866890D01*
X178402440Y-107615000D01*
X178402440Y-107015000D01*
X178358162Y-106779683D01*
X178294322Y-106680472D01*
X178351431Y-106596890D01*
X178402440Y-106345000D01*
X178402440Y-105745000D01*
X178358162Y-105509683D01*
X178219090Y-105293559D01*
X178006890Y-105148569D01*
X177830500Y-105112849D01*
X177830500Y-105069978D01*
X178023691Y-105150000D01*
X178264250Y-105150000D01*
X178423000Y-104991250D01*
X178423000Y-104267000D01*
X178677000Y-104267000D01*
X178677000Y-104991250D01*
X178835750Y-105150000D01*
X179076309Y-105150000D01*
X179309698Y-105053327D01*
X179488327Y-104874699D01*
X179585000Y-104641310D01*
X179585000Y-104425750D01*
X179426250Y-104267000D01*
X178677000Y-104267000D01*
X178423000Y-104267000D01*
X178403000Y-104267000D01*
X178403000Y-104013000D01*
X178423000Y-104013000D01*
X178423000Y-103288750D01*
X178677000Y-103288750D01*
X178677000Y-104013000D01*
X179426250Y-104013000D01*
X179585000Y-103854250D01*
X179585000Y-103638690D01*
X179488327Y-103405301D01*
X179309698Y-103226673D01*
X179076309Y-103130000D01*
X178835750Y-103130000D01*
X178677000Y-103288750D01*
X178423000Y-103288750D01*
X178264250Y-103130000D01*
X178069442Y-103130000D01*
X178099838Y-103056799D01*
X178100162Y-102684833D01*
X177958117Y-102341057D01*
X177695327Y-102077808D01*
X177351799Y-101935162D01*
X176979833Y-101934838D01*
X176636057Y-102076883D01*
X176372808Y-102339673D01*
X176230162Y-102683201D01*
X176229923Y-102957737D01*
X176224500Y-102985000D01*
X176224500Y-103284217D01*
X176198559Y-103300910D01*
X176053569Y-103513110D01*
X176002560Y-103765000D01*
X176002560Y-104515000D01*
X176046838Y-104750317D01*
X176179500Y-104956480D01*
X176179500Y-105111766D01*
X176019683Y-105141838D01*
X175803559Y-105280910D01*
X175658569Y-105493110D01*
X175607560Y-105745000D01*
X175607560Y-106345000D01*
X175628362Y-106455554D01*
X175446799Y-106380162D01*
X175074833Y-106379838D01*
X174731057Y-106521883D01*
X174652440Y-106600363D01*
X174652440Y-106010000D01*
X174608162Y-105774683D01*
X174469090Y-105558559D01*
X174256890Y-105413569D01*
X174223510Y-105406809D01*
X174364699Y-105348327D01*
X174543327Y-105169698D01*
X174640000Y-104936309D01*
X174640000Y-104745750D01*
X174481250Y-104587000D01*
X173482000Y-104587000D01*
X173482000Y-104607000D01*
X173228000Y-104607000D01*
X173228000Y-104587000D01*
X172228750Y-104587000D01*
X172070000Y-104745750D01*
X172070000Y-104936309D01*
X172166673Y-105169698D01*
X172345301Y-105348327D01*
X172481287Y-105404654D01*
X172469683Y-105406838D01*
X172253559Y-105545910D01*
X172108569Y-105758110D01*
X172057560Y-106010000D01*
X172057560Y-106710000D01*
X172101838Y-106945317D01*
X172240910Y-107161441D01*
X172453110Y-107306431D01*
X172529500Y-107321900D01*
X172529500Y-107641278D01*
X172592337Y-107957184D01*
X172771283Y-108224995D01*
X173278978Y-108732689D01*
X173387856Y-108996194D01*
X173650646Y-109259443D01*
X173994174Y-109402089D01*
X174257590Y-109402318D01*
X174298722Y-109410500D01*
X175636822Y-109410500D01*
X175607560Y-109555000D01*
X175607560Y-110155000D01*
X175651838Y-110390317D01*
X175715678Y-110489528D01*
X175658569Y-110573110D01*
X175607560Y-110825000D01*
X175607560Y-111425000D01*
X175634750Y-111569500D01*
X175456113Y-111569500D01*
X175192799Y-111460162D01*
X174820833Y-111459838D01*
X174477057Y-111601883D01*
X174213808Y-111864673D01*
X174071162Y-112208201D01*
X174070838Y-112580167D01*
X174212883Y-112923943D01*
X174475673Y-113187192D01*
X174819201Y-113329838D01*
X175041534Y-113330032D01*
X171148773Y-117222793D01*
X170921057Y-117316883D01*
X170657808Y-117579673D01*
X170515162Y-117923201D01*
X170514838Y-118295167D01*
X170656883Y-118638943D01*
X170731875Y-118714066D01*
X170399946Y-118935853D01*
X170180000Y-119265026D01*
X169960054Y-118935853D01*
X169478285Y-118613946D01*
X168910000Y-118500907D01*
X168341715Y-118613946D01*
X167859946Y-118935853D01*
X167832150Y-118977452D01*
X167823162Y-118929683D01*
X167684090Y-118713559D01*
X167471890Y-118568569D01*
X167220000Y-118517560D01*
X165520000Y-118517560D01*
X165284683Y-118561838D01*
X165068559Y-118700910D01*
X164923569Y-118913110D01*
X164872560Y-119165000D01*
X158927440Y-119165000D01*
X158927440Y-116835000D01*
X158883162Y-116599683D01*
X158744090Y-116383559D01*
X158531890Y-116238569D01*
X158496000Y-116231301D01*
X158496000Y-115569666D01*
X158496273Y-115569779D01*
X159001510Y-115570220D01*
X159384916Y-115411801D01*
X159384780Y-115567510D01*
X159577718Y-116034458D01*
X159934663Y-116392026D01*
X160401273Y-116585779D01*
X160906510Y-116586220D01*
X161373458Y-116393282D01*
X161731026Y-116036337D01*
X161924779Y-115569727D01*
X161925220Y-115064490D01*
X161732282Y-114597542D01*
X161671000Y-114536153D01*
X161671000Y-113140000D01*
X161656877Y-113069000D01*
X161593662Y-112751193D01*
X161373421Y-112421580D01*
X158977420Y-110025580D01*
X158647807Y-109805338D01*
X158570219Y-109789905D01*
X158259000Y-109728000D01*
X158100250Y-109728000D01*
X157973250Y-109601000D01*
X156524000Y-109601000D01*
X156524000Y-109621000D01*
X156270000Y-109621000D01*
X156270000Y-109601000D01*
X156250000Y-109601000D01*
X156250000Y-109347000D01*
X156270000Y-109347000D01*
X156270000Y-109327000D01*
X156524000Y-109327000D01*
X156524000Y-109347000D01*
X157973250Y-109347000D01*
X158132000Y-109188250D01*
X158132000Y-109047691D01*
X158042193Y-108830879D01*
X158093431Y-108755890D01*
X158144440Y-108504000D01*
X158144440Y-107904000D01*
X158100162Y-107668683D01*
X157961090Y-107452559D01*
X157748890Y-107307569D01*
X157497000Y-107256560D01*
X157413000Y-107256560D01*
X157413000Y-107142000D01*
X157335662Y-106753194D01*
X157220149Y-106580317D01*
X157115420Y-106423579D01*
X156018420Y-105326580D01*
X155688807Y-105106338D01*
X155624300Y-105093507D01*
X155300000Y-105029000D01*
X149370258Y-105029000D01*
X149310337Y-104968974D01*
X148843727Y-104775221D01*
X148338490Y-104774780D01*
X147871542Y-104967718D01*
X147513974Y-105324663D01*
X147320221Y-105791273D01*
X147319891Y-106169415D01*
X147129147Y-105883946D01*
X146799974Y-105664000D01*
X147129147Y-105444054D01*
X147451054Y-104962285D01*
X147564093Y-104394000D01*
X147482478Y-103983691D01*
X172070000Y-103983691D01*
X172070000Y-104174250D01*
X172228750Y-104333000D01*
X173228000Y-104333000D01*
X173228000Y-103633750D01*
X173482000Y-103633750D01*
X173482000Y-104333000D01*
X174481250Y-104333000D01*
X174640000Y-104174250D01*
X174640000Y-103983691D01*
X174543327Y-103750302D01*
X174364699Y-103571673D01*
X174131310Y-103475000D01*
X173640750Y-103475000D01*
X173482000Y-103633750D01*
X173228000Y-103633750D01*
X173069250Y-103475000D01*
X172578690Y-103475000D01*
X172345301Y-103571673D01*
X172166673Y-103750302D01*
X172070000Y-103983691D01*
X147482478Y-103983691D01*
X147451054Y-103825715D01*
X147129147Y-103343946D01*
X146788447Y-103116298D01*
X146931358Y-103049183D01*
X147321645Y-102620924D01*
X147491476Y-102210890D01*
X147370155Y-101981000D01*
X146177000Y-101981000D01*
X146177000Y-102001000D01*
X145923000Y-102001000D01*
X145923000Y-101981000D01*
X145903000Y-101981000D01*
X145903000Y-101727000D01*
X145923000Y-101727000D01*
X145923000Y-101707000D01*
X146177000Y-101707000D01*
X146177000Y-101727000D01*
X147370155Y-101727000D01*
X147491476Y-101497110D01*
X147321645Y-101087076D01*
X146931358Y-100658817D01*
X146788447Y-100591702D01*
X147129147Y-100364054D01*
X147451054Y-99882285D01*
X147564093Y-99314000D01*
X147451054Y-98745715D01*
X147129147Y-98263946D01*
X147048411Y-98210000D01*
X171857560Y-98210000D01*
X171857560Y-99910000D01*
X171901838Y-100145317D01*
X172040910Y-100361441D01*
X172253110Y-100506431D01*
X172505000Y-100557440D01*
X174205000Y-100557440D01*
X174440317Y-100513162D01*
X174656441Y-100374090D01*
X174801431Y-100161890D01*
X174852440Y-99910000D01*
X174852440Y-98210000D01*
X174808162Y-97974683D01*
X174669090Y-97758559D01*
X174456890Y-97613569D01*
X174348893Y-97591699D01*
X174626645Y-97286924D01*
X174796476Y-96876890D01*
X174675155Y-96647000D01*
X173482000Y-96647000D01*
X173482000Y-96667000D01*
X173228000Y-96667000D01*
X173228000Y-96647000D01*
X172034845Y-96647000D01*
X171913524Y-96876890D01*
X172083355Y-97286924D01*
X172359501Y-97589937D01*
X172269683Y-97606838D01*
X172053559Y-97745910D01*
X171908569Y-97958110D01*
X171857560Y-98210000D01*
X147048411Y-98210000D01*
X146799974Y-98044000D01*
X147129147Y-97824054D01*
X147451054Y-97342285D01*
X147564093Y-96774000D01*
X147451054Y-96205715D01*
X147422587Y-96163110D01*
X171913524Y-96163110D01*
X172034845Y-96393000D01*
X173228000Y-96393000D01*
X173228000Y-95199181D01*
X173482000Y-95199181D01*
X173482000Y-96393000D01*
X174675155Y-96393000D01*
X174796476Y-96163110D01*
X174626645Y-95753076D01*
X174236358Y-95324817D01*
X173711892Y-95078514D01*
X173482000Y-95199181D01*
X173228000Y-95199181D01*
X172998108Y-95078514D01*
X172473642Y-95324817D01*
X172083355Y-95753076D01*
X171913524Y-96163110D01*
X147422587Y-96163110D01*
X147129147Y-95723946D01*
X146799974Y-95504000D01*
X147129147Y-95284054D01*
X147451054Y-94802285D01*
X147564093Y-94234000D01*
X147451054Y-93665715D01*
X147129147Y-93183946D01*
X146799974Y-92964000D01*
X147129147Y-92744054D01*
X147451054Y-92262285D01*
X147564093Y-91694000D01*
X147451054Y-91125715D01*
X147129147Y-90643946D01*
X146799974Y-90424000D01*
X147129147Y-90204054D01*
X147451054Y-89722285D01*
X147564093Y-89154000D01*
X147451054Y-88585715D01*
X147129147Y-88103946D01*
X146704939Y-87820500D01*
X159669010Y-87820500D01*
X165047085Y-90285451D01*
X165100000Y-90297000D01*
X182880000Y-90297000D01*
X182929283Y-90287048D01*
X187737124Y-88262694D01*
X188101932Y-88229530D01*
X187958355Y-88387076D01*
X187788524Y-88797110D01*
X187909845Y-89027000D01*
X189103000Y-89027000D01*
X189103000Y-89007000D01*
X189357000Y-89007000D01*
X189357000Y-89027000D01*
X189377000Y-89027000D01*
X189377000Y-89281000D01*
X189357000Y-89281000D01*
X189357000Y-89301000D01*
X189103000Y-89301000D01*
X189103000Y-89281000D01*
X187909845Y-89281000D01*
X187788524Y-89510890D01*
X187958355Y-89920924D01*
X188348642Y-90349183D01*
X188491553Y-90416298D01*
X188150853Y-90643946D01*
X187828946Y-91125715D01*
X187715907Y-91694000D01*
X187828946Y-92262285D01*
X188150853Y-92744054D01*
X188480026Y-92964000D01*
X188150853Y-93183946D01*
X187828946Y-93665715D01*
X187715907Y-94234000D01*
X187828946Y-94802285D01*
X188150853Y-95284054D01*
X188480026Y-95504000D01*
X188150853Y-95723946D01*
X187828946Y-96205715D01*
X187715907Y-96774000D01*
X187828946Y-97342285D01*
X188150853Y-97824054D01*
X188480026Y-98044000D01*
X188150853Y-98263946D01*
X187828946Y-98745715D01*
X187715907Y-99314000D01*
X187828946Y-99882285D01*
X188150853Y-100364054D01*
X188480026Y-100584000D01*
X188150853Y-100803946D01*
X187828946Y-101285715D01*
X187715907Y-101854000D01*
X187828946Y-102422285D01*
X188150853Y-102904054D01*
X188491553Y-103131702D01*
X188348642Y-103198817D01*
X187958355Y-103627076D01*
X187788524Y-104037110D01*
X187909845Y-104267000D01*
X189103000Y-104267000D01*
X189103000Y-104247000D01*
X189357000Y-104247000D01*
X189357000Y-104267000D01*
X189377000Y-104267000D01*
X189377000Y-104521000D01*
X189357000Y-104521000D01*
X189357000Y-104541000D01*
X189103000Y-104541000D01*
X189103000Y-104521000D01*
X187909845Y-104521000D01*
X187788524Y-104750890D01*
X187958355Y-105160924D01*
X188348642Y-105589183D01*
X188491553Y-105656298D01*
X188150853Y-105883946D01*
X187828946Y-106365715D01*
X187715907Y-106934000D01*
X187828946Y-107502285D01*
X188150853Y-107984054D01*
X188480026Y-108204000D01*
X188150853Y-108423946D01*
X187828946Y-108905715D01*
X187715907Y-109474000D01*
X187828946Y-110042285D01*
X188150853Y-110524054D01*
X188480026Y-110744000D01*
X188150853Y-110963946D01*
X187828946Y-111445715D01*
X187715907Y-112014000D01*
X187828946Y-112582285D01*
X188150853Y-113064054D01*
X188480026Y-113284000D01*
X188150853Y-113503946D01*
X187828946Y-113985715D01*
X187715907Y-114554000D01*
X187828946Y-115122285D01*
X188150853Y-115604054D01*
X188491553Y-115831702D01*
X188348642Y-115898817D01*
X187958355Y-116327076D01*
X187788524Y-116737110D01*
X187909845Y-116967000D01*
X189103000Y-116967000D01*
X189103000Y-116947000D01*
X189357000Y-116947000D01*
X189357000Y-116967000D01*
X189377000Y-116967000D01*
X189377000Y-117221000D01*
X189357000Y-117221000D01*
X189357000Y-117241000D01*
X189103000Y-117241000D01*
X189103000Y-117221000D01*
X187909845Y-117221000D01*
X187788524Y-117450890D01*
X187958355Y-117860924D01*
X188348642Y-118289183D01*
X188491553Y-118356298D01*
X188150853Y-118583946D01*
X187828946Y-119065715D01*
X187715907Y-119634000D01*
X187828946Y-120202285D01*
X188150853Y-120684054D01*
X188480026Y-120904000D01*
X188150853Y-121123946D01*
X187828946Y-121605715D01*
X187715907Y-122174000D01*
X187828946Y-122742285D01*
X188150853Y-123224054D01*
X188480026Y-123444000D01*
X188150853Y-123663946D01*
X187828946Y-124145715D01*
X187715907Y-124714000D01*
X187828946Y-125282285D01*
X188150853Y-125764054D01*
X188632622Y-126085961D01*
X189200907Y-126199000D01*
X189259093Y-126199000D01*
X189827378Y-126085961D01*
X190309147Y-125764054D01*
X190500000Y-125478422D01*
X190690853Y-125764054D01*
X191172622Y-126085961D01*
X191740907Y-126199000D01*
X191799093Y-126199000D01*
X192367378Y-126085961D01*
X192849147Y-125764054D01*
X193171054Y-125282285D01*
X193284093Y-124714000D01*
X193171054Y-124145715D01*
X192849147Y-123663946D01*
X192519974Y-123444000D01*
X192849147Y-123224054D01*
X193171054Y-122742285D01*
X193284093Y-122174000D01*
X193171054Y-121605715D01*
X192849147Y-121123946D01*
X192519974Y-120904000D01*
X192849147Y-120684054D01*
X193171054Y-120202285D01*
X193284093Y-119634000D01*
X193171054Y-119065715D01*
X192849147Y-118583946D01*
X192519974Y-118364000D01*
X192849147Y-118144054D01*
X193171054Y-117662285D01*
X193284093Y-117094000D01*
X193171054Y-116525715D01*
X192849147Y-116043946D01*
X192519974Y-115824000D01*
X192849147Y-115604054D01*
X193171054Y-115122285D01*
X193284093Y-114554000D01*
X193171054Y-113985715D01*
X192849147Y-113503946D01*
X192519974Y-113284000D01*
X192849147Y-113064054D01*
X193171054Y-112582285D01*
X193284093Y-112014000D01*
X193171054Y-111445715D01*
X192849147Y-110963946D01*
X192508447Y-110736298D01*
X192651358Y-110669183D01*
X193041645Y-110240924D01*
X193211476Y-109830890D01*
X193090155Y-109601000D01*
X191897000Y-109601000D01*
X191897000Y-109621000D01*
X191643000Y-109621000D01*
X191643000Y-109601000D01*
X191623000Y-109601000D01*
X191623000Y-109347000D01*
X191643000Y-109347000D01*
X191643000Y-109327000D01*
X191897000Y-109327000D01*
X191897000Y-109347000D01*
X193090155Y-109347000D01*
X193211476Y-109117110D01*
X193041645Y-108707076D01*
X192651358Y-108278817D01*
X192508447Y-108211702D01*
X192849147Y-107984054D01*
X193171054Y-107502285D01*
X193284093Y-106934000D01*
X193171054Y-106365715D01*
X192849147Y-105883946D01*
X192519974Y-105664000D01*
X192849147Y-105444054D01*
X193171054Y-104962285D01*
X193284093Y-104394000D01*
X193171054Y-103825715D01*
X192849147Y-103343946D01*
X192519974Y-103124000D01*
X192849147Y-102904054D01*
X193171054Y-102422285D01*
X193284093Y-101854000D01*
X193171054Y-101285715D01*
X192849147Y-100803946D01*
X192519974Y-100584000D01*
X192849147Y-100364054D01*
X193171054Y-99882285D01*
X193284093Y-99314000D01*
X193171054Y-98745715D01*
X192849147Y-98263946D01*
X192519974Y-98044000D01*
X192849147Y-97824054D01*
X193171054Y-97342285D01*
X193284093Y-96774000D01*
X193171054Y-96205715D01*
X192849147Y-95723946D01*
X192519974Y-95504000D01*
X192849147Y-95284054D01*
X193171054Y-94802285D01*
X193284093Y-94234000D01*
X193171054Y-93665715D01*
X192849147Y-93183946D01*
X192519974Y-92964000D01*
X192849147Y-92744054D01*
X193171054Y-92262285D01*
X193284093Y-91694000D01*
X193171054Y-91125715D01*
X192849147Y-90643946D01*
X192519974Y-90424000D01*
X192849147Y-90204054D01*
X193171054Y-89722285D01*
X193284093Y-89154000D01*
X193171054Y-88585715D01*
X192849147Y-88103946D01*
X192519974Y-87884000D01*
X192849147Y-87664054D01*
X193171054Y-87182285D01*
X193284093Y-86614000D01*
X193171054Y-86045715D01*
X192849147Y-85563946D01*
X192519974Y-85344000D01*
X192849147Y-85124054D01*
X193171054Y-84642285D01*
X193284093Y-84074000D01*
X193171054Y-83505715D01*
X192849147Y-83023946D01*
X192449885Y-82757168D01*
X192602607Y-82726790D01*
X192870418Y-82547844D01*
X193600000Y-81818261D01*
X193600000Y-126290000D01*
X158599447Y-126290000D01*
X158639699Y-126273327D01*
X158818327Y-126094698D01*
X158915000Y-125861309D01*
X158915000Y-124270750D01*
X158756250Y-124112000D01*
X157607000Y-124112000D01*
X157607000Y-124132000D01*
X157353000Y-124132000D01*
X157353000Y-124112000D01*
X156203750Y-124112000D01*
X156045000Y-124270750D01*
X156045000Y-125861309D01*
X156141673Y-126094698D01*
X156320301Y-126273327D01*
X156360553Y-126290000D01*
X141680000Y-126290000D01*
X141680000Y-79350890D01*
X142068524Y-79350890D01*
X142238355Y-79760924D01*
X142628642Y-80189183D01*
X142787954Y-80264000D01*
X142628642Y-80338817D01*
X142238355Y-80767076D01*
X142068524Y-81177110D01*
X142189845Y-81407000D01*
X143383000Y-81407000D01*
X143383000Y-79121000D01*
X142189845Y-79121000D01*
X142068524Y-79350890D01*
X141680000Y-79350890D01*
X141680000Y-53313366D01*
X141741155Y-53461372D01*
X142369321Y-54090636D01*
X143190481Y-54431611D01*
X144079619Y-54432387D01*
X144901372Y-54092845D01*
X145530636Y-53464679D01*
X145871611Y-52643519D01*
X145871800Y-52426892D01*
X150323514Y-52426892D01*
X150569817Y-52951358D01*
X150998076Y-53341645D01*
X151408110Y-53511476D01*
X151638000Y-53390155D01*
X151638000Y-52197000D01*
X150444181Y-52197000D01*
X150323514Y-52426892D01*
X145871800Y-52426892D01*
X145872387Y-51754381D01*
X145855334Y-51713108D01*
X150323514Y-51713108D01*
X150444181Y-51943000D01*
X151638000Y-51943000D01*
X151638000Y-50749845D01*
X151408110Y-50628524D01*
X150998076Y-50798355D01*
X150569817Y-51188642D01*
X150323514Y-51713108D01*
X145855334Y-51713108D01*
X145532845Y-50932628D01*
X144904679Y-50303364D01*
X144083519Y-49962389D01*
X143194381Y-49961613D01*
X142372628Y-50301155D01*
X141743364Y-50929321D01*
X141680000Y-51081919D01*
X141680000Y-49605000D01*
X155067396Y-49605000D01*
X154940221Y-49911273D01*
X154940221Y-49911273D01*
G37*
X154940221Y-49911273D02*
X154939780Y-50416510D01*
X155004258Y-50572560D01*
X153455000Y-50572560D01*
X153219683Y-50616838D01*
X153003559Y-50755910D01*
X152858569Y-50968110D01*
X152836699Y-51076107D01*
X152531924Y-50798355D01*
X152121890Y-50628524D01*
X151892000Y-50749845D01*
X151892000Y-51943000D01*
X151912000Y-51943000D01*
X151912000Y-52197000D01*
X151892000Y-52197000D01*
X151892000Y-53390155D01*
X152121890Y-53511476D01*
X152531924Y-53341645D01*
X152834937Y-53065499D01*
X152851838Y-53155317D01*
X152990910Y-53371441D01*
X153203110Y-53516431D01*
X153455000Y-53567440D01*
X155155000Y-53567440D01*
X155390317Y-53523162D01*
X155606441Y-53384090D01*
X155751431Y-53171890D01*
X155802440Y-52920000D01*
X155802440Y-51370902D01*
X155956273Y-51434779D01*
X156043014Y-51434855D01*
X156717560Y-52109401D01*
X156717560Y-52940000D01*
X156761838Y-53175317D01*
X156867482Y-53339493D01*
X156826673Y-53380302D01*
X156730000Y-53613691D01*
X156730000Y-54429250D01*
X156888750Y-54588000D01*
X157988000Y-54588000D01*
X157988000Y-54568000D01*
X158242000Y-54568000D01*
X158242000Y-54588000D01*
X159341250Y-54588000D01*
X159500000Y-54429250D01*
X159500000Y-54375750D01*
X159645000Y-54375750D01*
X159645000Y-54616309D01*
X159741673Y-54849698D01*
X159920301Y-55028327D01*
X160153690Y-55125000D01*
X160369250Y-55125000D01*
X160528000Y-54966250D01*
X160528000Y-54217000D01*
X160782000Y-54217000D01*
X160782000Y-54966250D01*
X160940750Y-55125000D01*
X161156310Y-55125000D01*
X161389699Y-55028327D01*
X161568327Y-54849698D01*
X161665000Y-54616309D01*
X161665000Y-54375750D01*
X161506250Y-54217000D01*
X160782000Y-54217000D01*
X160528000Y-54217000D01*
X159803750Y-54217000D01*
X159645000Y-54375750D01*
X159500000Y-54375750D01*
X159500000Y-53613691D01*
X159403327Y-53380302D01*
X159361366Y-53338340D01*
X159461431Y-53191890D01*
X159504137Y-52981000D01*
X159609160Y-52981000D01*
X159635898Y-53007738D01*
X159676838Y-53225317D01*
X159743329Y-53328646D01*
X159741673Y-53330302D01*
X159645000Y-53563691D01*
X159645000Y-53804250D01*
X159803750Y-53963000D01*
X160528000Y-53963000D01*
X160528000Y-53943000D01*
X160782000Y-53943000D01*
X160782000Y-53963000D01*
X161506250Y-53963000D01*
X161665000Y-53804250D01*
X161665000Y-53563691D01*
X161569731Y-53333691D01*
X168535000Y-53333691D01*
X168535000Y-53574250D01*
X168693750Y-53733000D01*
X169418000Y-53733000D01*
X169418000Y-52983750D01*
X169672000Y-52983750D01*
X169672000Y-53733000D01*
X170396250Y-53733000D01*
X170555000Y-53574250D01*
X170555000Y-53333691D01*
X170458327Y-53100302D01*
X170279699Y-52921673D01*
X170046310Y-52825000D01*
X169830750Y-52825000D01*
X169672000Y-52983750D01*
X169418000Y-52983750D01*
X169259250Y-52825000D01*
X169043690Y-52825000D01*
X168810301Y-52921673D01*
X168631673Y-53100302D01*
X168535000Y-53333691D01*
X161569731Y-53333691D01*
X161568327Y-53330302D01*
X161566957Y-53328932D01*
X161626431Y-53241890D01*
X161658000Y-53086000D01*
X162560000Y-53086000D01*
X162948806Y-53008662D01*
X163230191Y-52820645D01*
X163120019Y-53046065D01*
X163246932Y-53213000D01*
X164338000Y-53213000D01*
X164338000Y-53193000D01*
X164592000Y-53193000D01*
X164592000Y-53213000D01*
X165683068Y-53213000D01*
X165809981Y-53046065D01*
X165645359Y-52709238D01*
X165795156Y-52485051D01*
X165877715Y-52070000D01*
X165795156Y-51654949D01*
X165560049Y-51303086D01*
X165208186Y-51067979D01*
X164793135Y-50985420D01*
X164136865Y-50985420D01*
X163721814Y-51067979D01*
X163369951Y-51303086D01*
X163307984Y-51395826D01*
X163278420Y-51351580D01*
X162948806Y-51131338D01*
X162560000Y-51054000D01*
X161175000Y-51054000D01*
X160850700Y-51118507D01*
X160786193Y-51131338D01*
X160681071Y-51201579D01*
X160418807Y-51026338D01*
X160354300Y-51013507D01*
X160030000Y-50949000D01*
X159504725Y-50949000D01*
X159468162Y-50754683D01*
X159329090Y-50538559D01*
X159116890Y-50393569D01*
X158865000Y-50342560D01*
X157824400Y-50342560D01*
X157480146Y-49998306D01*
X157480220Y-49913490D01*
X157352755Y-49605000D01*
X193600000Y-49605000D01*
X193600000Y-52263668D01*
X193037679Y-51700364D01*
X192216519Y-51359389D01*
X191327381Y-51358613D01*
X190505628Y-51698155D01*
X189876364Y-52326321D01*
X189535389Y-53147481D01*
X189534613Y-54036619D01*
X189874155Y-54858372D01*
X190502321Y-55487636D01*
X191192275Y-55774130D01*
X191172622Y-55778039D01*
X190690853Y-56099946D01*
X190690029Y-56101179D01*
X190683162Y-56064683D01*
X190544090Y-55848559D01*
X190331890Y-55703569D01*
X190080000Y-55652560D01*
X188380000Y-55652560D01*
X188144683Y-55696838D01*
X187928559Y-55835910D01*
X187783569Y-56048110D01*
X187732560Y-56300000D01*
X187732560Y-58000000D01*
X187776838Y-58235317D01*
X187915910Y-58451441D01*
X188128110Y-58596431D01*
X188195541Y-58610086D01*
X188150853Y-58639946D01*
X188000811Y-58864500D01*
X187394113Y-58864500D01*
X187130799Y-58755162D01*
X186758833Y-58754838D01*
X186415057Y-58896883D01*
X186151808Y-59159673D01*
X186009162Y-59503201D01*
X186008838Y-59875167D01*
X186150883Y-60218943D01*
X186413673Y-60482192D01*
X186757201Y-60624838D01*
X187129167Y-60625162D01*
X187394570Y-60515500D01*
X188000811Y-60515500D01*
X188150853Y-60740054D01*
X188480026Y-60960000D01*
X188150853Y-61179946D01*
X187828946Y-61661715D01*
X187715907Y-62230000D01*
X187828946Y-62798285D01*
X188150853Y-63280054D01*
X188480026Y-63500000D01*
X188150853Y-63719946D01*
X187828946Y-64201715D01*
X187715907Y-64770000D01*
X187828946Y-65338285D01*
X188150853Y-65820054D01*
X188480026Y-66040000D01*
X188150853Y-66259946D01*
X187828946Y-66741715D01*
X187715907Y-67310000D01*
X187828946Y-67878285D01*
X188150853Y-68360054D01*
X188480026Y-68580000D01*
X188150853Y-68799946D01*
X187828946Y-69281715D01*
X187715907Y-69850000D01*
X187828946Y-70418285D01*
X188150853Y-70900054D01*
X188480026Y-71120000D01*
X188150853Y-71339946D01*
X187828946Y-71821715D01*
X187715907Y-72390000D01*
X187828946Y-72958285D01*
X188150853Y-73440054D01*
X188480026Y-73660000D01*
X188150853Y-73879946D01*
X187828946Y-74361715D01*
X187715907Y-74930000D01*
X187828946Y-75498285D01*
X188150853Y-75980054D01*
X188480026Y-76200000D01*
X188150853Y-76419946D01*
X187828946Y-76901715D01*
X187715907Y-77470000D01*
X187773421Y-77759145D01*
X186983066Y-78549500D01*
X174757465Y-78549500D01*
X174765000Y-78531310D01*
X174765000Y-78390750D01*
X174606250Y-78232000D01*
X173482000Y-78232000D01*
X173482000Y-78252000D01*
X173228000Y-78252000D01*
X173228000Y-78232000D01*
X172103750Y-78232000D01*
X171945000Y-78390750D01*
X171945000Y-78531310D01*
X172034806Y-78748122D01*
X171983569Y-78823110D01*
X171932560Y-79075000D01*
X171932560Y-79675000D01*
X171976838Y-79910317D01*
X172040678Y-80009528D01*
X171983569Y-80093110D01*
X171932560Y-80345000D01*
X171932560Y-80945000D01*
X171976838Y-81180317D01*
X172040678Y-81279528D01*
X171983569Y-81363110D01*
X171932560Y-81615000D01*
X171932560Y-82215000D01*
X171976838Y-82450317D01*
X172115910Y-82666441D01*
X172328110Y-82811431D01*
X172580000Y-82862440D01*
X174130000Y-82862440D01*
X174361455Y-82818889D01*
X174993006Y-83450439D01*
X175101883Y-83713943D01*
X175364673Y-83977192D01*
X175708201Y-84119838D01*
X176080167Y-84120162D01*
X176302560Y-84028271D01*
X176302560Y-84035000D01*
X176346838Y-84270317D01*
X176485910Y-84486441D01*
X176698110Y-84631431D01*
X176806107Y-84653301D01*
X176528355Y-84958076D01*
X176358524Y-85368110D01*
X176479845Y-85598000D01*
X177673000Y-85598000D01*
X177673000Y-85578000D01*
X177927000Y-85578000D01*
X177927000Y-85598000D01*
X179120155Y-85598000D01*
X179241476Y-85368110D01*
X179071645Y-84958076D01*
X178795499Y-84655063D01*
X178885317Y-84638162D01*
X179101441Y-84499090D01*
X179246431Y-84286890D01*
X179297440Y-84035000D01*
X179297440Y-82335000D01*
X179253162Y-82099683D01*
X179114090Y-81883559D01*
X178901890Y-81738569D01*
X178650000Y-81687560D01*
X176950000Y-81687560D01*
X176714683Y-81731838D01*
X176498559Y-81870910D01*
X176353569Y-82083110D01*
X176302560Y-82335000D01*
X176302560Y-82341830D01*
X176160115Y-82282682D01*
X175208717Y-81331283D01*
X174940906Y-81152337D01*
X174743408Y-81113053D01*
X174777440Y-80945000D01*
X174777440Y-80345000D01*
X174750250Y-80200500D01*
X187325000Y-80200500D01*
X187640906Y-80137663D01*
X187729523Y-80078451D01*
X187828946Y-80578285D01*
X188150853Y-81060054D01*
X188268446Y-81138627D01*
X187815488Y-81138627D01*
X187552174Y-81029289D01*
X187180208Y-81028965D01*
X186836432Y-81171010D01*
X186573183Y-81433800D01*
X186430537Y-81777328D01*
X186430213Y-82149294D01*
X186572258Y-82493070D01*
X186835048Y-82756319D01*
X187178576Y-82898965D01*
X187550542Y-82899289D01*
X187815945Y-82789627D01*
X187908254Y-82789627D01*
X187783569Y-82972110D01*
X187732560Y-83224000D01*
X187732560Y-84924000D01*
X187776838Y-85159317D01*
X187915910Y-85375441D01*
X188128110Y-85520431D01*
X188236107Y-85542301D01*
X187958355Y-85847076D01*
X187788524Y-86257110D01*
X187909845Y-86487000D01*
X189103000Y-86487000D01*
X189103000Y-86467000D01*
X189357000Y-86467000D01*
X189357000Y-86487000D01*
X189377000Y-86487000D01*
X189377000Y-86741000D01*
X189357000Y-86741000D01*
X189357000Y-86761000D01*
X189103000Y-86761000D01*
X189103000Y-86741000D01*
X187909845Y-86741000D01*
X187788524Y-86970890D01*
X187958355Y-87380924D01*
X188127764Y-87566815D01*
X187335128Y-87503404D01*
X187300093Y-87505466D01*
X184125093Y-88140466D01*
X184109839Y-88144517D01*
X182224390Y-88773000D01*
X165765789Y-88773000D01*
X162066452Y-86867280D01*
X162851842Y-86081890D01*
X176358524Y-86081890D01*
X176528355Y-86491924D01*
X176918642Y-86920183D01*
X177443108Y-87166486D01*
X177673000Y-87045819D01*
X177673000Y-85852000D01*
X177927000Y-85852000D01*
X177927000Y-87045819D01*
X178156892Y-87166486D01*
X178681358Y-86920183D01*
X179071645Y-86491924D01*
X179241476Y-86081890D01*
X179120155Y-85852000D01*
X177927000Y-85852000D01*
X177673000Y-85852000D01*
X176479845Y-85852000D01*
X176358524Y-86081890D01*
X162851842Y-86081890D01*
X166562043Y-82371689D01*
X166576838Y-82450317D01*
X166715910Y-82666441D01*
X166928110Y-82811431D01*
X167180000Y-82862440D01*
X168730000Y-82862440D01*
X168965317Y-82818162D01*
X169086007Y-82740500D01*
X169111000Y-82740500D01*
X169426906Y-82677663D01*
X169694717Y-82498717D01*
X171283714Y-80909719D01*
X171283717Y-80909717D01*
X171462663Y-80641905D01*
X171525500Y-80326000D01*
X171525500Y-77678690D01*
X171945000Y-77678690D01*
X171945000Y-77819250D01*
X172103750Y-77978000D01*
X173228000Y-77978000D01*
X173228000Y-77328750D01*
X173482000Y-77328750D01*
X173482000Y-77978000D01*
X174606250Y-77978000D01*
X174765000Y-77819250D01*
X174765000Y-77678690D01*
X174668327Y-77445301D01*
X174489698Y-77266673D01*
X174256309Y-77170000D01*
X173640750Y-77170000D01*
X173482000Y-77328750D01*
X173228000Y-77328750D01*
X173069250Y-77170000D01*
X172822877Y-77170000D01*
X172959698Y-77113327D01*
X173138327Y-76934699D01*
X173235000Y-76701310D01*
X173235000Y-76485750D01*
X173076250Y-76327000D01*
X172327000Y-76327000D01*
X172327000Y-77051250D01*
X172448076Y-77172326D01*
X172220302Y-77266673D01*
X172041673Y-77445301D01*
X171945000Y-77678690D01*
X171525500Y-77678690D01*
X171525500Y-77148617D01*
X171673691Y-77210000D01*
X171914250Y-77210000D01*
X172073000Y-77051250D01*
X172073000Y-76327000D01*
X172053000Y-76327000D01*
X172053000Y-76073000D01*
X172073000Y-76073000D01*
X172073000Y-75348750D01*
X172327000Y-75348750D01*
X172327000Y-76073000D01*
X173076250Y-76073000D01*
X173235000Y-75914250D01*
X173235000Y-75698690D01*
X173138327Y-75465301D01*
X172959698Y-75286673D01*
X172726309Y-75190000D01*
X172485750Y-75190000D01*
X172327000Y-75348750D01*
X172073000Y-75348750D01*
X171914250Y-75190000D01*
X171673691Y-75190000D01*
X171440302Y-75286673D01*
X171438932Y-75288043D01*
X171351890Y-75228569D01*
X171100000Y-75177560D01*
X170300000Y-75177560D01*
X170064683Y-75221838D01*
X169848559Y-75360910D01*
X169839273Y-75374500D01*
X169360113Y-75374500D01*
X169096799Y-75265162D01*
X168724833Y-75264838D01*
X168381057Y-75406883D01*
X168117808Y-75669673D01*
X167975162Y-76013201D01*
X167974838Y-76385167D01*
X168116883Y-76728943D01*
X168379673Y-76992192D01*
X168723201Y-77134838D01*
X169095167Y-77135162D01*
X169360570Y-77025500D01*
X169835304Y-77025500D01*
X169835910Y-77026441D01*
X169874500Y-77052808D01*
X169874500Y-79984067D01*
X169377440Y-80481127D01*
X169377440Y-80345000D01*
X169333162Y-80109683D01*
X169269322Y-80010472D01*
X169326431Y-79926890D01*
X169377440Y-79675000D01*
X169377440Y-79075000D01*
X169333162Y-78839683D01*
X169269322Y-78740472D01*
X169326431Y-78656890D01*
X169377440Y-78405000D01*
X169377440Y-77805000D01*
X169333162Y-77569683D01*
X169194090Y-77353559D01*
X168981890Y-77208569D01*
X168730000Y-77157560D01*
X168174994Y-77157560D01*
X167903717Y-76886283D01*
X167635906Y-76707337D01*
X167320000Y-76644500D01*
X161934417Y-76644500D01*
X161923162Y-76584683D01*
X161784090Y-76368559D01*
X161571890Y-76223569D01*
X161320000Y-76172560D01*
X160620000Y-76172560D01*
X160384683Y-76216838D01*
X160168559Y-76355910D01*
X160023569Y-76568110D01*
X160020919Y-76581197D01*
X159884090Y-76368559D01*
X159671890Y-76223569D01*
X159420000Y-76172560D01*
X158900900Y-76172560D01*
X158750906Y-76072337D01*
X158435000Y-76009500D01*
X157930113Y-76009500D01*
X157666799Y-75900162D01*
X157294833Y-75899838D01*
X157029430Y-76009500D01*
X155890005Y-76009500D01*
X155890000Y-76009499D01*
X155574095Y-76072337D01*
X155424100Y-76172560D01*
X154905000Y-76172560D01*
X154669683Y-76216838D01*
X154453559Y-76355910D01*
X154308569Y-76568110D01*
X154301809Y-76601490D01*
X154243327Y-76460301D01*
X154064698Y-76281673D01*
X153831309Y-76185000D01*
X153640750Y-76185000D01*
X153482000Y-76343750D01*
X153482000Y-77343000D01*
X153502000Y-77343000D01*
X153502000Y-77597000D01*
X153482000Y-77597000D01*
X153482000Y-78596250D01*
X153625750Y-78740000D01*
X153482000Y-78883750D01*
X153482000Y-79883000D01*
X153502000Y-79883000D01*
X153502000Y-80137000D01*
X153482000Y-80137000D01*
X153482000Y-81136250D01*
X153640750Y-81295000D01*
X153831309Y-81295000D01*
X154064698Y-81198327D01*
X154243327Y-81019699D01*
X154299654Y-80883713D01*
X154301838Y-80895317D01*
X154440910Y-81111441D01*
X154653110Y-81256431D01*
X154905000Y-81307440D01*
X155605000Y-81307440D01*
X155840317Y-81263162D01*
X156056441Y-81124090D01*
X156069732Y-81104638D01*
X156088910Y-81134441D01*
X156301110Y-81279431D01*
X156553000Y-81330440D01*
X157620857Y-81330440D01*
X157561162Y-81474201D01*
X157560838Y-81846167D01*
X157702883Y-82189943D01*
X157835269Y-82322560D01*
X156630000Y-82322560D01*
X156394683Y-82366838D01*
X156178559Y-82505910D01*
X156033569Y-82718110D01*
X155982560Y-82970000D01*
X155982560Y-84670000D01*
X156026838Y-84905317D01*
X156165910Y-85121441D01*
X156378110Y-85266431D01*
X156630000Y-85317440D01*
X158330000Y-85317440D01*
X158565317Y-85273162D01*
X158781441Y-85134090D01*
X158926431Y-84921890D01*
X158940086Y-84854459D01*
X158969946Y-84899147D01*
X159451715Y-85221054D01*
X160020000Y-85334093D01*
X160588285Y-85221054D01*
X161070054Y-84899147D01*
X161391961Y-84417378D01*
X161505000Y-83849093D01*
X161505000Y-83790907D01*
X161391961Y-83222622D01*
X161070054Y-82740853D01*
X160588285Y-82418946D01*
X160020000Y-82305907D01*
X159451715Y-82418946D01*
X158969946Y-82740853D01*
X158942150Y-82782452D01*
X158933162Y-82734683D01*
X158809820Y-82543004D01*
X159024943Y-82454117D01*
X159288192Y-82191327D01*
X159398318Y-81926116D01*
X160097714Y-81226719D01*
X160097717Y-81226717D01*
X160190528Y-81087816D01*
X160199317Y-81086162D01*
X160415441Y-80947090D01*
X160560431Y-80734890D01*
X160611440Y-80483000D01*
X160611440Y-79283000D01*
X160567162Y-79047683D01*
X160428090Y-78831559D01*
X160215890Y-78686569D01*
X159964000Y-78635560D01*
X159791454Y-78635560D01*
X159871441Y-78584090D01*
X160016431Y-78371890D01*
X160019081Y-78358803D01*
X160155910Y-78571441D01*
X160368110Y-78716431D01*
X160620000Y-78767440D01*
X161320000Y-78767440D01*
X161555317Y-78723162D01*
X161771441Y-78584090D01*
X161916431Y-78371890D01*
X161931900Y-78295500D01*
X161988500Y-78295500D01*
X161988500Y-78770043D01*
X161912559Y-78818910D01*
X161767569Y-79031110D01*
X161716560Y-79283000D01*
X161716560Y-80483000D01*
X161760838Y-80718317D01*
X161899910Y-80934441D01*
X162112110Y-81079431D01*
X162364000Y-81130440D01*
X163264000Y-81130440D01*
X163499317Y-81086162D01*
X163715441Y-80947090D01*
X163840700Y-80763768D01*
X163930189Y-80897698D01*
X164395736Y-81208767D01*
X164944887Y-81318000D01*
X165001113Y-81318000D01*
X165350327Y-81248537D01*
X160429364Y-86169500D01*
X154042566Y-86169500D01*
X154096838Y-86038799D01*
X154097162Y-85666833D01*
X153987500Y-85401430D01*
X153987500Y-83883068D01*
X153964754Y-83768716D01*
X153924663Y-83567162D01*
X153794125Y-83371799D01*
X153745717Y-83299351D01*
X153745714Y-83299349D01*
X150742116Y-80295750D01*
X152370000Y-80295750D01*
X152370000Y-80786310D01*
X152466673Y-81019699D01*
X152645302Y-81198327D01*
X152878691Y-81295000D01*
X153069250Y-81295000D01*
X153228000Y-81136250D01*
X153228000Y-80137000D01*
X152528750Y-80137000D01*
X152370000Y-80295750D01*
X150742116Y-80295750D01*
X148856649Y-78410283D01*
X148588838Y-78231337D01*
X148272932Y-78168500D01*
X147279189Y-78168500D01*
X147129147Y-77943946D01*
X146847492Y-77755750D01*
X152370000Y-77755750D01*
X152370000Y-78246310D01*
X152466673Y-78479699D01*
X152645302Y-78658327D01*
X152842478Y-78740000D01*
X152645302Y-78821673D01*
X152466673Y-79000301D01*
X152370000Y-79233690D01*
X152370000Y-79724250D01*
X152528750Y-79883000D01*
X153228000Y-79883000D01*
X153228000Y-78883750D01*
X153084250Y-78740000D01*
X153228000Y-78596250D01*
X153228000Y-77597000D01*
X152528750Y-77597000D01*
X152370000Y-77755750D01*
X146847492Y-77755750D01*
X146799974Y-77724000D01*
X147129147Y-77504054D01*
X147451054Y-77022285D01*
X147516415Y-76693690D01*
X152370000Y-76693690D01*
X152370000Y-77184250D01*
X152528750Y-77343000D01*
X153228000Y-77343000D01*
X153228000Y-76343750D01*
X153069250Y-76185000D01*
X152878691Y-76185000D01*
X152645302Y-76281673D01*
X152466673Y-76460301D01*
X152370000Y-76693690D01*
X147516415Y-76693690D01*
X147564093Y-76454000D01*
X147451054Y-75885715D01*
X147129147Y-75403946D01*
X146799974Y-75184000D01*
X146958135Y-75078320D01*
X154971285Y-75078320D01*
X155100533Y-75371123D01*
X155800806Y-75639388D01*
X156550435Y-75619250D01*
X157149467Y-75371123D01*
X157278715Y-75078320D01*
X160221285Y-75078320D01*
X160350533Y-75371123D01*
X161050806Y-75639388D01*
X161800435Y-75619250D01*
X162399467Y-75371123D01*
X162528715Y-75078320D01*
X161375000Y-73924605D01*
X160221285Y-75078320D01*
X157278715Y-75078320D01*
X156125000Y-73924605D01*
X154971285Y-75078320D01*
X146958135Y-75078320D01*
X147129147Y-74964054D01*
X147451054Y-74482285D01*
X147564093Y-73914000D01*
X147465991Y-73420806D01*
X154230612Y-73420806D01*
X154250750Y-74170435D01*
X154498877Y-74769467D01*
X154791680Y-74898715D01*
X155945395Y-73745000D01*
X156304605Y-73745000D01*
X157458320Y-74898715D01*
X157751123Y-74769467D01*
X158019388Y-74069194D01*
X158001970Y-73420806D01*
X159480612Y-73420806D01*
X159500750Y-74170435D01*
X159748877Y-74769467D01*
X160041680Y-74898715D01*
X161195395Y-73745000D01*
X161554605Y-73745000D01*
X162708320Y-74898715D01*
X163001123Y-74769467D01*
X163269388Y-74069194D01*
X163249250Y-73319565D01*
X163001123Y-72720533D01*
X162708320Y-72591285D01*
X161554605Y-73745000D01*
X161195395Y-73745000D01*
X160041680Y-72591285D01*
X159748877Y-72720533D01*
X159480612Y-73420806D01*
X158001970Y-73420806D01*
X157999250Y-73319565D01*
X157751123Y-72720533D01*
X157458320Y-72591285D01*
X156304605Y-73745000D01*
X155945395Y-73745000D01*
X154791680Y-72591285D01*
X154498877Y-72720533D01*
X154230612Y-73420806D01*
X147465991Y-73420806D01*
X147451054Y-73345715D01*
X147129147Y-72863946D01*
X146799974Y-72644000D01*
X147129147Y-72424054D01*
X147137415Y-72411680D01*
X154971285Y-72411680D01*
X156125000Y-73565395D01*
X157278715Y-72411680D01*
X157149467Y-72118877D01*
X156449194Y-71850612D01*
X155699565Y-71870750D01*
X155100533Y-72118877D01*
X154971285Y-72411680D01*
X147137415Y-72411680D01*
X147451054Y-71942285D01*
X147550229Y-71443694D01*
X157115226Y-71443694D01*
X157363538Y-72044655D01*
X157822927Y-72504846D01*
X158423453Y-72754206D01*
X159073694Y-72754774D01*
X159674655Y-72506462D01*
X159769602Y-72411680D01*
X160221285Y-72411680D01*
X161375000Y-73565395D01*
X162528715Y-72411680D01*
X162399467Y-72118877D01*
X161699194Y-71850612D01*
X160949565Y-71870750D01*
X160350533Y-72118877D01*
X160221285Y-72411680D01*
X159769602Y-72411680D01*
X160134846Y-72047073D01*
X160384206Y-71446547D01*
X160384774Y-70796306D01*
X160136462Y-70195345D01*
X159770077Y-69828320D01*
X160221285Y-69828320D01*
X160350533Y-70121123D01*
X161050806Y-70389388D01*
X161800435Y-70369250D01*
X162399467Y-70121123D01*
X162528715Y-69828320D01*
X161375000Y-68674605D01*
X160221285Y-69828320D01*
X159770077Y-69828320D01*
X159677073Y-69735154D01*
X159076547Y-69485794D01*
X158426306Y-69485226D01*
X157825345Y-69733538D01*
X157365154Y-70192927D01*
X157115794Y-70793453D01*
X157115226Y-71443694D01*
X147550229Y-71443694D01*
X147564093Y-71374000D01*
X147451054Y-70805715D01*
X147129147Y-70323946D01*
X146799974Y-70104000D01*
X147129147Y-69884054D01*
X147166387Y-69828320D01*
X154971285Y-69828320D01*
X155100533Y-70121123D01*
X155800806Y-70389388D01*
X156550435Y-70369250D01*
X157149467Y-70121123D01*
X157278715Y-69828320D01*
X156125000Y-68674605D01*
X154971285Y-69828320D01*
X147166387Y-69828320D01*
X147451054Y-69402285D01*
X147564093Y-68834000D01*
X147451054Y-68265715D01*
X147387638Y-68170806D01*
X154230612Y-68170806D01*
X154250750Y-68920435D01*
X154498877Y-69519467D01*
X154791680Y-69648715D01*
X155945395Y-68495000D01*
X156304605Y-68495000D01*
X157458320Y-69648715D01*
X157751123Y-69519467D01*
X158019388Y-68819194D01*
X158001970Y-68170806D01*
X159480612Y-68170806D01*
X159500750Y-68920435D01*
X159748877Y-69519467D01*
X160041680Y-69648715D01*
X161195395Y-68495000D01*
X161554605Y-68495000D01*
X162708320Y-69648715D01*
X163001123Y-69519467D01*
X163269388Y-68819194D01*
X163249250Y-68069565D01*
X163001123Y-67470533D01*
X162708320Y-67341285D01*
X161554605Y-68495000D01*
X161195395Y-68495000D01*
X160041680Y-67341285D01*
X159748877Y-67470533D01*
X159480612Y-68170806D01*
X158001970Y-68170806D01*
X157999250Y-68069565D01*
X157751123Y-67470533D01*
X157458320Y-67341285D01*
X156304605Y-68495000D01*
X155945395Y-68495000D01*
X154791680Y-67341285D01*
X154498877Y-67470533D01*
X154230612Y-68170806D01*
X147387638Y-68170806D01*
X147129147Y-67783946D01*
X146799974Y-67564000D01*
X147129147Y-67344054D01*
X147251005Y-67161680D01*
X154971285Y-67161680D01*
X156125000Y-68315395D01*
X157278715Y-67161680D01*
X160221285Y-67161680D01*
X161375000Y-68315395D01*
X162528715Y-67161680D01*
X162399467Y-66868877D01*
X161699194Y-66600612D01*
X160949565Y-66620750D01*
X160350533Y-66868877D01*
X160221285Y-67161680D01*
X157278715Y-67161680D01*
X157149467Y-66868877D01*
X156449194Y-66600612D01*
X155699565Y-66620750D01*
X155100533Y-66868877D01*
X154971285Y-67161680D01*
X147251005Y-67161680D01*
X147451054Y-66862285D01*
X147564093Y-66294000D01*
X147451054Y-65725715D01*
X147129147Y-65243946D01*
X146647378Y-64922039D01*
X146079093Y-64809000D01*
X146076537Y-64809000D01*
X147591942Y-61245750D01*
X157850000Y-61245750D01*
X157850000Y-61986310D01*
X157946673Y-62219699D01*
X158125302Y-62398327D01*
X158358691Y-62495000D01*
X159099250Y-62495000D01*
X159258000Y-62336250D01*
X159258000Y-61087000D01*
X158008750Y-61087000D01*
X157850000Y-61245750D01*
X147591942Y-61245750D01*
X148149944Y-59933690D01*
X157850000Y-59933690D01*
X157850000Y-60674250D01*
X158008750Y-60833000D01*
X159258000Y-60833000D01*
X159258000Y-59583750D01*
X159512000Y-59583750D01*
X159512000Y-60833000D01*
X159532000Y-60833000D01*
X159532000Y-61087000D01*
X159512000Y-61087000D01*
X159512000Y-62336250D01*
X159670750Y-62495000D01*
X160411309Y-62495000D01*
X160644698Y-62398327D01*
X160823327Y-62219699D01*
X160879119Y-62085006D01*
X161054357Y-62260551D01*
X161618330Y-62494733D01*
X162228991Y-62495265D01*
X162793371Y-62262068D01*
X163225551Y-61830643D01*
X163459733Y-61266670D01*
X163460265Y-60656009D01*
X163406831Y-60526688D01*
X163643201Y-60624838D01*
X164015167Y-60625162D01*
X164358943Y-60483117D01*
X164622192Y-60220327D01*
X164632501Y-60195500D01*
X165926122Y-60195500D01*
X166103110Y-60316431D01*
X166355000Y-60367440D01*
X167655000Y-60367440D01*
X167890317Y-60323162D01*
X168106441Y-60184090D01*
X168251431Y-59971890D01*
X168302440Y-59720000D01*
X168302440Y-59020000D01*
X168258162Y-58784683D01*
X168119090Y-58568559D01*
X167906890Y-58423569D01*
X167893803Y-58420919D01*
X168106441Y-58284090D01*
X168251431Y-58071890D01*
X168302440Y-57820000D01*
X168302440Y-57120000D01*
X168258162Y-56884683D01*
X168119090Y-56668559D01*
X167906890Y-56523569D01*
X167830500Y-56508100D01*
X167830500Y-56185500D01*
X168689217Y-56185500D01*
X168705910Y-56211441D01*
X168918110Y-56356431D01*
X169170000Y-56407440D01*
X169920000Y-56407440D01*
X170155317Y-56363162D01*
X170371441Y-56224090D01*
X170397808Y-56185500D01*
X172479417Y-56185500D01*
X172420162Y-56328201D01*
X172419838Y-56700167D01*
X172561883Y-57043943D01*
X172824673Y-57307192D01*
X173168201Y-57449838D01*
X173540167Y-57450162D01*
X173883943Y-57308117D01*
X174147192Y-57045327D01*
X174289838Y-56701799D01*
X174290162Y-56329833D01*
X174228191Y-56179852D01*
X174290317Y-56168162D01*
X174506441Y-56029090D01*
X174626233Y-55853768D01*
X174730910Y-56016441D01*
X174943110Y-56161431D01*
X175195000Y-56212440D01*
X176255000Y-56212440D01*
X176490317Y-56168162D01*
X176706441Y-56029090D01*
X176851431Y-55816890D01*
X176886087Y-55645750D01*
X178060000Y-55645750D01*
X178060000Y-55886309D01*
X178156673Y-56119698D01*
X178335301Y-56298327D01*
X178568690Y-56395000D01*
X178784250Y-56395000D01*
X178943000Y-56236250D01*
X178943000Y-55487000D01*
X179197000Y-55487000D01*
X179197000Y-56236250D01*
X179355750Y-56395000D01*
X179571310Y-56395000D01*
X179804699Y-56298327D01*
X179983327Y-56119698D01*
X180080000Y-55886309D01*
X180080000Y-55645750D01*
X179921250Y-55487000D01*
X179197000Y-55487000D01*
X178943000Y-55487000D01*
X178218750Y-55487000D01*
X178060000Y-55645750D01*
X176886087Y-55645750D01*
X176902440Y-55565000D01*
X176902440Y-55158024D01*
X177300184Y-55233785D01*
X177419000Y-55245000D01*
X180975000Y-55245000D01*
X181205795Y-55201573D01*
X181417767Y-55065173D01*
X181559971Y-54857051D01*
X181610000Y-54610000D01*
X181610000Y-51562000D01*
X181566573Y-51331205D01*
X181430173Y-51119233D01*
X181222051Y-50977029D01*
X180975000Y-50927000D01*
X174752000Y-50927000D01*
X174521205Y-50970427D01*
X174309233Y-51106827D01*
X174167029Y-51314949D01*
X174125774Y-51518675D01*
X173885327Y-51277808D01*
X173541799Y-51135162D01*
X173169833Y-51134838D01*
X172826057Y-51276883D01*
X172562808Y-51539673D01*
X172420162Y-51883201D01*
X172419838Y-52255167D01*
X172542610Y-52552299D01*
X172398569Y-52763110D01*
X172347560Y-53015000D01*
X172347560Y-53665000D01*
X172373919Y-53805086D01*
X172360000Y-53838690D01*
X172360000Y-54004250D01*
X172518750Y-54163000D01*
X172599051Y-54163000D01*
X172743110Y-54261431D01*
X172880120Y-54289176D01*
X172759683Y-54311838D01*
X172596257Y-54417000D01*
X172518750Y-54417000D01*
X172401250Y-54534500D01*
X170493617Y-54534500D01*
X170555000Y-54386309D01*
X170555000Y-54145750D01*
X170396250Y-53987000D01*
X169672000Y-53987000D01*
X169672000Y-54007000D01*
X169418000Y-54007000D01*
X169418000Y-53987000D01*
X168693750Y-53987000D01*
X168535000Y-54145750D01*
X168535000Y-54386309D01*
X168596383Y-54534500D01*
X166255000Y-54534500D01*
X165939094Y-54597337D01*
X165871212Y-54642695D01*
X165877715Y-54610000D01*
X165795156Y-54194949D01*
X165645359Y-53970762D01*
X165809981Y-53633935D01*
X165683068Y-53467000D01*
X164592000Y-53467000D01*
X164592000Y-53487000D01*
X164338000Y-53487000D01*
X164338000Y-53467000D01*
X163246932Y-53467000D01*
X163120019Y-53633935D01*
X163284641Y-53970762D01*
X163134844Y-54194949D01*
X163052285Y-54610000D01*
X163134844Y-55025051D01*
X163369951Y-55376914D01*
X163721814Y-55612021D01*
X164136865Y-55694580D01*
X164793135Y-55694580D01*
X164800170Y-55693181D01*
X164800162Y-55693201D01*
X164799838Y-56065167D01*
X164941883Y-56408943D01*
X165204673Y-56672192D01*
X165548201Y-56814838D01*
X165794821Y-56815053D01*
X165758569Y-56868110D01*
X165707560Y-57120000D01*
X165707560Y-57820000D01*
X165751838Y-58055317D01*
X165890910Y-58271441D01*
X166103110Y-58416431D01*
X166116197Y-58419081D01*
X165921291Y-58544500D01*
X164150000Y-58544500D01*
X163834094Y-58607337D01*
X163726824Y-58679013D01*
X163566283Y-58786283D01*
X163566281Y-58786286D01*
X163564562Y-58788005D01*
X163301057Y-58896883D01*
X163037808Y-59159673D01*
X162895162Y-59503201D01*
X162894939Y-59758919D01*
X162795643Y-59659449D01*
X162231670Y-59425267D01*
X161621009Y-59424735D01*
X161056629Y-59657932D01*
X160879159Y-59835092D01*
X160823327Y-59700301D01*
X160644698Y-59521673D01*
X160411309Y-59425000D01*
X159670750Y-59425000D01*
X159512000Y-59583750D01*
X159258000Y-59583750D01*
X159099250Y-59425000D01*
X158358691Y-59425000D01*
X158125302Y-59521673D01*
X157946673Y-59700301D01*
X157850000Y-59933690D01*
X148149944Y-59933690D01*
X150230870Y-55040703D01*
X150239589Y-55000750D01*
X156730000Y-55000750D01*
X156730000Y-55816309D01*
X156826673Y-56049698D01*
X157005301Y-56228327D01*
X157238690Y-56325000D01*
X157829250Y-56325000D01*
X157988000Y-56166250D01*
X157988000Y-54842000D01*
X158242000Y-54842000D01*
X158242000Y-56166250D01*
X158400750Y-56325000D01*
X158991310Y-56325000D01*
X159224699Y-56228327D01*
X159403327Y-56049698D01*
X159500000Y-55816309D01*
X159500000Y-55000750D01*
X159341250Y-54842000D01*
X158242000Y-54842000D01*
X157988000Y-54842000D01*
X156888750Y-54842000D01*
X156730000Y-55000750D01*
X150239589Y-55000750D01*
X150240952Y-54994509D01*
X150232315Y-54944841D01*
X150205035Y-54902447D01*
X150163410Y-54874006D01*
X150114000Y-54864000D01*
X149479000Y-54864000D01*
X149435725Y-54871600D01*
X149392681Y-54897844D01*
X149363239Y-54938766D01*
X144825666Y-64995008D01*
X144824090Y-64992559D01*
X144611890Y-64847569D01*
X144360000Y-64796560D01*
X142660000Y-64796560D01*
X142424683Y-64840838D01*
X142208559Y-64979910D01*
X142063569Y-65192110D01*
X142012560Y-65444000D01*
X142012560Y-67144000D01*
X142056838Y-67379317D01*
X142195910Y-67595441D01*
X142408110Y-67740431D01*
X142475541Y-67754086D01*
X142430853Y-67783946D01*
X142108946Y-68265715D01*
X141995907Y-68834000D01*
X142108946Y-69402285D01*
X142430853Y-69884054D01*
X142760026Y-70104000D01*
X142430853Y-70323946D01*
X142108946Y-70805715D01*
X141995907Y-71374000D01*
X142108946Y-71942285D01*
X142430853Y-72424054D01*
X142760026Y-72644000D01*
X142430853Y-72863946D01*
X142108946Y-73345715D01*
X141995907Y-73914000D01*
X142108946Y-74482285D01*
X142430853Y-74964054D01*
X142760026Y-75184000D01*
X142430853Y-75403946D01*
X142108946Y-75885715D01*
X141995907Y-76454000D01*
X142108946Y-77022285D01*
X142430853Y-77504054D01*
X142771553Y-77731702D01*
X142628642Y-77798817D01*
X142238355Y-78227076D01*
X142068524Y-78637110D01*
X142189845Y-78867000D01*
X143383000Y-78867000D01*
X143383000Y-78847000D01*
X143637000Y-78847000D01*
X143637000Y-78867000D01*
X143657000Y-78867000D01*
X143657000Y-79121000D01*
X143637000Y-79121000D01*
X143637000Y-81407000D01*
X143657000Y-81407000D01*
X143657000Y-81661000D01*
X143637000Y-81661000D01*
X143637000Y-81681000D01*
X143383000Y-81681000D01*
X143383000Y-81661000D01*
X142189845Y-81661000D01*
X142068524Y-81890890D01*
X142238355Y-82300924D01*
X142628642Y-82729183D01*
X142771553Y-82796298D01*
X142430853Y-83023946D01*
X142108946Y-83505715D01*
X141995907Y-84074000D01*
X142108946Y-84642285D01*
X142430853Y-85124054D01*
X142912622Y-85445961D01*
X143480907Y-85559000D01*
X143539093Y-85559000D01*
X144107378Y-85445961D01*
X144589147Y-85124054D01*
X144780000Y-84838422D01*
X144970853Y-85124054D01*
X145452622Y-85445961D01*
X145923000Y-85539525D01*
X145923000Y-86169500D01*
X144434301Y-86169500D01*
X144434296Y-86169499D01*
X144118390Y-86232337D01*
X143850579Y-86411283D01*
X142926283Y-87335579D01*
X142747337Y-87603390D01*
X142736761Y-87656560D01*
X142660000Y-87656560D01*
X142424683Y-87700838D01*
X142208559Y-87839910D01*
X142063569Y-88052110D01*
X142012560Y-88304000D01*
X142012560Y-90004000D01*
X142056838Y-90239317D01*
X142195910Y-90455441D01*
X142408110Y-90600431D01*
X142475541Y-90614086D01*
X142430853Y-90643946D01*
X142108946Y-91125715D01*
X141995907Y-91694000D01*
X142108946Y-92262285D01*
X142430853Y-92744054D01*
X142760026Y-92964000D01*
X142430853Y-93183946D01*
X142108946Y-93665715D01*
X141995907Y-94234000D01*
X142108946Y-94802285D01*
X142430853Y-95284054D01*
X142760026Y-95504000D01*
X142430853Y-95723946D01*
X142108946Y-96205715D01*
X141995907Y-96774000D01*
X142108946Y-97342285D01*
X142430853Y-97824054D01*
X142760026Y-98044000D01*
X142430853Y-98263946D01*
X142108946Y-98745715D01*
X141995907Y-99314000D01*
X142108946Y-99882285D01*
X142430853Y-100364054D01*
X142760026Y-100584000D01*
X142430853Y-100803946D01*
X142108946Y-101285715D01*
X141995907Y-101854000D01*
X142108946Y-102422285D01*
X142430853Y-102904054D01*
X142760026Y-103124000D01*
X142430853Y-103343946D01*
X142108946Y-103825715D01*
X141995907Y-104394000D01*
X142108946Y-104962285D01*
X142430853Y-105444054D01*
X142760026Y-105664000D01*
X142430853Y-105883946D01*
X142108946Y-106365715D01*
X141995907Y-106934000D01*
X142108946Y-107502285D01*
X142430853Y-107984054D01*
X142760026Y-108204000D01*
X142430853Y-108423946D01*
X142108946Y-108905715D01*
X141995907Y-109474000D01*
X142108946Y-110042285D01*
X142430853Y-110524054D01*
X142760026Y-110744000D01*
X142430853Y-110963946D01*
X142108946Y-111445715D01*
X141995907Y-112014000D01*
X142108946Y-112582285D01*
X142430853Y-113064054D01*
X142760026Y-113284000D01*
X142430853Y-113503946D01*
X142108946Y-113985715D01*
X141995907Y-114554000D01*
X142108946Y-115122285D01*
X142430853Y-115604054D01*
X142771553Y-115831702D01*
X142628642Y-115898817D01*
X142238355Y-116327076D01*
X142068524Y-116737110D01*
X142189845Y-116967000D01*
X143383000Y-116967000D01*
X143383000Y-116947000D01*
X143637000Y-116947000D01*
X143637000Y-116967000D01*
X143657000Y-116967000D01*
X143657000Y-117221000D01*
X143637000Y-117221000D01*
X143637000Y-117241000D01*
X143383000Y-117241000D01*
X143383000Y-117221000D01*
X142189845Y-117221000D01*
X142068524Y-117450890D01*
X142238355Y-117860924D01*
X142628642Y-118289183D01*
X142771553Y-118356298D01*
X142430853Y-118583946D01*
X142108946Y-119065715D01*
X141995907Y-119634000D01*
X142108946Y-120202285D01*
X142430853Y-120684054D01*
X142760026Y-120904000D01*
X142430853Y-121123946D01*
X142108946Y-121605715D01*
X141995907Y-122174000D01*
X142108946Y-122742285D01*
X142430853Y-123224054D01*
X142760026Y-123444000D01*
X142430853Y-123663946D01*
X142108946Y-124145715D01*
X141995907Y-124714000D01*
X142108946Y-125282285D01*
X142430853Y-125764054D01*
X142912622Y-126085961D01*
X143480907Y-126199000D01*
X143539093Y-126199000D01*
X144107378Y-126085961D01*
X144589147Y-125764054D01*
X144780000Y-125478422D01*
X144970853Y-125764054D01*
X145452622Y-126085961D01*
X146020907Y-126199000D01*
X146079093Y-126199000D01*
X146647378Y-126085961D01*
X147129147Y-125764054D01*
X147451054Y-125282285D01*
X147564093Y-124714000D01*
X147451054Y-124145715D01*
X147129147Y-123663946D01*
X146799974Y-123444000D01*
X147129147Y-123224054D01*
X147451054Y-122742285D01*
X147564093Y-122174000D01*
X147551103Y-122108691D01*
X156045000Y-122108691D01*
X156045000Y-123699250D01*
X156203750Y-123858000D01*
X157353000Y-123858000D01*
X157353000Y-121758750D01*
X157607000Y-121758750D01*
X157607000Y-123858000D01*
X158756250Y-123858000D01*
X158915000Y-123699250D01*
X158915000Y-123610000D01*
X164872560Y-123610000D01*
X164872560Y-125310000D01*
X164916838Y-125545317D01*
X165055910Y-125761441D01*
X165268110Y-125906431D01*
X165520000Y-125957440D01*
X167220000Y-125957440D01*
X167455317Y-125913162D01*
X167671441Y-125774090D01*
X167816431Y-125561890D01*
X167830086Y-125494459D01*
X167859946Y-125539147D01*
X168341715Y-125861054D01*
X168910000Y-125974093D01*
X169478285Y-125861054D01*
X169960054Y-125539147D01*
X170180000Y-125209974D01*
X170399946Y-125539147D01*
X170881715Y-125861054D01*
X171450000Y-125974093D01*
X172018285Y-125861054D01*
X172500054Y-125539147D01*
X172720000Y-125209974D01*
X172939946Y-125539147D01*
X173421715Y-125861054D01*
X173990000Y-125974093D01*
X174558285Y-125861054D01*
X175040054Y-125539147D01*
X175260000Y-125209974D01*
X175479946Y-125539147D01*
X175961715Y-125861054D01*
X176530000Y-125974093D01*
X177098285Y-125861054D01*
X177580054Y-125539147D01*
X177800000Y-125209974D01*
X178019946Y-125539147D01*
X178501715Y-125861054D01*
X179070000Y-125974093D01*
X179638285Y-125861054D01*
X180120054Y-125539147D01*
X180441961Y-125057378D01*
X180555000Y-124489093D01*
X180555000Y-124430907D01*
X180441961Y-123862622D01*
X180120054Y-123380853D01*
X179638285Y-123058946D01*
X179070000Y-122945907D01*
X178501715Y-123058946D01*
X178019946Y-123380853D01*
X177800000Y-123710026D01*
X177580054Y-123380853D01*
X177098285Y-123058946D01*
X176530000Y-122945907D01*
X175961715Y-123058946D01*
X175479946Y-123380853D01*
X175260000Y-123710026D01*
X175040054Y-123380853D01*
X174558285Y-123058946D01*
X173990000Y-122945907D01*
X173421715Y-123058946D01*
X172939946Y-123380853D01*
X172720000Y-123710026D01*
X172500054Y-123380853D01*
X172018285Y-123058946D01*
X171450000Y-122945907D01*
X170881715Y-123058946D01*
X170399946Y-123380853D01*
X170180000Y-123710026D01*
X169960054Y-123380853D01*
X169478285Y-123058946D01*
X168910000Y-122945907D01*
X168341715Y-123058946D01*
X167859946Y-123380853D01*
X167832150Y-123422452D01*
X167823162Y-123374683D01*
X167684090Y-123158559D01*
X167471890Y-123013569D01*
X167220000Y-122962560D01*
X165520000Y-122962560D01*
X165284683Y-123006838D01*
X165068559Y-123145910D01*
X164923569Y-123358110D01*
X164872560Y-123610000D01*
X158915000Y-123610000D01*
X158915000Y-122108691D01*
X158818327Y-121875302D01*
X158639699Y-121696673D01*
X158406310Y-121600000D01*
X157765750Y-121600000D01*
X157607000Y-121758750D01*
X157353000Y-121758750D01*
X157194250Y-121600000D01*
X156553690Y-121600000D01*
X156320301Y-121696673D01*
X156141673Y-121875302D01*
X156045000Y-122108691D01*
X147551103Y-122108691D01*
X147451054Y-121605715D01*
X147129147Y-121123946D01*
X146799974Y-120904000D01*
X147129147Y-120684054D01*
X147451054Y-120202285D01*
X147564093Y-119634000D01*
X147451054Y-119065715D01*
X147129147Y-118583946D01*
X146799974Y-118364000D01*
X147129147Y-118144054D01*
X147451054Y-117662285D01*
X147564093Y-117094000D01*
X147451054Y-116525715D01*
X147213875Y-116170750D01*
X149845000Y-116170750D01*
X149845000Y-116361309D01*
X149941673Y-116594698D01*
X150120301Y-116773327D01*
X150353690Y-116870000D01*
X150844250Y-116870000D01*
X151003000Y-116711250D01*
X151003000Y-116012000D01*
X151257000Y-116012000D01*
X151257000Y-116711250D01*
X151415750Y-116870000D01*
X151906310Y-116870000D01*
X152139699Y-116773327D01*
X152318327Y-116594698D01*
X152415000Y-116361309D01*
X152415000Y-116170750D01*
X152256250Y-116012000D01*
X151257000Y-116012000D01*
X151003000Y-116012000D01*
X150003750Y-116012000D01*
X149845000Y-116170750D01*
X147213875Y-116170750D01*
X147129147Y-116043946D01*
X146799974Y-115824000D01*
X147129147Y-115604054D01*
X147451054Y-115122285D01*
X147564093Y-114554000D01*
X147451054Y-113985715D01*
X147129147Y-113503946D01*
X146799974Y-113284000D01*
X147129147Y-113064054D01*
X147451054Y-112582285D01*
X147564093Y-112014000D01*
X147506578Y-111724855D01*
X147661933Y-111569500D01*
X149478822Y-111569500D01*
X149449560Y-111714000D01*
X149449560Y-112314000D01*
X149493838Y-112549317D01*
X149632910Y-112765441D01*
X149845110Y-112910431D01*
X150097000Y-112961440D01*
X150371500Y-112961440D01*
X150371500Y-113007976D01*
X150244683Y-113031838D01*
X150028559Y-113170910D01*
X149883569Y-113383110D01*
X149832560Y-113635000D01*
X149832560Y-114335000D01*
X149876838Y-114570317D01*
X150015910Y-114786441D01*
X150228110Y-114931431D01*
X150261490Y-114938191D01*
X150120301Y-114996673D01*
X149941673Y-115175302D01*
X149845000Y-115408691D01*
X149845000Y-115599250D01*
X150003750Y-115758000D01*
X151003000Y-115758000D01*
X151003000Y-115738000D01*
X151257000Y-115738000D01*
X151257000Y-115758000D01*
X152256250Y-115758000D01*
X152415000Y-115599250D01*
X152415000Y-115408691D01*
X152318327Y-115175302D01*
X152139699Y-114996673D01*
X152003713Y-114940346D01*
X152015317Y-114938162D01*
X152231441Y-114799090D01*
X152376431Y-114586890D01*
X152376661Y-114585750D01*
X154425000Y-114585750D01*
X154425000Y-114801310D01*
X154521673Y-115034699D01*
X154700302Y-115213327D01*
X154933691Y-115310000D01*
X155174250Y-115310000D01*
X155333000Y-115151250D01*
X155333000Y-114427000D01*
X154583750Y-114427000D01*
X154425000Y-114585750D01*
X152376661Y-114585750D01*
X152427440Y-114335000D01*
X152427440Y-113798690D01*
X154425000Y-113798690D01*
X154425000Y-114014250D01*
X154583750Y-114173000D01*
X155333000Y-114173000D01*
X155333000Y-113448750D01*
X155174250Y-113290000D01*
X154933691Y-113290000D01*
X154700302Y-113386673D01*
X154521673Y-113565301D01*
X154425000Y-113798690D01*
X152427440Y-113798690D01*
X152427440Y-113635000D01*
X152383162Y-113399683D01*
X152244090Y-113183559D01*
X152031890Y-113038569D01*
X152022500Y-113036667D01*
X152022500Y-112961440D01*
X152297000Y-112961440D01*
X152532317Y-112917162D01*
X152748441Y-112778090D01*
X152893431Y-112565890D01*
X152944440Y-112314000D01*
X152944440Y-112294000D01*
X153511250Y-112294000D01*
X153670000Y-112135250D01*
X153670000Y-110236000D01*
X153650000Y-110236000D01*
X153650000Y-109982000D01*
X153670000Y-109982000D01*
X153670000Y-108082750D01*
X153511250Y-107924000D01*
X152926250Y-107924000D01*
X152932000Y-107918250D01*
X152932000Y-107777691D01*
X152835327Y-107544302D01*
X152656699Y-107365673D01*
X152423310Y-107269000D01*
X151482750Y-107269000D01*
X151324000Y-107427750D01*
X151324000Y-108077000D01*
X151344000Y-108077000D01*
X151344000Y-108331000D01*
X151324000Y-108331000D01*
X151324000Y-108351000D01*
X151070000Y-108351000D01*
X151070000Y-108331000D01*
X149620750Y-108331000D01*
X149462000Y-108489750D01*
X149462000Y-108630309D01*
X149469535Y-108648500D01*
X147279189Y-108648500D01*
X147129147Y-108423946D01*
X146799974Y-108204000D01*
X147129147Y-107984054D01*
X147267034Y-107777691D01*
X149462000Y-107777691D01*
X149462000Y-107918250D01*
X149620750Y-108077000D01*
X151070000Y-108077000D01*
X151070000Y-107427750D01*
X150911250Y-107269000D01*
X149970690Y-107269000D01*
X149737301Y-107365673D01*
X149558673Y-107544302D01*
X149462000Y-107777691D01*
X147267034Y-107777691D01*
X147451054Y-107502285D01*
X147564093Y-106934000D01*
X147534513Y-106785291D01*
X147869663Y-107121026D01*
X148336273Y-107314779D01*
X148841510Y-107315220D01*
X149308458Y-107122282D01*
X149369847Y-107061000D01*
X154879160Y-107061000D01*
X155109921Y-107291761D01*
X155061683Y-107300838D01*
X154845559Y-107439910D01*
X154700569Y-107652110D01*
X154649560Y-107904000D01*
X154649560Y-107924000D01*
X154082750Y-107924000D01*
X153924000Y-108082750D01*
X153924000Y-109982000D01*
X153944000Y-109982000D01*
X153944000Y-110236000D01*
X153924000Y-110236000D01*
X153924000Y-112135250D01*
X154082750Y-112294000D01*
X154649560Y-112294000D01*
X154649560Y-112314000D01*
X154693838Y-112549317D01*
X154832910Y-112765441D01*
X155045110Y-112910431D01*
X155297000Y-112961440D01*
X155974600Y-112961440D01*
X156333364Y-113320205D01*
X156324683Y-113321838D01*
X156221354Y-113388329D01*
X156219698Y-113386673D01*
X155986309Y-113290000D01*
X155745750Y-113290000D01*
X155587000Y-113448750D01*
X155587000Y-114173000D01*
X155607000Y-114173000D01*
X155607000Y-114427000D01*
X155587000Y-114427000D01*
X155587000Y-115151250D01*
X155745750Y-115310000D01*
X155986309Y-115310000D01*
X156219698Y-115213327D01*
X156221068Y-115211957D01*
X156308110Y-115271431D01*
X156464000Y-115303000D01*
X156464000Y-116228203D01*
X156444683Y-116231838D01*
X156228559Y-116370910D01*
X156083569Y-116583110D01*
X156032560Y-116835000D01*
X156032560Y-120335000D01*
X156076838Y-120570317D01*
X156215910Y-120786441D01*
X156428110Y-120931431D01*
X156680000Y-120982440D01*
X158280000Y-120982440D01*
X158515317Y-120938162D01*
X158731441Y-120799090D01*
X158876431Y-120586890D01*
X158927440Y-120335000D01*
X158927440Y-119165000D01*
X164872560Y-119165000D01*
X164872560Y-120865000D01*
X164916838Y-121100317D01*
X165055910Y-121316441D01*
X165268110Y-121461431D01*
X165520000Y-121512440D01*
X167220000Y-121512440D01*
X167455317Y-121468162D01*
X167671441Y-121329090D01*
X167816431Y-121116890D01*
X167830086Y-121049459D01*
X167859946Y-121094147D01*
X168341715Y-121416054D01*
X168910000Y-121529093D01*
X169478285Y-121416054D01*
X169960054Y-121094147D01*
X170180000Y-120764974D01*
X170399946Y-121094147D01*
X170881715Y-121416054D01*
X171450000Y-121529093D01*
X172018285Y-121416054D01*
X172500054Y-121094147D01*
X172720000Y-120764974D01*
X172939946Y-121094147D01*
X173421715Y-121416054D01*
X173990000Y-121529093D01*
X174558285Y-121416054D01*
X175040054Y-121094147D01*
X175267702Y-120753447D01*
X175334817Y-120896358D01*
X175763076Y-121286645D01*
X176173110Y-121456476D01*
X176403000Y-121335155D01*
X176403000Y-120142000D01*
X176383000Y-120142000D01*
X176383000Y-119888000D01*
X176403000Y-119888000D01*
X176403000Y-119868000D01*
X176657000Y-119868000D01*
X176657000Y-119888000D01*
X176677000Y-119888000D01*
X176677000Y-120142000D01*
X176657000Y-120142000D01*
X176657000Y-121335155D01*
X176886890Y-121456476D01*
X177296924Y-121286645D01*
X177725183Y-120896358D01*
X177792298Y-120753447D01*
X178019946Y-121094147D01*
X178501715Y-121416054D01*
X179070000Y-121529093D01*
X179638285Y-121416054D01*
X180120054Y-121094147D01*
X180441961Y-120612378D01*
X180555000Y-120044093D01*
X180555000Y-119985907D01*
X180441961Y-119417622D01*
X180120054Y-118935853D01*
X179638285Y-118613946D01*
X179070000Y-118500907D01*
X178827239Y-118549195D01*
X181521108Y-115855326D01*
X181655000Y-115882440D01*
X183155000Y-115882440D01*
X183390317Y-115838162D01*
X183606441Y-115699090D01*
X183751431Y-115486890D01*
X183802440Y-115235000D01*
X183802440Y-114635000D01*
X183775250Y-114490500D01*
X184334887Y-114490500D01*
X184598201Y-114599838D01*
X184970167Y-114600162D01*
X185313943Y-114458117D01*
X185577192Y-114195327D01*
X185719838Y-113851799D01*
X185720162Y-113479833D01*
X185578117Y-113136057D01*
X185315327Y-112872808D01*
X184971799Y-112730162D01*
X184599833Y-112729838D01*
X184334430Y-112839500D01*
X183773178Y-112839500D01*
X183802440Y-112695000D01*
X183802440Y-112095000D01*
X183758162Y-111859683D01*
X183694322Y-111760472D01*
X183751431Y-111676890D01*
X183802440Y-111425000D01*
X183802440Y-110825000D01*
X183758162Y-110589683D01*
X183694322Y-110490472D01*
X183751431Y-110406890D01*
X183802440Y-110155000D01*
X183802440Y-109555000D01*
X183758162Y-109319683D01*
X183694322Y-109220472D01*
X183751431Y-109136890D01*
X183802440Y-108885000D01*
X183802440Y-108285000D01*
X183758162Y-108049683D01*
X183694322Y-107950472D01*
X183751431Y-107866890D01*
X183802440Y-107615000D01*
X183802440Y-107015000D01*
X183758162Y-106779683D01*
X183694322Y-106680472D01*
X183751431Y-106596890D01*
X183802440Y-106345000D01*
X183802440Y-105745000D01*
X183758162Y-105509683D01*
X183619090Y-105293559D01*
X183406890Y-105148569D01*
X183155000Y-105097560D01*
X181655000Y-105097560D01*
X181419683Y-105141838D01*
X181203559Y-105280910D01*
X181058569Y-105493110D01*
X181007560Y-105745000D01*
X181007560Y-106345000D01*
X181051838Y-106580317D01*
X181115678Y-106679528D01*
X181058569Y-106763110D01*
X181007560Y-107015000D01*
X181007560Y-107615000D01*
X181051838Y-107850317D01*
X181115678Y-107949528D01*
X181058569Y-108033110D01*
X181007560Y-108285000D01*
X181007560Y-108885000D01*
X181051838Y-109120317D01*
X181115678Y-109219528D01*
X181058569Y-109303110D01*
X181007560Y-109555000D01*
X181007560Y-110155000D01*
X181051838Y-110390317D01*
X181115678Y-110489528D01*
X181058569Y-110573110D01*
X181007560Y-110825000D01*
X181007560Y-111425000D01*
X181051838Y-111660317D01*
X181115678Y-111759528D01*
X181058569Y-111843110D01*
X181007560Y-112095000D01*
X181007560Y-112695000D01*
X181051838Y-112930317D01*
X181115678Y-113029528D01*
X181058569Y-113113110D01*
X181007560Y-113365000D01*
X181007560Y-113965000D01*
X181043381Y-114155373D01*
X180958094Y-114172337D01*
X180690283Y-114351283D01*
X177757066Y-117284500D01*
X174440113Y-117284500D01*
X174176799Y-117175162D01*
X173804833Y-117174838D01*
X173461057Y-117316883D01*
X173197808Y-117579673D01*
X173055162Y-117923201D01*
X173054838Y-118295167D01*
X173196883Y-118638943D01*
X173271875Y-118714066D01*
X172939946Y-118935853D01*
X172720000Y-119265026D01*
X172500054Y-118935853D01*
X172168245Y-118714146D01*
X172242192Y-118640327D01*
X172367230Y-118339204D01*
X175644432Y-115062002D01*
X175778748Y-115062002D01*
X175620000Y-115220750D01*
X175620000Y-115361310D01*
X175716673Y-115594699D01*
X175895302Y-115773327D01*
X176128691Y-115870000D01*
X176719250Y-115870000D01*
X176878000Y-115711250D01*
X176878000Y-115062000D01*
X177132000Y-115062000D01*
X177132000Y-115711250D01*
X177290750Y-115870000D01*
X177881309Y-115870000D01*
X178114698Y-115773327D01*
X178293327Y-115594699D01*
X178390000Y-115361310D01*
X178390000Y-115220750D01*
X178231250Y-115062000D01*
X177132000Y-115062000D01*
X176878000Y-115062000D01*
X176858000Y-115062000D01*
X176858000Y-114808000D01*
X176878000Y-114808000D01*
X176878000Y-114788000D01*
X177132000Y-114788000D01*
X177132000Y-114808000D01*
X178231250Y-114808000D01*
X178390000Y-114649250D01*
X178390000Y-114508690D01*
X178300194Y-114291878D01*
X178351431Y-114216890D01*
X178402440Y-113965000D01*
X178402440Y-113365000D01*
X178358162Y-113129683D01*
X178294322Y-113030472D01*
X178351431Y-112946890D01*
X178402440Y-112695000D01*
X178402440Y-112095000D01*
X178358162Y-111859683D01*
X178294322Y-111760472D01*
X178351431Y-111676890D01*
X178402440Y-111425000D01*
X178402440Y-110825000D01*
X178358162Y-110589683D01*
X178294322Y-110490472D01*
X178351431Y-110406890D01*
X178402440Y-110155000D01*
X178402440Y-109555000D01*
X178358162Y-109319683D01*
X178294322Y-109220472D01*
X178351431Y-109136890D01*
X178402440Y-108885000D01*
X178402440Y-108285000D01*
X178358162Y-108049683D01*
X178294322Y-107950472D01*
X178351431Y-107866890D01*
X178402440Y-107615000D01*
X178402440Y-107015000D01*
X178358162Y-106779683D01*
X178294322Y-106680472D01*
X178351431Y-106596890D01*
X178402440Y-106345000D01*
X178402440Y-105745000D01*
X178358162Y-105509683D01*
X178219090Y-105293559D01*
X178006890Y-105148569D01*
X177830500Y-105112849D01*
X177830500Y-105069978D01*
X178023691Y-105150000D01*
X178264250Y-105150000D01*
X178423000Y-104991250D01*
X178423000Y-104267000D01*
X178677000Y-104267000D01*
X178677000Y-104991250D01*
X178835750Y-105150000D01*
X179076309Y-105150000D01*
X179309698Y-105053327D01*
X179488327Y-104874699D01*
X179585000Y-104641310D01*
X179585000Y-104425750D01*
X179426250Y-104267000D01*
X178677000Y-104267000D01*
X178423000Y-104267000D01*
X178403000Y-104267000D01*
X178403000Y-104013000D01*
X178423000Y-104013000D01*
X178423000Y-103288750D01*
X178677000Y-103288750D01*
X178677000Y-104013000D01*
X179426250Y-104013000D01*
X179585000Y-103854250D01*
X179585000Y-103638690D01*
X179488327Y-103405301D01*
X179309698Y-103226673D01*
X179076309Y-103130000D01*
X178835750Y-103130000D01*
X178677000Y-103288750D01*
X178423000Y-103288750D01*
X178264250Y-103130000D01*
X178069442Y-103130000D01*
X178099838Y-103056799D01*
X178100162Y-102684833D01*
X177958117Y-102341057D01*
X177695327Y-102077808D01*
X177351799Y-101935162D01*
X176979833Y-101934838D01*
X176636057Y-102076883D01*
X176372808Y-102339673D01*
X176230162Y-102683201D01*
X176229923Y-102957737D01*
X176224500Y-102985000D01*
X176224500Y-103284217D01*
X176198559Y-103300910D01*
X176053569Y-103513110D01*
X176002560Y-103765000D01*
X176002560Y-104515000D01*
X176046838Y-104750317D01*
X176179500Y-104956480D01*
X176179500Y-105111766D01*
X176019683Y-105141838D01*
X175803559Y-105280910D01*
X175658569Y-105493110D01*
X175607560Y-105745000D01*
X175607560Y-106345000D01*
X175628362Y-106455554D01*
X175446799Y-106380162D01*
X175074833Y-106379838D01*
X174731057Y-106521883D01*
X174652440Y-106600363D01*
X174652440Y-106010000D01*
X174608162Y-105774683D01*
X174469090Y-105558559D01*
X174256890Y-105413569D01*
X174223510Y-105406809D01*
X174364699Y-105348327D01*
X174543327Y-105169698D01*
X174640000Y-104936309D01*
X174640000Y-104745750D01*
X174481250Y-104587000D01*
X173482000Y-104587000D01*
X173482000Y-104607000D01*
X173228000Y-104607000D01*
X173228000Y-104587000D01*
X172228750Y-104587000D01*
X172070000Y-104745750D01*
X172070000Y-104936309D01*
X172166673Y-105169698D01*
X172345301Y-105348327D01*
X172481287Y-105404654D01*
X172469683Y-105406838D01*
X172253559Y-105545910D01*
X172108569Y-105758110D01*
X172057560Y-106010000D01*
X172057560Y-106710000D01*
X172101838Y-106945317D01*
X172240910Y-107161441D01*
X172453110Y-107306431D01*
X172529500Y-107321900D01*
X172529500Y-107641278D01*
X172592337Y-107957184D01*
X172771283Y-108224995D01*
X173278978Y-108732689D01*
X173387856Y-108996194D01*
X173650646Y-109259443D01*
X173994174Y-109402089D01*
X174257590Y-109402318D01*
X174298722Y-109410500D01*
X175636822Y-109410500D01*
X175607560Y-109555000D01*
X175607560Y-110155000D01*
X175651838Y-110390317D01*
X175715678Y-110489528D01*
X175658569Y-110573110D01*
X175607560Y-110825000D01*
X175607560Y-111425000D01*
X175634750Y-111569500D01*
X175456113Y-111569500D01*
X175192799Y-111460162D01*
X174820833Y-111459838D01*
X174477057Y-111601883D01*
X174213808Y-111864673D01*
X174071162Y-112208201D01*
X174070838Y-112580167D01*
X174212883Y-112923943D01*
X174475673Y-113187192D01*
X174819201Y-113329838D01*
X175041534Y-113330032D01*
X171148773Y-117222793D01*
X170921057Y-117316883D01*
X170657808Y-117579673D01*
X170515162Y-117923201D01*
X170514838Y-118295167D01*
X170656883Y-118638943D01*
X170731875Y-118714066D01*
X170399946Y-118935853D01*
X170180000Y-119265026D01*
X169960054Y-118935853D01*
X169478285Y-118613946D01*
X168910000Y-118500907D01*
X168341715Y-118613946D01*
X167859946Y-118935853D01*
X167832150Y-118977452D01*
X167823162Y-118929683D01*
X167684090Y-118713559D01*
X167471890Y-118568569D01*
X167220000Y-118517560D01*
X165520000Y-118517560D01*
X165284683Y-118561838D01*
X165068559Y-118700910D01*
X164923569Y-118913110D01*
X164872560Y-119165000D01*
X158927440Y-119165000D01*
X158927440Y-116835000D01*
X158883162Y-116599683D01*
X158744090Y-116383559D01*
X158531890Y-116238569D01*
X158496000Y-116231301D01*
X158496000Y-115569666D01*
X158496273Y-115569779D01*
X159001510Y-115570220D01*
X159384916Y-115411801D01*
X159384780Y-115567510D01*
X159577718Y-116034458D01*
X159934663Y-116392026D01*
X160401273Y-116585779D01*
X160906510Y-116586220D01*
X161373458Y-116393282D01*
X161731026Y-116036337D01*
X161924779Y-115569727D01*
X161925220Y-115064490D01*
X161732282Y-114597542D01*
X161671000Y-114536153D01*
X161671000Y-113140000D01*
X161656877Y-113069000D01*
X161593662Y-112751193D01*
X161373421Y-112421580D01*
X158977420Y-110025580D01*
X158647807Y-109805338D01*
X158570219Y-109789905D01*
X158259000Y-109728000D01*
X158100250Y-109728000D01*
X157973250Y-109601000D01*
X156524000Y-109601000D01*
X156524000Y-109621000D01*
X156270000Y-109621000D01*
X156270000Y-109601000D01*
X156250000Y-109601000D01*
X156250000Y-109347000D01*
X156270000Y-109347000D01*
X156270000Y-109327000D01*
X156524000Y-109327000D01*
X156524000Y-109347000D01*
X157973250Y-109347000D01*
X158132000Y-109188250D01*
X158132000Y-109047691D01*
X158042193Y-108830879D01*
X158093431Y-108755890D01*
X158144440Y-108504000D01*
X158144440Y-107904000D01*
X158100162Y-107668683D01*
X157961090Y-107452559D01*
X157748890Y-107307569D01*
X157497000Y-107256560D01*
X157413000Y-107256560D01*
X157413000Y-107142000D01*
X157335662Y-106753194D01*
X157220149Y-106580317D01*
X157115420Y-106423579D01*
X156018420Y-105326580D01*
X155688807Y-105106338D01*
X155624300Y-105093507D01*
X155300000Y-105029000D01*
X149370258Y-105029000D01*
X149310337Y-104968974D01*
X148843727Y-104775221D01*
X148338490Y-104774780D01*
X147871542Y-104967718D01*
X147513974Y-105324663D01*
X147320221Y-105791273D01*
X147319891Y-106169415D01*
X147129147Y-105883946D01*
X146799974Y-105664000D01*
X147129147Y-105444054D01*
X147451054Y-104962285D01*
X147564093Y-104394000D01*
X147482478Y-103983691D01*
X172070000Y-103983691D01*
X172070000Y-104174250D01*
X172228750Y-104333000D01*
X173228000Y-104333000D01*
X173228000Y-103633750D01*
X173482000Y-103633750D01*
X173482000Y-104333000D01*
X174481250Y-104333000D01*
X174640000Y-104174250D01*
X174640000Y-103983691D01*
X174543327Y-103750302D01*
X174364699Y-103571673D01*
X174131310Y-103475000D01*
X173640750Y-103475000D01*
X173482000Y-103633750D01*
X173228000Y-103633750D01*
X173069250Y-103475000D01*
X172578690Y-103475000D01*
X172345301Y-103571673D01*
X172166673Y-103750302D01*
X172070000Y-103983691D01*
X147482478Y-103983691D01*
X147451054Y-103825715D01*
X147129147Y-103343946D01*
X146788447Y-103116298D01*
X146931358Y-103049183D01*
X147321645Y-102620924D01*
X147491476Y-102210890D01*
X147370155Y-101981000D01*
X146177000Y-101981000D01*
X146177000Y-102001000D01*
X145923000Y-102001000D01*
X145923000Y-101981000D01*
X145903000Y-101981000D01*
X145903000Y-101727000D01*
X145923000Y-101727000D01*
X145923000Y-101707000D01*
X146177000Y-101707000D01*
X146177000Y-101727000D01*
X147370155Y-101727000D01*
X147491476Y-101497110D01*
X147321645Y-101087076D01*
X146931358Y-100658817D01*
X146788447Y-100591702D01*
X147129147Y-100364054D01*
X147451054Y-99882285D01*
X147564093Y-99314000D01*
X147451054Y-98745715D01*
X147129147Y-98263946D01*
X147048411Y-98210000D01*
X171857560Y-98210000D01*
X171857560Y-99910000D01*
X171901838Y-100145317D01*
X172040910Y-100361441D01*
X172253110Y-100506431D01*
X172505000Y-100557440D01*
X174205000Y-100557440D01*
X174440317Y-100513162D01*
X174656441Y-100374090D01*
X174801431Y-100161890D01*
X174852440Y-99910000D01*
X174852440Y-98210000D01*
X174808162Y-97974683D01*
X174669090Y-97758559D01*
X174456890Y-97613569D01*
X174348893Y-97591699D01*
X174626645Y-97286924D01*
X174796476Y-96876890D01*
X174675155Y-96647000D01*
X173482000Y-96647000D01*
X173482000Y-96667000D01*
X173228000Y-96667000D01*
X173228000Y-96647000D01*
X172034845Y-96647000D01*
X171913524Y-96876890D01*
X172083355Y-97286924D01*
X172359501Y-97589937D01*
X172269683Y-97606838D01*
X172053559Y-97745910D01*
X171908569Y-97958110D01*
X171857560Y-98210000D01*
X147048411Y-98210000D01*
X146799974Y-98044000D01*
X147129147Y-97824054D01*
X147451054Y-97342285D01*
X147564093Y-96774000D01*
X147451054Y-96205715D01*
X147422587Y-96163110D01*
X171913524Y-96163110D01*
X172034845Y-96393000D01*
X173228000Y-96393000D01*
X173228000Y-95199181D01*
X173482000Y-95199181D01*
X173482000Y-96393000D01*
X174675155Y-96393000D01*
X174796476Y-96163110D01*
X174626645Y-95753076D01*
X174236358Y-95324817D01*
X173711892Y-95078514D01*
X173482000Y-95199181D01*
X173228000Y-95199181D01*
X172998108Y-95078514D01*
X172473642Y-95324817D01*
X172083355Y-95753076D01*
X171913524Y-96163110D01*
X147422587Y-96163110D01*
X147129147Y-95723946D01*
X146799974Y-95504000D01*
X147129147Y-95284054D01*
X147451054Y-94802285D01*
X147564093Y-94234000D01*
X147451054Y-93665715D01*
X147129147Y-93183946D01*
X146799974Y-92964000D01*
X147129147Y-92744054D01*
X147451054Y-92262285D01*
X147564093Y-91694000D01*
X147451054Y-91125715D01*
X147129147Y-90643946D01*
X146799974Y-90424000D01*
X147129147Y-90204054D01*
X147451054Y-89722285D01*
X147564093Y-89154000D01*
X147451054Y-88585715D01*
X147129147Y-88103946D01*
X146704939Y-87820500D01*
X159669010Y-87820500D01*
X165047085Y-90285451D01*
X165100000Y-90297000D01*
X182880000Y-90297000D01*
X182929283Y-90287048D01*
X187737124Y-88262694D01*
X188101932Y-88229530D01*
X187958355Y-88387076D01*
X187788524Y-88797110D01*
X187909845Y-89027000D01*
X189103000Y-89027000D01*
X189103000Y-89007000D01*
X189357000Y-89007000D01*
X189357000Y-89027000D01*
X189377000Y-89027000D01*
X189377000Y-89281000D01*
X189357000Y-89281000D01*
X189357000Y-89301000D01*
X189103000Y-89301000D01*
X189103000Y-89281000D01*
X187909845Y-89281000D01*
X187788524Y-89510890D01*
X187958355Y-89920924D01*
X188348642Y-90349183D01*
X188491553Y-90416298D01*
X188150853Y-90643946D01*
X187828946Y-91125715D01*
X187715907Y-91694000D01*
X187828946Y-92262285D01*
X188150853Y-92744054D01*
X188480026Y-92964000D01*
X188150853Y-93183946D01*
X187828946Y-93665715D01*
X187715907Y-94234000D01*
X187828946Y-94802285D01*
X188150853Y-95284054D01*
X188480026Y-95504000D01*
X188150853Y-95723946D01*
X187828946Y-96205715D01*
X187715907Y-96774000D01*
X187828946Y-97342285D01*
X188150853Y-97824054D01*
X188480026Y-98044000D01*
X188150853Y-98263946D01*
X187828946Y-98745715D01*
X187715907Y-99314000D01*
X187828946Y-99882285D01*
X188150853Y-100364054D01*
X188480026Y-100584000D01*
X188150853Y-100803946D01*
X187828946Y-101285715D01*
X187715907Y-101854000D01*
X187828946Y-102422285D01*
X188150853Y-102904054D01*
X188491553Y-103131702D01*
X188348642Y-103198817D01*
X187958355Y-103627076D01*
X187788524Y-104037110D01*
X187909845Y-104267000D01*
X189103000Y-104267000D01*
X189103000Y-104247000D01*
X189357000Y-104247000D01*
X189357000Y-104267000D01*
X189377000Y-104267000D01*
X189377000Y-104521000D01*
X189357000Y-104521000D01*
X189357000Y-104541000D01*
X189103000Y-104541000D01*
X189103000Y-104521000D01*
X187909845Y-104521000D01*
X187788524Y-104750890D01*
X187958355Y-105160924D01*
X188348642Y-105589183D01*
X188491553Y-105656298D01*
X188150853Y-105883946D01*
X187828946Y-106365715D01*
X187715907Y-106934000D01*
X187828946Y-107502285D01*
X188150853Y-107984054D01*
X188480026Y-108204000D01*
X188150853Y-108423946D01*
X187828946Y-108905715D01*
X187715907Y-109474000D01*
X187828946Y-110042285D01*
X188150853Y-110524054D01*
X188480026Y-110744000D01*
X188150853Y-110963946D01*
X187828946Y-111445715D01*
X187715907Y-112014000D01*
X187828946Y-112582285D01*
X188150853Y-113064054D01*
X188480026Y-113284000D01*
X188150853Y-113503946D01*
X187828946Y-113985715D01*
X187715907Y-114554000D01*
X187828946Y-115122285D01*
X188150853Y-115604054D01*
X188491553Y-115831702D01*
X188348642Y-115898817D01*
X187958355Y-116327076D01*
X187788524Y-116737110D01*
X187909845Y-116967000D01*
X189103000Y-116967000D01*
X189103000Y-116947000D01*
X189357000Y-116947000D01*
X189357000Y-116967000D01*
X189377000Y-116967000D01*
X189377000Y-117221000D01*
X189357000Y-117221000D01*
X189357000Y-117241000D01*
X189103000Y-117241000D01*
X189103000Y-117221000D01*
X187909845Y-117221000D01*
X187788524Y-117450890D01*
X187958355Y-117860924D01*
X188348642Y-118289183D01*
X188491553Y-118356298D01*
X188150853Y-118583946D01*
X187828946Y-119065715D01*
X187715907Y-119634000D01*
X187828946Y-120202285D01*
X188150853Y-120684054D01*
X188480026Y-120904000D01*
X188150853Y-121123946D01*
X187828946Y-121605715D01*
X187715907Y-122174000D01*
X187828946Y-122742285D01*
X188150853Y-123224054D01*
X188480026Y-123444000D01*
X188150853Y-123663946D01*
X187828946Y-124145715D01*
X187715907Y-124714000D01*
X187828946Y-125282285D01*
X188150853Y-125764054D01*
X188632622Y-126085961D01*
X189200907Y-126199000D01*
X189259093Y-126199000D01*
X189827378Y-126085961D01*
X190309147Y-125764054D01*
X190500000Y-125478422D01*
X190690853Y-125764054D01*
X191172622Y-126085961D01*
X191740907Y-126199000D01*
X191799093Y-126199000D01*
X192367378Y-126085961D01*
X192849147Y-125764054D01*
X193171054Y-125282285D01*
X193284093Y-124714000D01*
X193171054Y-124145715D01*
X192849147Y-123663946D01*
X192519974Y-123444000D01*
X192849147Y-123224054D01*
X193171054Y-122742285D01*
X193284093Y-122174000D01*
X193171054Y-121605715D01*
X192849147Y-121123946D01*
X192519974Y-120904000D01*
X192849147Y-120684054D01*
X193171054Y-120202285D01*
X193284093Y-119634000D01*
X193171054Y-119065715D01*
X192849147Y-118583946D01*
X192519974Y-118364000D01*
X192849147Y-118144054D01*
X193171054Y-117662285D01*
X193284093Y-117094000D01*
X193171054Y-116525715D01*
X192849147Y-116043946D01*
X192519974Y-115824000D01*
X192849147Y-115604054D01*
X193171054Y-115122285D01*
X193284093Y-114554000D01*
X193171054Y-113985715D01*
X192849147Y-113503946D01*
X192519974Y-113284000D01*
X192849147Y-113064054D01*
X193171054Y-112582285D01*
X193284093Y-112014000D01*
X193171054Y-111445715D01*
X192849147Y-110963946D01*
X192508447Y-110736298D01*
X192651358Y-110669183D01*
X193041645Y-110240924D01*
X193211476Y-109830890D01*
X193090155Y-109601000D01*
X191897000Y-109601000D01*
X191897000Y-109621000D01*
X191643000Y-109621000D01*
X191643000Y-109601000D01*
X191623000Y-109601000D01*
X191623000Y-109347000D01*
X191643000Y-109347000D01*
X191643000Y-109327000D01*
X191897000Y-109327000D01*
X191897000Y-109347000D01*
X193090155Y-109347000D01*
X193211476Y-109117110D01*
X193041645Y-108707076D01*
X192651358Y-108278817D01*
X192508447Y-108211702D01*
X192849147Y-107984054D01*
X193171054Y-107502285D01*
X193284093Y-106934000D01*
X193171054Y-106365715D01*
X192849147Y-105883946D01*
X192519974Y-105664000D01*
X192849147Y-105444054D01*
X193171054Y-104962285D01*
X193284093Y-104394000D01*
X193171054Y-103825715D01*
X192849147Y-103343946D01*
X192519974Y-103124000D01*
X192849147Y-102904054D01*
X193171054Y-102422285D01*
X193284093Y-101854000D01*
X193171054Y-101285715D01*
X192849147Y-100803946D01*
X192519974Y-100584000D01*
X192849147Y-100364054D01*
X193171054Y-99882285D01*
X193284093Y-99314000D01*
X193171054Y-98745715D01*
X192849147Y-98263946D01*
X192519974Y-98044000D01*
X192849147Y-97824054D01*
X193171054Y-97342285D01*
X193284093Y-96774000D01*
X193171054Y-96205715D01*
X192849147Y-95723946D01*
X192519974Y-95504000D01*
X192849147Y-95284054D01*
X193171054Y-94802285D01*
X193284093Y-94234000D01*
X193171054Y-93665715D01*
X192849147Y-93183946D01*
X192519974Y-92964000D01*
X192849147Y-92744054D01*
X193171054Y-92262285D01*
X193284093Y-91694000D01*
X193171054Y-91125715D01*
X192849147Y-90643946D01*
X192519974Y-90424000D01*
X192849147Y-90204054D01*
X193171054Y-89722285D01*
X193284093Y-89154000D01*
X193171054Y-88585715D01*
X192849147Y-88103946D01*
X192519974Y-87884000D01*
X192849147Y-87664054D01*
X193171054Y-87182285D01*
X193284093Y-86614000D01*
X193171054Y-86045715D01*
X192849147Y-85563946D01*
X192519974Y-85344000D01*
X192849147Y-85124054D01*
X193171054Y-84642285D01*
X193284093Y-84074000D01*
X193171054Y-83505715D01*
X192849147Y-83023946D01*
X192449885Y-82757168D01*
X192602607Y-82726790D01*
X192870418Y-82547844D01*
X193600000Y-81818261D01*
X193600000Y-126290000D01*
X158599447Y-126290000D01*
X158639699Y-126273327D01*
X158818327Y-126094698D01*
X158915000Y-125861309D01*
X158915000Y-124270750D01*
X158756250Y-124112000D01*
X157607000Y-124112000D01*
X157607000Y-124132000D01*
X157353000Y-124132000D01*
X157353000Y-124112000D01*
X156203750Y-124112000D01*
X156045000Y-124270750D01*
X156045000Y-125861309D01*
X156141673Y-126094698D01*
X156320301Y-126273327D01*
X156360553Y-126290000D01*
X141680000Y-126290000D01*
X141680000Y-79350890D01*
X142068524Y-79350890D01*
X142238355Y-79760924D01*
X142628642Y-80189183D01*
X142787954Y-80264000D01*
X142628642Y-80338817D01*
X142238355Y-80767076D01*
X142068524Y-81177110D01*
X142189845Y-81407000D01*
X143383000Y-81407000D01*
X143383000Y-79121000D01*
X142189845Y-79121000D01*
X142068524Y-79350890D01*
X141680000Y-79350890D01*
X141680000Y-53313366D01*
X141741155Y-53461372D01*
X142369321Y-54090636D01*
X143190481Y-54431611D01*
X144079619Y-54432387D01*
X144901372Y-54092845D01*
X145530636Y-53464679D01*
X145871611Y-52643519D01*
X145871800Y-52426892D01*
X150323514Y-52426892D01*
X150569817Y-52951358D01*
X150998076Y-53341645D01*
X151408110Y-53511476D01*
X151638000Y-53390155D01*
X151638000Y-52197000D01*
X150444181Y-52197000D01*
X150323514Y-52426892D01*
X145871800Y-52426892D01*
X145872387Y-51754381D01*
X145855334Y-51713108D01*
X150323514Y-51713108D01*
X150444181Y-51943000D01*
X151638000Y-51943000D01*
X151638000Y-50749845D01*
X151408110Y-50628524D01*
X150998076Y-50798355D01*
X150569817Y-51188642D01*
X150323514Y-51713108D01*
X145855334Y-51713108D01*
X145532845Y-50932628D01*
X144904679Y-50303364D01*
X144083519Y-49962389D01*
X143194381Y-49961613D01*
X142372628Y-50301155D01*
X141743364Y-50929321D01*
X141680000Y-51081919D01*
X141680000Y-49605000D01*
X155067396Y-49605000D01*
X154940221Y-49911273D01*
G36*
X193600000Y-70512566D02*
X193226579Y-70139145D01*
X193284093Y-69850000D01*
X193171054Y-69281715D01*
X192849147Y-68799946D01*
X192519974Y-68580000D01*
X192849147Y-68360054D01*
X193171054Y-67878285D01*
X193284093Y-67310000D01*
X193171054Y-66741715D01*
X192849147Y-66259946D01*
X192508447Y-66032298D01*
X192651358Y-65965183D01*
X193041645Y-65536924D01*
X193211476Y-65126890D01*
X193090155Y-64897000D01*
X191897000Y-64897000D01*
X191897000Y-64917000D01*
X191643000Y-64917000D01*
X191643000Y-64897000D01*
X191623000Y-64897000D01*
X191623000Y-64643000D01*
X191643000Y-64643000D01*
X191643000Y-64623000D01*
X191897000Y-64623000D01*
X191897000Y-64643000D01*
X193090155Y-64643000D01*
X193211476Y-64413110D01*
X193041645Y-64003076D01*
X192651358Y-63574817D01*
X192508447Y-63507702D01*
X192849147Y-63280054D01*
X193171054Y-62798285D01*
X193284093Y-62230000D01*
X193171054Y-61661715D01*
X192849147Y-61179946D01*
X192519974Y-60960000D01*
X192849147Y-60740054D01*
X193171054Y-60258285D01*
X193284093Y-59690000D01*
X193171054Y-59121715D01*
X192849147Y-58639946D01*
X192519974Y-58420000D01*
X192849147Y-58200054D01*
X193171054Y-57718285D01*
X193284093Y-57150000D01*
X193171054Y-56581715D01*
X192849147Y-56099946D01*
X192367378Y-55778039D01*
X192346798Y-55773945D01*
X193034372Y-55489845D01*
X193600000Y-54925204D01*
X193600000Y-70512566D01*
X193600000Y-70512566D01*
G37*
X193600000Y-70512566D02*
X193226579Y-70139145D01*
X193284093Y-69850000D01*
X193171054Y-69281715D01*
X192849147Y-68799946D01*
X192519974Y-68580000D01*
X192849147Y-68360054D01*
X193171054Y-67878285D01*
X193284093Y-67310000D01*
X193171054Y-66741715D01*
X192849147Y-66259946D01*
X192508447Y-66032298D01*
X192651358Y-65965183D01*
X193041645Y-65536924D01*
X193211476Y-65126890D01*
X193090155Y-64897000D01*
X191897000Y-64897000D01*
X191897000Y-64917000D01*
X191643000Y-64917000D01*
X191643000Y-64897000D01*
X191623000Y-64897000D01*
X191623000Y-64643000D01*
X191643000Y-64643000D01*
X191643000Y-64623000D01*
X191897000Y-64623000D01*
X191897000Y-64643000D01*
X193090155Y-64643000D01*
X193211476Y-64413110D01*
X193041645Y-64003076D01*
X192651358Y-63574817D01*
X192508447Y-63507702D01*
X192849147Y-63280054D01*
X193171054Y-62798285D01*
X193284093Y-62230000D01*
X193171054Y-61661715D01*
X192849147Y-61179946D01*
X192519974Y-60960000D01*
X192849147Y-60740054D01*
X193171054Y-60258285D01*
X193284093Y-59690000D01*
X193171054Y-59121715D01*
X192849147Y-58639946D01*
X192519974Y-58420000D01*
X192849147Y-58200054D01*
X193171054Y-57718285D01*
X193284093Y-57150000D01*
X193171054Y-56581715D01*
X192849147Y-56099946D01*
X192367378Y-55778039D01*
X192346798Y-55773945D01*
X193034372Y-55489845D01*
X193600000Y-54925204D01*
X193600000Y-70512566D01*
G36*
X180848000Y-54483000D02*
X180039949Y-54483000D01*
X180080000Y-54386309D01*
X180080000Y-54145750D01*
X179921250Y-53987000D01*
X179197000Y-53987000D01*
X179197000Y-54007000D01*
X178943000Y-54007000D01*
X178943000Y-53987000D01*
X178218750Y-53987000D01*
X178060000Y-54145750D01*
X178060000Y-54386309D01*
X178100051Y-54483000D01*
X177430987Y-54483000D01*
X176409321Y-54288397D01*
X176614698Y-54203327D01*
X176793327Y-54024699D01*
X176890000Y-53791310D01*
X176890000Y-53625750D01*
X176731250Y-53467000D01*
X175852000Y-53467000D01*
X175852000Y-53487000D01*
X175598000Y-53487000D01*
X175598000Y-53467000D01*
X175578000Y-53467000D01*
X175578000Y-53333691D01*
X178060000Y-53333691D01*
X178060000Y-53574250D01*
X178218750Y-53733000D01*
X178943000Y-53733000D01*
X178943000Y-52983750D01*
X179197000Y-52983750D01*
X179197000Y-53733000D01*
X179921250Y-53733000D01*
X180080000Y-53574250D01*
X180080000Y-53333691D01*
X179983327Y-53100302D01*
X179804699Y-52921673D01*
X179571310Y-52825000D01*
X179355750Y-52825000D01*
X179197000Y-52983750D01*
X178943000Y-52983750D01*
X178784250Y-52825000D01*
X178568690Y-52825000D01*
X178335301Y-52921673D01*
X178156673Y-53100302D01*
X178060000Y-53333691D01*
X175578000Y-53333691D01*
X175578000Y-53213000D01*
X175598000Y-53213000D01*
X175598000Y-52538750D01*
X175852000Y-52538750D01*
X175852000Y-53213000D01*
X176731250Y-53213000D01*
X176890000Y-53054250D01*
X176890000Y-52888690D01*
X176793327Y-52655301D01*
X176614698Y-52476673D01*
X176381309Y-52380000D01*
X176010750Y-52380000D01*
X175852000Y-52538750D01*
X175598000Y-52538750D01*
X175439250Y-52380000D01*
X175068691Y-52380000D01*
X174879000Y-52458573D01*
X174879000Y-51689000D01*
X180848000Y-51689000D01*
X180848000Y-54483000D01*
X180848000Y-54483000D01*
G37*
X180848000Y-54483000D02*
X180039949Y-54483000D01*
X180080000Y-54386309D01*
X180080000Y-54145750D01*
X179921250Y-53987000D01*
X179197000Y-53987000D01*
X179197000Y-54007000D01*
X178943000Y-54007000D01*
X178943000Y-53987000D01*
X178218750Y-53987000D01*
X178060000Y-54145750D01*
X178060000Y-54386309D01*
X178100051Y-54483000D01*
X177430987Y-54483000D01*
X176409321Y-54288397D01*
X176614698Y-54203327D01*
X176793327Y-54024699D01*
X176890000Y-53791310D01*
X176890000Y-53625750D01*
X176731250Y-53467000D01*
X175852000Y-53467000D01*
X175852000Y-53487000D01*
X175598000Y-53487000D01*
X175598000Y-53467000D01*
X175578000Y-53467000D01*
X175578000Y-53333691D01*
X178060000Y-53333691D01*
X178060000Y-53574250D01*
X178218750Y-53733000D01*
X178943000Y-53733000D01*
X178943000Y-52983750D01*
X179197000Y-52983750D01*
X179197000Y-53733000D01*
X179921250Y-53733000D01*
X180080000Y-53574250D01*
X180080000Y-53333691D01*
X179983327Y-53100302D01*
X179804699Y-52921673D01*
X179571310Y-52825000D01*
X179355750Y-52825000D01*
X179197000Y-52983750D01*
X178943000Y-52983750D01*
X178784250Y-52825000D01*
X178568690Y-52825000D01*
X178335301Y-52921673D01*
X178156673Y-53100302D01*
X178060000Y-53333691D01*
X175578000Y-53333691D01*
X175578000Y-53213000D01*
X175598000Y-53213000D01*
X175598000Y-52538750D01*
X175852000Y-52538750D01*
X175852000Y-53213000D01*
X176731250Y-53213000D01*
X176890000Y-53054250D01*
X176890000Y-52888690D01*
X176793327Y-52655301D01*
X176614698Y-52476673D01*
X176381309Y-52380000D01*
X176010750Y-52380000D01*
X175852000Y-52538750D01*
X175598000Y-52538750D01*
X175439250Y-52380000D01*
X175068691Y-52380000D01*
X174879000Y-52458573D01*
X174879000Y-51689000D01*
X180848000Y-51689000D01*
X180848000Y-54483000D01*
M02*
