G04 #@! TF.FileFunction,Paste,Top*
%FSLAX46Y46*%
G04 Gerber Fmt 4.6, Leading zero omitted, Abs format (unit mm)*
G04 Created by KiCad (PCBNEW 4.0.6) date Wednesday, July 12, 2017 'AMt' 09:05:55 AM*
%MOMM*%
%LPD*%
G01*
G04 APERTURE LIST*
%ADD10C,0.100000*%
%ADD11R,0.242000X0.292000*%
%ADD12R,0.292000X0.242000*%
%ADD13R,1.092000X2.992000*%
%ADD14R,0.392000X0.692000*%
%ADD15R,0.192000X0.792000*%
%ADD16R,0.792000X0.192000*%
%ADD17R,0.992000X0.092000*%
%ADD18R,1.042000X0.092000*%
%ADD19R,0.552000X0.142000*%
%ADD20R,0.992000X1.442000*%
%ADD21R,1.692000X0.092000*%
%ADD22R,1.892000X2.592000*%
G04 APERTURE END LIST*
D10*
D11*
X160655000Y-52590000D03*
X160655000Y-54090000D03*
X169545000Y-55360000D03*
X169545000Y-53860000D03*
X179070000Y-53860000D03*
X179070000Y-55360000D03*
D12*
X156960000Y-114300000D03*
X155460000Y-114300000D03*
D13*
X157480000Y-118585000D03*
X157480000Y-123985000D03*
D14*
X159514000Y-79883000D03*
X162814000Y-79883000D03*
D15*
X160970000Y-77470000D03*
X159070000Y-77470000D03*
D16*
X167005000Y-57470000D03*
X167005000Y-59370000D03*
X151130000Y-113985000D03*
X151130000Y-115885000D03*
D17*
X177005000Y-106045000D03*
X177005000Y-107315000D03*
X177005000Y-108585000D03*
X177005000Y-109855000D03*
X177005000Y-111125000D03*
X177005000Y-112395000D03*
X177005000Y-113665000D03*
X177005000Y-114935000D03*
X182405000Y-114935000D03*
X182405000Y-113665000D03*
X182405000Y-112395000D03*
X182405000Y-111125000D03*
X182405000Y-109855000D03*
X182405000Y-108585000D03*
X182405000Y-107315000D03*
X182405000Y-106045000D03*
D18*
X173355000Y-81915000D03*
X173355000Y-80645000D03*
X173355000Y-79375000D03*
X173355000Y-78105000D03*
X167955000Y-78105000D03*
X167955000Y-79375000D03*
X167955000Y-80645000D03*
X167955000Y-81915000D03*
D19*
X173525000Y-53340000D03*
X173525000Y-54290000D03*
X173525000Y-55240000D03*
X175725000Y-55240000D03*
X175725000Y-53340000D03*
D12*
X177050000Y-104140000D03*
X178550000Y-104140000D03*
X170700000Y-76200000D03*
X172200000Y-76200000D03*
D20*
X158115000Y-51965000D03*
X158115000Y-54715000D03*
D16*
X173355000Y-106360000D03*
X173355000Y-104460000D03*
D15*
X153355000Y-80010000D03*
X155255000Y-80010000D03*
X153355000Y-77470000D03*
X155255000Y-77470000D03*
D21*
X156397000Y-108204000D03*
X151197000Y-108204000D03*
X156397000Y-109474000D03*
X151197000Y-109474000D03*
X156397000Y-110744000D03*
X151197000Y-110744000D03*
X156397000Y-112014000D03*
X151197000Y-112014000D03*
D22*
X153797000Y-110109000D03*
M02*
