G04 #@! TF.FileFunction,Copper,L2,Bot,Signal*
%FSLAX46Y46*%
G04 Gerber Fmt 4.6, Leading zero omitted, Abs format (unit mm)*
G04 Created by KiCad (PCBNEW 4.0.6) date Tuesday, July 11, 2017 'PMt' 12:51:39 PM*
%MOMM*%
%LPD*%
G01*
G04 APERTURE LIST*
%ADD10C,0.100000*%
%ADD11R,1.800000X1.800000*%
%ADD12C,1.800000*%
%ADD13R,1.700000X1.700000*%
%ADD14O,1.700000X1.700000*%
%ADD15C,1.998980*%
%ADD16C,2.500000*%
%ADD17O,1.501140X0.899160*%
%ADD18C,1.270000*%
%ADD19C,0.600000*%
%ADD20C,0.762000*%
%ADD21C,0.381000*%
%ADD22C,0.254000*%
G04 APERTURE END LIST*
D10*
D11*
X159385000Y-60960000D03*
D12*
X161925000Y-60960000D03*
D13*
X166370000Y-120015000D03*
D14*
X168910000Y-120015000D03*
X171450000Y-120015000D03*
X173990000Y-120015000D03*
X176530000Y-120015000D03*
X179070000Y-120015000D03*
D13*
X166370000Y-124460000D03*
D14*
X168910000Y-124460000D03*
X171450000Y-124460000D03*
X173990000Y-124460000D03*
X176530000Y-124460000D03*
X179070000Y-124460000D03*
D13*
X154305000Y-52070000D03*
D14*
X151765000Y-52070000D03*
D13*
X177800000Y-83185000D03*
D14*
X177800000Y-85725000D03*
D15*
X158750000Y-71120000D03*
D16*
X161375000Y-68495000D03*
X156125000Y-68495000D03*
X161375000Y-73745000D03*
X156125000Y-73745000D03*
D13*
X157480000Y-83820000D03*
D14*
X160020000Y-83820000D03*
D13*
X189230000Y-57150000D03*
D14*
X191770000Y-57150000D03*
X189230000Y-59690000D03*
X191770000Y-59690000D03*
X189230000Y-62230000D03*
X191770000Y-62230000D03*
X189230000Y-64770000D03*
X191770000Y-64770000D03*
X189230000Y-67310000D03*
X191770000Y-67310000D03*
X189230000Y-69850000D03*
X191770000Y-69850000D03*
X189230000Y-72390000D03*
X191770000Y-72390000D03*
X189230000Y-74930000D03*
X191770000Y-74930000D03*
X189230000Y-77470000D03*
X191770000Y-77470000D03*
X189230000Y-80010000D03*
X191770000Y-80010000D03*
D13*
X143510000Y-66294000D03*
D14*
X146050000Y-66294000D03*
X143510000Y-68834000D03*
X146050000Y-68834000D03*
X143510000Y-71374000D03*
X146050000Y-71374000D03*
X143510000Y-73914000D03*
X146050000Y-73914000D03*
X143510000Y-76454000D03*
X146050000Y-76454000D03*
X143510000Y-78994000D03*
X146050000Y-78994000D03*
X143510000Y-81534000D03*
X146050000Y-81534000D03*
X143510000Y-84074000D03*
X146050000Y-84074000D03*
D13*
X143510000Y-89154000D03*
D14*
X146050000Y-89154000D03*
X143510000Y-91694000D03*
X146050000Y-91694000D03*
X143510000Y-94234000D03*
X146050000Y-94234000D03*
X143510000Y-96774000D03*
X146050000Y-96774000D03*
X143510000Y-99314000D03*
X146050000Y-99314000D03*
X143510000Y-101854000D03*
X146050000Y-101854000D03*
X143510000Y-104394000D03*
X146050000Y-104394000D03*
X143510000Y-106934000D03*
X146050000Y-106934000D03*
X143510000Y-109474000D03*
X146050000Y-109474000D03*
X143510000Y-112014000D03*
X146050000Y-112014000D03*
X143510000Y-114554000D03*
X146050000Y-114554000D03*
X143510000Y-117094000D03*
X146050000Y-117094000D03*
X143510000Y-119634000D03*
X146050000Y-119634000D03*
X143510000Y-122174000D03*
X146050000Y-122174000D03*
X143510000Y-124714000D03*
X146050000Y-124714000D03*
D13*
X189230000Y-84074000D03*
D14*
X191770000Y-84074000D03*
X189230000Y-86614000D03*
X191770000Y-86614000D03*
X189230000Y-89154000D03*
X191770000Y-89154000D03*
X189230000Y-91694000D03*
X191770000Y-91694000D03*
X189230000Y-94234000D03*
X191770000Y-94234000D03*
X189230000Y-96774000D03*
X191770000Y-96774000D03*
X189230000Y-99314000D03*
X191770000Y-99314000D03*
X189230000Y-101854000D03*
X191770000Y-101854000D03*
X189230000Y-104394000D03*
X191770000Y-104394000D03*
X189230000Y-106934000D03*
X191770000Y-106934000D03*
X189230000Y-109474000D03*
X191770000Y-109474000D03*
X189230000Y-112014000D03*
X191770000Y-112014000D03*
X189230000Y-114554000D03*
X191770000Y-114554000D03*
X189230000Y-117094000D03*
X191770000Y-117094000D03*
X189230000Y-119634000D03*
X191770000Y-119634000D03*
X189230000Y-122174000D03*
X191770000Y-122174000D03*
X189230000Y-124714000D03*
X191770000Y-124714000D03*
D17*
X164465000Y-53340000D03*
X164465000Y-54610000D03*
X164465000Y-52070000D03*
D13*
X173355000Y-99060000D03*
D14*
X173355000Y-96520000D03*
D18*
X156210000Y-50165000D03*
X158750000Y-114300000D03*
D19*
X162560000Y-52070000D03*
X152146000Y-50292000D03*
X150622000Y-50292000D03*
X149225000Y-50292000D03*
X149225000Y-51689000D03*
X149225000Y-52959000D03*
X151257000Y-54102000D03*
X152400000Y-53975000D03*
X193294000Y-82931000D03*
X193294000Y-68707000D03*
X176530000Y-122174000D03*
X148590000Y-89535000D03*
X175260000Y-85725000D03*
X175260000Y-97155000D03*
X161290000Y-66675000D03*
X162560000Y-66675000D03*
X163195000Y-67310000D03*
X163195000Y-68580000D03*
X163195000Y-69850000D03*
X163195000Y-71120000D03*
X163195000Y-72390000D03*
X163195000Y-73660000D03*
X163195000Y-74930000D03*
X162560000Y-75565000D03*
X161290000Y-75565000D03*
X160020000Y-75565000D03*
X157480000Y-75565000D03*
X156210000Y-75565000D03*
X154940000Y-75565000D03*
X154305000Y-74930000D03*
X154305000Y-73660000D03*
X154305000Y-72390000D03*
X154305000Y-71120000D03*
X154305000Y-69850000D03*
X154305000Y-68580000D03*
X154305000Y-67310000D03*
X154940000Y-66675000D03*
X156210000Y-66675000D03*
X160020000Y-66675000D03*
X158750000Y-66675000D03*
X157480000Y-66675000D03*
X157480000Y-60960000D03*
X171450000Y-56515000D03*
X171450000Y-53975000D03*
X167640000Y-53340000D03*
X165735000Y-55880000D03*
X173355000Y-56515000D03*
X173355000Y-52070000D03*
X180467000Y-53848000D03*
X180467000Y-52705000D03*
X179451000Y-52070000D03*
X178181000Y-52070000D03*
X178181000Y-52070000D03*
X177038000Y-52070000D03*
X175641000Y-52070000D03*
X177165000Y-102870000D03*
X168910000Y-76200000D03*
X156112327Y-81705199D03*
X163830000Y-59690000D03*
D18*
X153035000Y-114300000D03*
X148590000Y-106045000D03*
D19*
X175895000Y-83185000D03*
X157480000Y-76835000D03*
X175006000Y-112395000D03*
X153162000Y-85852000D03*
X187365375Y-81964127D03*
X184785000Y-113665000D03*
X175260000Y-107315000D03*
X174180973Y-108467251D03*
X186944000Y-59690000D03*
X171450000Y-118110000D03*
X173990000Y-118110000D03*
D20*
X158115001Y-113665001D02*
X158750000Y-114300000D01*
X149957685Y-105507685D02*
X158115001Y-113665001D01*
X154305000Y-54610000D02*
X149957685Y-58957315D01*
X154305000Y-52070000D02*
X154305000Y-54610000D01*
X149957685Y-58957315D02*
X149957685Y-105507685D01*
X154305000Y-52070000D02*
X156210000Y-50165000D01*
X162560000Y-52070000D02*
X164465000Y-52070000D01*
D21*
X151765000Y-52070000D02*
X151765000Y-50673000D01*
X151765000Y-50673000D02*
X152146000Y-50292000D01*
X151765000Y-52070000D02*
X151765000Y-51435000D01*
X151765000Y-51435000D02*
X150622000Y-50292000D01*
X151765000Y-52070000D02*
X151003000Y-52070000D01*
X151003000Y-52070000D02*
X149225000Y-50292000D01*
X151765000Y-52070000D02*
X149606000Y-52070000D01*
X149606000Y-52070000D02*
X149225000Y-51689000D01*
X151765000Y-52070000D02*
X150114000Y-52070000D01*
X150114000Y-52070000D02*
X149225000Y-52959000D01*
X151765000Y-52070000D02*
X151765000Y-53594000D01*
X151765000Y-53594000D02*
X151257000Y-54102000D01*
X151765000Y-52070000D02*
X151765000Y-53340000D01*
X151765000Y-53340000D02*
X152400000Y-53975000D01*
X193375589Y-81026000D02*
X193160125Y-81026000D01*
D20*
X193160125Y-81026000D02*
X192271125Y-81915000D01*
X192271125Y-81915000D02*
X188468000Y-81915000D01*
D21*
X193375589Y-81026000D02*
X193375589Y-82849411D01*
X193375589Y-68788589D02*
X193375589Y-81026000D01*
X193294000Y-68707000D02*
X193375589Y-68788589D01*
X193375589Y-82849411D02*
X193294000Y-82931000D01*
X176530000Y-120015000D02*
X176530000Y-122174000D01*
D20*
X148590000Y-55245000D02*
X148590000Y-89535000D01*
X151765000Y-52070000D02*
X148590000Y-55245000D01*
D21*
X177800000Y-85725000D02*
X175260000Y-85725000D01*
X173355000Y-96520000D02*
X174625000Y-96520000D01*
X174625000Y-96520000D02*
X175260000Y-97155000D01*
X162560000Y-66675000D02*
X161290000Y-66675000D01*
X163195000Y-68580000D02*
X163195000Y-67310000D01*
X163195000Y-71120000D02*
X163195000Y-69850000D01*
X163195000Y-73660000D02*
X163195000Y-72390000D01*
X162560000Y-75565000D02*
X163195000Y-74930000D01*
X160020000Y-75565000D02*
X161290000Y-75565000D01*
X154940000Y-75565000D02*
X156210000Y-75565000D01*
X154305000Y-72390000D02*
X154305000Y-73660000D01*
X154305000Y-68580000D02*
X154305000Y-69850000D01*
X154940000Y-66675000D02*
X154305000Y-67310000D01*
X156125000Y-68495000D02*
X156125000Y-66760000D01*
X156125000Y-66760000D02*
X156210000Y-66675000D01*
X158750000Y-66675000D02*
X160020000Y-66675000D01*
X156125000Y-68495000D02*
X156125000Y-68030000D01*
X156125000Y-68030000D02*
X157480000Y-66675000D01*
X159385000Y-60960000D02*
X157480000Y-60960000D01*
X171450000Y-53975000D02*
X171450000Y-56515000D01*
D20*
X164465000Y-53340000D02*
X167640000Y-53340000D01*
D21*
X168910000Y-120015000D02*
X168910000Y-118738261D01*
X165796387Y-118171387D02*
X151717963Y-104092963D01*
X168910000Y-118738261D02*
X168343126Y-118171387D01*
X168343126Y-118171387D02*
X165796387Y-118171387D01*
X151717963Y-104092963D02*
X151717963Y-59102037D01*
X151717963Y-59102037D02*
X156210000Y-54610000D01*
X156210000Y-54610000D02*
X164465000Y-54610000D01*
X164465000Y-54610000D02*
X165735000Y-55880000D01*
X173355000Y-52070000D02*
X173355000Y-56515000D01*
X157480000Y-82589000D02*
X156596199Y-81705199D01*
X157480000Y-83820000D02*
X157480000Y-82589000D01*
X156596199Y-81705199D02*
X156112327Y-81705199D01*
X163830000Y-59690000D02*
X163195000Y-59690000D01*
X163195000Y-59690000D02*
X161925000Y-60960000D01*
D20*
X163195000Y-124460000D02*
X166370000Y-124460000D01*
X153035000Y-114300000D02*
X163195000Y-124460000D01*
X148590000Y-106045000D02*
X148590000Y-116205000D01*
X148590000Y-116205000D02*
X158765510Y-126380510D01*
X177149490Y-126380510D02*
X178220001Y-125309999D01*
X158765510Y-126380510D02*
X177149490Y-126380510D01*
X178220001Y-125309999D02*
X179070000Y-124460000D01*
D21*
X175895000Y-83185000D02*
X177800000Y-83185000D01*
X158750000Y-71120000D02*
X158750000Y-75565000D01*
X158750000Y-75565000D02*
X157480000Y-76835000D01*
X153162000Y-85852000D02*
X153162000Y-101428601D01*
X153162000Y-101428601D02*
X164128399Y-112395000D01*
X164128399Y-112395000D02*
X175006000Y-112395000D01*
X184785000Y-113665000D02*
X186656184Y-111793816D01*
X186656184Y-111793816D02*
X186656184Y-82673318D01*
X186656184Y-82673318D02*
X187065376Y-82264126D01*
X187065376Y-82264126D02*
X187365375Y-81964127D01*
X175260000Y-107315000D02*
X175260000Y-99734000D01*
X175260000Y-99734000D02*
X174586000Y-99060000D01*
X174586000Y-99060000D02*
X173355000Y-99060000D01*
X174605237Y-108467251D02*
X174180973Y-108467251D01*
X179060749Y-108467251D02*
X174605237Y-108467251D01*
X184022990Y-103505010D02*
X179060749Y-108467251D01*
X184022990Y-62611010D02*
X184022990Y-103505010D01*
X186944000Y-59690000D02*
X184022990Y-62611010D01*
X171450000Y-118110000D02*
X171450000Y-120015000D01*
X173990000Y-118110000D02*
X173990000Y-120015000D01*
D22*
G36*
X193600000Y-52263668D02*
X193037679Y-51700364D01*
X192216519Y-51359389D01*
X191327381Y-51358613D01*
X190505628Y-51698155D01*
X189876364Y-52326321D01*
X189535389Y-53147481D01*
X189534613Y-54036619D01*
X189874155Y-54858372D01*
X190502321Y-55487636D01*
X191192275Y-55774130D01*
X191172622Y-55778039D01*
X190690853Y-56099946D01*
X190690029Y-56101179D01*
X190683162Y-56064683D01*
X190544090Y-55848559D01*
X190331890Y-55703569D01*
X190080000Y-55652560D01*
X188380000Y-55652560D01*
X188144683Y-55696838D01*
X187928559Y-55835910D01*
X187783569Y-56048110D01*
X187732560Y-56300000D01*
X187732560Y-58000000D01*
X187776838Y-58235317D01*
X187915910Y-58451441D01*
X188128110Y-58596431D01*
X188195541Y-58610086D01*
X188150853Y-58639946D01*
X187828946Y-59121715D01*
X187793822Y-59298294D01*
X187737117Y-59161057D01*
X187474327Y-58897808D01*
X187130799Y-58755162D01*
X186758833Y-58754838D01*
X186415057Y-58896883D01*
X186151808Y-59159673D01*
X186041682Y-59424884D01*
X183439273Y-62027293D01*
X183260327Y-62295104D01*
X183228237Y-62456431D01*
X183197490Y-62611010D01*
X183197490Y-103163077D01*
X178718815Y-107641751D01*
X176136725Y-107641751D01*
X176194838Y-107501799D01*
X176195162Y-107129833D01*
X176085500Y-106864430D01*
X176085500Y-99734005D01*
X176085501Y-99734000D01*
X176022663Y-99418094D01*
X175843717Y-99150283D01*
X175169717Y-98476283D01*
X174901906Y-98297337D01*
X174852440Y-98287498D01*
X174852440Y-98210000D01*
X174809203Y-97980216D01*
X175073201Y-98089838D01*
X175445167Y-98090162D01*
X175788943Y-97948117D01*
X176052192Y-97685327D01*
X176194838Y-97341799D01*
X176195162Y-96969833D01*
X176053117Y-96626057D01*
X175790327Y-96362808D01*
X175525116Y-96252682D01*
X175208717Y-95936283D01*
X174940906Y-95757337D01*
X174625000Y-95694500D01*
X174584189Y-95694500D01*
X174434147Y-95469946D01*
X173952378Y-95148039D01*
X173384093Y-95035000D01*
X173325907Y-95035000D01*
X172757622Y-95148039D01*
X172275853Y-95469946D01*
X171953946Y-95951715D01*
X171840907Y-96520000D01*
X171953946Y-97088285D01*
X172275853Y-97570054D01*
X172317452Y-97597850D01*
X172269683Y-97606838D01*
X172053559Y-97745910D01*
X171908569Y-97958110D01*
X171857560Y-98210000D01*
X171857560Y-99910000D01*
X171901838Y-100145317D01*
X172040910Y-100361441D01*
X172253110Y-100506431D01*
X172505000Y-100557440D01*
X174205000Y-100557440D01*
X174434500Y-100514257D01*
X174434500Y-106864887D01*
X174325162Y-107128201D01*
X174324838Y-107500167D01*
X174338151Y-107532387D01*
X173995806Y-107532089D01*
X173652030Y-107674134D01*
X173388781Y-107936924D01*
X173246135Y-108280452D01*
X173245811Y-108652418D01*
X173387856Y-108996194D01*
X173650646Y-109259443D01*
X173994174Y-109402089D01*
X174366140Y-109402413D01*
X174631543Y-109292751D01*
X179060749Y-109292751D01*
X179376655Y-109229914D01*
X179644466Y-109050968D01*
X184606704Y-104088729D01*
X184606707Y-104088727D01*
X184785653Y-103820915D01*
X184794377Y-103777057D01*
X184848491Y-103505010D01*
X184848490Y-103505005D01*
X184848490Y-62952944D01*
X187209440Y-60591994D01*
X187472943Y-60483117D01*
X187736192Y-60220327D01*
X187793800Y-60081593D01*
X187828946Y-60258285D01*
X188150853Y-60740054D01*
X188480026Y-60960000D01*
X188150853Y-61179946D01*
X187828946Y-61661715D01*
X187715907Y-62230000D01*
X187828946Y-62798285D01*
X188150853Y-63280054D01*
X188480026Y-63500000D01*
X188150853Y-63719946D01*
X187828946Y-64201715D01*
X187715907Y-64770000D01*
X187828946Y-65338285D01*
X188150853Y-65820054D01*
X188480026Y-66040000D01*
X188150853Y-66259946D01*
X187828946Y-66741715D01*
X187715907Y-67310000D01*
X187828946Y-67878285D01*
X188150853Y-68360054D01*
X188480026Y-68580000D01*
X188150853Y-68799946D01*
X187828946Y-69281715D01*
X187715907Y-69850000D01*
X187828946Y-70418285D01*
X188150853Y-70900054D01*
X188480026Y-71120000D01*
X188150853Y-71339946D01*
X187828946Y-71821715D01*
X187715907Y-72390000D01*
X187828946Y-72958285D01*
X188150853Y-73440054D01*
X188480026Y-73660000D01*
X188150853Y-73879946D01*
X187828946Y-74361715D01*
X187715907Y-74930000D01*
X187828946Y-75498285D01*
X188150853Y-75980054D01*
X188480026Y-76200000D01*
X188150853Y-76419946D01*
X187828946Y-76901715D01*
X187715907Y-77470000D01*
X187828946Y-78038285D01*
X188150853Y-78520054D01*
X188480026Y-78740000D01*
X188150853Y-78959946D01*
X187828946Y-79441715D01*
X187715907Y-80010000D01*
X187828946Y-80578285D01*
X188093071Y-80973578D01*
X188079194Y-80976338D01*
X187828331Y-81143960D01*
X187552174Y-81029289D01*
X187180208Y-81028965D01*
X186836432Y-81171010D01*
X186573183Y-81433800D01*
X186463057Y-81699011D01*
X186072467Y-82089601D01*
X185893521Y-82357412D01*
X185834393Y-82654673D01*
X185830684Y-82673318D01*
X185830684Y-111451883D01*
X184519560Y-112763006D01*
X184256057Y-112871883D01*
X183992808Y-113134673D01*
X183850162Y-113478201D01*
X183849838Y-113850167D01*
X183991883Y-114193943D01*
X184254673Y-114457192D01*
X184598201Y-114599838D01*
X184970167Y-114600162D01*
X185313943Y-114458117D01*
X185577192Y-114195327D01*
X185687318Y-113930116D01*
X187239898Y-112377535D01*
X187239901Y-112377533D01*
X187418847Y-112109721D01*
X187437887Y-112014000D01*
X187481685Y-111793816D01*
X187481684Y-111793811D01*
X187481684Y-83015252D01*
X187630815Y-82866121D01*
X187894318Y-82757244D01*
X187910588Y-82741002D01*
X187933819Y-82756525D01*
X187928559Y-82759910D01*
X187783569Y-82972110D01*
X187732560Y-83224000D01*
X187732560Y-84924000D01*
X187776838Y-85159317D01*
X187915910Y-85375441D01*
X188128110Y-85520431D01*
X188195541Y-85534086D01*
X188150853Y-85563946D01*
X187828946Y-86045715D01*
X187715907Y-86614000D01*
X187828946Y-87182285D01*
X188150853Y-87664054D01*
X188480026Y-87884000D01*
X188150853Y-88103946D01*
X187828946Y-88585715D01*
X187715907Y-89154000D01*
X187828946Y-89722285D01*
X188150853Y-90204054D01*
X188480026Y-90424000D01*
X188150853Y-90643946D01*
X187828946Y-91125715D01*
X187715907Y-91694000D01*
X187828946Y-92262285D01*
X188150853Y-92744054D01*
X188480026Y-92964000D01*
X188150853Y-93183946D01*
X187828946Y-93665715D01*
X187715907Y-94234000D01*
X187828946Y-94802285D01*
X188150853Y-95284054D01*
X188480026Y-95504000D01*
X188150853Y-95723946D01*
X187828946Y-96205715D01*
X187715907Y-96774000D01*
X187828946Y-97342285D01*
X188150853Y-97824054D01*
X188480026Y-98044000D01*
X188150853Y-98263946D01*
X187828946Y-98745715D01*
X187715907Y-99314000D01*
X187828946Y-99882285D01*
X188150853Y-100364054D01*
X188480026Y-100584000D01*
X188150853Y-100803946D01*
X187828946Y-101285715D01*
X187715907Y-101854000D01*
X187828946Y-102422285D01*
X188150853Y-102904054D01*
X188480026Y-103124000D01*
X188150853Y-103343946D01*
X187828946Y-103825715D01*
X187715907Y-104394000D01*
X187828946Y-104962285D01*
X188150853Y-105444054D01*
X188480026Y-105664000D01*
X188150853Y-105883946D01*
X187828946Y-106365715D01*
X187715907Y-106934000D01*
X187828946Y-107502285D01*
X188150853Y-107984054D01*
X188480026Y-108204000D01*
X188150853Y-108423946D01*
X187828946Y-108905715D01*
X187715907Y-109474000D01*
X187828946Y-110042285D01*
X188150853Y-110524054D01*
X188480026Y-110744000D01*
X188150853Y-110963946D01*
X187828946Y-111445715D01*
X187715907Y-112014000D01*
X187828946Y-112582285D01*
X188150853Y-113064054D01*
X188480026Y-113284000D01*
X188150853Y-113503946D01*
X187828946Y-113985715D01*
X187715907Y-114554000D01*
X187828946Y-115122285D01*
X188150853Y-115604054D01*
X188480026Y-115824000D01*
X188150853Y-116043946D01*
X187828946Y-116525715D01*
X187715907Y-117094000D01*
X187828946Y-117662285D01*
X188150853Y-118144054D01*
X188480026Y-118364000D01*
X188150853Y-118583946D01*
X187828946Y-119065715D01*
X187715907Y-119634000D01*
X187828946Y-120202285D01*
X188150853Y-120684054D01*
X188480026Y-120904000D01*
X188150853Y-121123946D01*
X187828946Y-121605715D01*
X187715907Y-122174000D01*
X187828946Y-122742285D01*
X188150853Y-123224054D01*
X188480026Y-123444000D01*
X188150853Y-123663946D01*
X187828946Y-124145715D01*
X187715907Y-124714000D01*
X187828946Y-125282285D01*
X188150853Y-125764054D01*
X188632622Y-126085961D01*
X189200907Y-126199000D01*
X189259093Y-126199000D01*
X189827378Y-126085961D01*
X190309147Y-125764054D01*
X190500000Y-125478422D01*
X190690853Y-125764054D01*
X191172622Y-126085961D01*
X191740907Y-126199000D01*
X191799093Y-126199000D01*
X192367378Y-126085961D01*
X192849147Y-125764054D01*
X193171054Y-125282285D01*
X193284093Y-124714000D01*
X193171054Y-124145715D01*
X192849147Y-123663946D01*
X192519974Y-123444000D01*
X192849147Y-123224054D01*
X193171054Y-122742285D01*
X193284093Y-122174000D01*
X193171054Y-121605715D01*
X192849147Y-121123946D01*
X192519974Y-120904000D01*
X192849147Y-120684054D01*
X193171054Y-120202285D01*
X193284093Y-119634000D01*
X193171054Y-119065715D01*
X192849147Y-118583946D01*
X192519974Y-118364000D01*
X192849147Y-118144054D01*
X193171054Y-117662285D01*
X193284093Y-117094000D01*
X193171054Y-116525715D01*
X192849147Y-116043946D01*
X192519974Y-115824000D01*
X192849147Y-115604054D01*
X193171054Y-115122285D01*
X193284093Y-114554000D01*
X193171054Y-113985715D01*
X192849147Y-113503946D01*
X192519974Y-113284000D01*
X192849147Y-113064054D01*
X193171054Y-112582285D01*
X193284093Y-112014000D01*
X193171054Y-111445715D01*
X192849147Y-110963946D01*
X192519974Y-110744000D01*
X192849147Y-110524054D01*
X193171054Y-110042285D01*
X193284093Y-109474000D01*
X193171054Y-108905715D01*
X192849147Y-108423946D01*
X192519974Y-108204000D01*
X192849147Y-107984054D01*
X193171054Y-107502285D01*
X193284093Y-106934000D01*
X193171054Y-106365715D01*
X192849147Y-105883946D01*
X192519974Y-105664000D01*
X192849147Y-105444054D01*
X193171054Y-104962285D01*
X193284093Y-104394000D01*
X193171054Y-103825715D01*
X192849147Y-103343946D01*
X192519974Y-103124000D01*
X192849147Y-102904054D01*
X193171054Y-102422285D01*
X193284093Y-101854000D01*
X193171054Y-101285715D01*
X192849147Y-100803946D01*
X192519974Y-100584000D01*
X192849147Y-100364054D01*
X193171054Y-99882285D01*
X193284093Y-99314000D01*
X193171054Y-98745715D01*
X192849147Y-98263946D01*
X192519974Y-98044000D01*
X192849147Y-97824054D01*
X193171054Y-97342285D01*
X193284093Y-96774000D01*
X193171054Y-96205715D01*
X192849147Y-95723946D01*
X192519974Y-95504000D01*
X192849147Y-95284054D01*
X193171054Y-94802285D01*
X193284093Y-94234000D01*
X193171054Y-93665715D01*
X192849147Y-93183946D01*
X192519974Y-92964000D01*
X192849147Y-92744054D01*
X193171054Y-92262285D01*
X193284093Y-91694000D01*
X193171054Y-91125715D01*
X192849147Y-90643946D01*
X192519974Y-90424000D01*
X192849147Y-90204054D01*
X193171054Y-89722285D01*
X193284093Y-89154000D01*
X193171054Y-88585715D01*
X192849147Y-88103946D01*
X192519974Y-87884000D01*
X192849147Y-87664054D01*
X193171054Y-87182285D01*
X193284093Y-86614000D01*
X193171054Y-86045715D01*
X192849147Y-85563946D01*
X192519974Y-85344000D01*
X192849147Y-85124054D01*
X193171054Y-84642285D01*
X193284093Y-84074000D01*
X193242710Y-83865956D01*
X193479167Y-83866162D01*
X193600000Y-83816235D01*
X193600000Y-126290000D01*
X178676841Y-126290000D01*
X178938422Y-126028419D01*
X178938424Y-126028416D01*
X179005564Y-125961276D01*
X179070000Y-125974093D01*
X179638285Y-125861054D01*
X180120054Y-125539147D01*
X180441961Y-125057378D01*
X180555000Y-124489093D01*
X180555000Y-124430907D01*
X180441961Y-123862622D01*
X180120054Y-123380853D01*
X179638285Y-123058946D01*
X179070000Y-122945907D01*
X178501715Y-123058946D01*
X178019946Y-123380853D01*
X177800000Y-123710026D01*
X177580054Y-123380853D01*
X177098285Y-123058946D01*
X176921706Y-123023822D01*
X177058943Y-122967117D01*
X177322192Y-122704327D01*
X177464838Y-122360799D01*
X177465162Y-121988833D01*
X177355500Y-121723430D01*
X177355500Y-121244189D01*
X177580054Y-121094147D01*
X177800000Y-120764974D01*
X178019946Y-121094147D01*
X178501715Y-121416054D01*
X179070000Y-121529093D01*
X179638285Y-121416054D01*
X180120054Y-121094147D01*
X180441961Y-120612378D01*
X180555000Y-120044093D01*
X180555000Y-119985907D01*
X180441961Y-119417622D01*
X180120054Y-118935853D01*
X179638285Y-118613946D01*
X179070000Y-118500907D01*
X178501715Y-118613946D01*
X178019946Y-118935853D01*
X177800000Y-119265026D01*
X177580054Y-118935853D01*
X177098285Y-118613946D01*
X176530000Y-118500907D01*
X175961715Y-118613946D01*
X175479946Y-118935853D01*
X175260000Y-119265026D01*
X175040054Y-118935853D01*
X174815500Y-118785811D01*
X174815500Y-118560113D01*
X174924838Y-118296799D01*
X174925162Y-117924833D01*
X174783117Y-117581057D01*
X174520327Y-117317808D01*
X174176799Y-117175162D01*
X173804833Y-117174838D01*
X173461057Y-117316883D01*
X173197808Y-117579673D01*
X173055162Y-117923201D01*
X173054838Y-118295167D01*
X173164500Y-118560570D01*
X173164500Y-118785811D01*
X172939946Y-118935853D01*
X172720000Y-119265026D01*
X172500054Y-118935853D01*
X172275500Y-118785811D01*
X172275500Y-118560113D01*
X172384838Y-118296799D01*
X172385162Y-117924833D01*
X172243117Y-117581057D01*
X171980327Y-117317808D01*
X171636799Y-117175162D01*
X171264833Y-117174838D01*
X170921057Y-117316883D01*
X170657808Y-117579673D01*
X170515162Y-117923201D01*
X170514838Y-118295167D01*
X170624500Y-118560570D01*
X170624500Y-118785811D01*
X170399946Y-118935853D01*
X170180000Y-119265026D01*
X169960054Y-118935853D01*
X169735500Y-118785811D01*
X169735500Y-118738266D01*
X169735501Y-118738261D01*
X169672663Y-118422355D01*
X169493717Y-118154544D01*
X168926843Y-117587670D01*
X168659032Y-117408724D01*
X168343126Y-117345887D01*
X166138321Y-117345887D01*
X152543463Y-103751029D01*
X152543463Y-101960206D01*
X152578283Y-102012318D01*
X163544682Y-112978717D01*
X163812493Y-113157663D01*
X164128399Y-113220500D01*
X174555887Y-113220500D01*
X174819201Y-113329838D01*
X175191167Y-113330162D01*
X175534943Y-113188117D01*
X175798192Y-112925327D01*
X175940838Y-112581799D01*
X175941162Y-112209833D01*
X175799117Y-111866057D01*
X175536327Y-111602808D01*
X175192799Y-111460162D01*
X174820833Y-111459838D01*
X174555430Y-111569500D01*
X164470333Y-111569500D01*
X153987500Y-101086667D01*
X153987500Y-86302113D01*
X154096838Y-86038799D01*
X154096950Y-85910167D01*
X174324838Y-85910167D01*
X174466883Y-86253943D01*
X174729673Y-86517192D01*
X175073201Y-86659838D01*
X175445167Y-86660162D01*
X175710570Y-86550500D01*
X176570811Y-86550500D01*
X176720853Y-86775054D01*
X177202622Y-87096961D01*
X177770907Y-87210000D01*
X177829093Y-87210000D01*
X178397378Y-87096961D01*
X178879147Y-86775054D01*
X179201054Y-86293285D01*
X179314093Y-85725000D01*
X179201054Y-85156715D01*
X178879147Y-84674946D01*
X178837548Y-84647150D01*
X178885317Y-84638162D01*
X179101441Y-84499090D01*
X179246431Y-84286890D01*
X179297440Y-84035000D01*
X179297440Y-82335000D01*
X179253162Y-82099683D01*
X179114090Y-81883559D01*
X178901890Y-81738569D01*
X178650000Y-81687560D01*
X176950000Y-81687560D01*
X176714683Y-81731838D01*
X176498559Y-81870910D01*
X176353569Y-82083110D01*
X176302560Y-82335000D01*
X176302560Y-82341830D01*
X176081799Y-82250162D01*
X175709833Y-82249838D01*
X175366057Y-82391883D01*
X175102808Y-82654673D01*
X174960162Y-82998201D01*
X174959838Y-83370167D01*
X175101883Y-83713943D01*
X175364673Y-83977192D01*
X175708201Y-84119838D01*
X176080167Y-84120162D01*
X176302560Y-84028271D01*
X176302560Y-84035000D01*
X176346838Y-84270317D01*
X176485910Y-84486441D01*
X176698110Y-84631431D01*
X176765541Y-84645086D01*
X176720853Y-84674946D01*
X176570811Y-84899500D01*
X175710113Y-84899500D01*
X175446799Y-84790162D01*
X175074833Y-84789838D01*
X174731057Y-84931883D01*
X174467808Y-85194673D01*
X174325162Y-85538201D01*
X174324838Y-85910167D01*
X154096950Y-85910167D01*
X154097162Y-85666833D01*
X153955117Y-85323057D01*
X153692327Y-85059808D01*
X153348799Y-84917162D01*
X152976833Y-84916838D01*
X152633057Y-85058883D01*
X152543463Y-85148321D01*
X152543463Y-81890366D01*
X155177165Y-81890366D01*
X155319210Y-82234142D01*
X155582000Y-82497391D01*
X155925528Y-82640037D01*
X156086818Y-82640177D01*
X156033569Y-82718110D01*
X155982560Y-82970000D01*
X155982560Y-84670000D01*
X156026838Y-84905317D01*
X156165910Y-85121441D01*
X156378110Y-85266431D01*
X156630000Y-85317440D01*
X158330000Y-85317440D01*
X158565317Y-85273162D01*
X158781441Y-85134090D01*
X158926431Y-84921890D01*
X158948301Y-84813893D01*
X159253076Y-85091645D01*
X159663110Y-85261476D01*
X159893000Y-85140155D01*
X159893000Y-83947000D01*
X160147000Y-83947000D01*
X160147000Y-85140155D01*
X160376890Y-85261476D01*
X160786924Y-85091645D01*
X161215183Y-84701358D01*
X161461486Y-84176892D01*
X161340819Y-83947000D01*
X160147000Y-83947000D01*
X159893000Y-83947000D01*
X159873000Y-83947000D01*
X159873000Y-83693000D01*
X159893000Y-83693000D01*
X159893000Y-82499845D01*
X160147000Y-82499845D01*
X160147000Y-83693000D01*
X161340819Y-83693000D01*
X161461486Y-83463108D01*
X161215183Y-82938642D01*
X160786924Y-82548355D01*
X160376890Y-82378524D01*
X160147000Y-82499845D01*
X159893000Y-82499845D01*
X159663110Y-82378524D01*
X159253076Y-82548355D01*
X158950063Y-82824501D01*
X158933162Y-82734683D01*
X158794090Y-82518559D01*
X158581890Y-82373569D01*
X158330000Y-82322560D01*
X158252502Y-82322560D01*
X158242663Y-82273095D01*
X158063717Y-82005283D01*
X158063714Y-82005281D01*
X157179916Y-81121482D01*
X156912105Y-80942536D01*
X156596199Y-80879699D01*
X156562440Y-80879699D01*
X156299126Y-80770361D01*
X155927160Y-80770037D01*
X155583384Y-80912082D01*
X155320135Y-81174872D01*
X155177489Y-81518400D01*
X155177165Y-81890366D01*
X152543463Y-81890366D01*
X152543463Y-66040000D01*
X153035000Y-66040000D01*
X153035000Y-76200000D01*
X153078427Y-76430795D01*
X153214827Y-76642767D01*
X153422949Y-76784971D01*
X153670000Y-76835000D01*
X156544999Y-76835000D01*
X156544838Y-77020167D01*
X156686883Y-77363943D01*
X156949673Y-77627192D01*
X157293201Y-77769838D01*
X157665167Y-77770162D01*
X158008943Y-77628117D01*
X158272192Y-77365327D01*
X158382318Y-77100116D01*
X158647434Y-76835000D01*
X163830000Y-76835000D01*
X164060795Y-76791573D01*
X164272767Y-76655173D01*
X164414971Y-76447051D01*
X164465000Y-76200000D01*
X164465000Y-66040000D01*
X164421573Y-65809205D01*
X164285173Y-65597233D01*
X164077051Y-65455029D01*
X163830000Y-65405000D01*
X153670000Y-65405000D01*
X153439205Y-65448427D01*
X153227233Y-65584827D01*
X153085029Y-65792949D01*
X153035000Y-66040000D01*
X152543463Y-66040000D01*
X152543463Y-61145167D01*
X156544838Y-61145167D01*
X156686883Y-61488943D01*
X156949673Y-61752192D01*
X157293201Y-61894838D01*
X157665167Y-61895162D01*
X157837560Y-61823931D01*
X157837560Y-61860000D01*
X157881838Y-62095317D01*
X158020910Y-62311441D01*
X158233110Y-62456431D01*
X158485000Y-62507440D01*
X160285000Y-62507440D01*
X160520317Y-62463162D01*
X160736441Y-62324090D01*
X160881431Y-62111890D01*
X160885567Y-62091466D01*
X161054357Y-62260551D01*
X161618330Y-62494733D01*
X162228991Y-62495265D01*
X162793371Y-62262068D01*
X163225551Y-61830643D01*
X163459733Y-61266670D01*
X163460265Y-60656009D01*
X163441599Y-60610834D01*
X163490855Y-60561578D01*
X163643201Y-60624838D01*
X164015167Y-60625162D01*
X164358943Y-60483117D01*
X164622192Y-60220327D01*
X164764838Y-59876799D01*
X164765162Y-59504833D01*
X164623117Y-59161057D01*
X164360327Y-58897808D01*
X164016799Y-58755162D01*
X163644833Y-58754838D01*
X163379430Y-58864500D01*
X163195000Y-58864500D01*
X162879094Y-58927337D01*
X162771824Y-58999013D01*
X162611283Y-59106283D01*
X162611281Y-59106286D01*
X162274511Y-59443056D01*
X162231670Y-59425267D01*
X161621009Y-59424735D01*
X161056629Y-59657932D01*
X160888387Y-59825880D01*
X160888162Y-59824683D01*
X160749090Y-59608559D01*
X160536890Y-59463569D01*
X160285000Y-59412560D01*
X158485000Y-59412560D01*
X158249683Y-59456838D01*
X158033559Y-59595910D01*
X157888569Y-59808110D01*
X157837560Y-60060000D01*
X157837560Y-60096069D01*
X157666799Y-60025162D01*
X157294833Y-60024838D01*
X156951057Y-60166883D01*
X156687808Y-60429673D01*
X156545162Y-60773201D01*
X156544838Y-61145167D01*
X152543463Y-61145167D01*
X152543463Y-59443971D01*
X156551933Y-55435500D01*
X163457631Y-55435500D01*
X163721814Y-55612021D01*
X164136865Y-55694580D01*
X164382146Y-55694580D01*
X164833006Y-56145439D01*
X164941883Y-56408943D01*
X165204673Y-56672192D01*
X165548201Y-56814838D01*
X165920167Y-56815162D01*
X166263943Y-56673117D01*
X166527192Y-56410327D01*
X166669838Y-56066799D01*
X166670162Y-55694833D01*
X166528117Y-55351057D01*
X166265327Y-55087808D01*
X166000115Y-54977682D01*
X165837020Y-54814587D01*
X165877715Y-54610000D01*
X165827191Y-54356000D01*
X167640000Y-54356000D01*
X168028806Y-54278662D01*
X168206145Y-54160167D01*
X170514838Y-54160167D01*
X170624500Y-54425570D01*
X170624500Y-56064887D01*
X170515162Y-56328201D01*
X170514838Y-56700167D01*
X170656883Y-57043943D01*
X170919673Y-57307192D01*
X171263201Y-57449838D01*
X171635167Y-57450162D01*
X171978943Y-57308117D01*
X172242192Y-57045327D01*
X172384838Y-56701799D01*
X172385162Y-56329833D01*
X172275500Y-56064430D01*
X172275500Y-54425113D01*
X172384838Y-54161799D01*
X172385162Y-53789833D01*
X172243117Y-53446057D01*
X171980327Y-53182808D01*
X171636799Y-53040162D01*
X171264833Y-53039838D01*
X170921057Y-53181883D01*
X170657808Y-53444673D01*
X170515162Y-53788201D01*
X170514838Y-54160167D01*
X168206145Y-54160167D01*
X168358420Y-54058420D01*
X168578662Y-53728806D01*
X168656000Y-53340000D01*
X168578662Y-52951194D01*
X168358420Y-52621580D01*
X168028806Y-52401338D01*
X167640000Y-52324000D01*
X165827191Y-52324000D01*
X165840882Y-52255167D01*
X172419838Y-52255167D01*
X172529500Y-52520570D01*
X172529500Y-56064887D01*
X172420162Y-56328201D01*
X172419838Y-56700167D01*
X172561883Y-57043943D01*
X172824673Y-57307192D01*
X173168201Y-57449838D01*
X173540167Y-57450162D01*
X173883943Y-57308117D01*
X174147192Y-57045327D01*
X174289838Y-56701799D01*
X174290162Y-56329833D01*
X174180500Y-56064430D01*
X174180500Y-52520113D01*
X174289838Y-52256799D01*
X174290162Y-51884833D01*
X174148117Y-51541057D01*
X173885327Y-51277808D01*
X173541799Y-51135162D01*
X173169833Y-51134838D01*
X172826057Y-51276883D01*
X172562808Y-51539673D01*
X172420162Y-51883201D01*
X172419838Y-52255167D01*
X165840882Y-52255167D01*
X165877715Y-52070000D01*
X165795156Y-51654949D01*
X165560049Y-51303086D01*
X165208186Y-51067979D01*
X164793135Y-50985420D01*
X164136865Y-50985420D01*
X163792091Y-51054000D01*
X162560000Y-51054000D01*
X162171194Y-51131338D01*
X161841580Y-51351580D01*
X161621338Y-51681194D01*
X161544000Y-52070000D01*
X161621338Y-52458806D01*
X161841580Y-52788420D01*
X162171194Y-53008662D01*
X162560000Y-53086000D01*
X163102809Y-53086000D01*
X163052285Y-53340000D01*
X163134844Y-53755051D01*
X163154521Y-53784500D01*
X156210005Y-53784500D01*
X156210000Y-53784499D01*
X155915466Y-53843086D01*
X155894095Y-53847337D01*
X155626283Y-54026283D01*
X155626281Y-54026286D01*
X155321000Y-54331567D01*
X155321000Y-53536205D01*
X155390317Y-53523162D01*
X155606441Y-53384090D01*
X155751431Y-53171890D01*
X155802440Y-52920000D01*
X155802440Y-52009400D01*
X156376695Y-51435146D01*
X156461510Y-51435220D01*
X156928458Y-51242282D01*
X157286026Y-50885337D01*
X157479779Y-50418727D01*
X157480220Y-49913490D01*
X157352755Y-49605000D01*
X193600000Y-49605000D01*
X193600000Y-52263668D01*
X193600000Y-52263668D01*
G37*
X193600000Y-52263668D02*
X193037679Y-51700364D01*
X192216519Y-51359389D01*
X191327381Y-51358613D01*
X190505628Y-51698155D01*
X189876364Y-52326321D01*
X189535389Y-53147481D01*
X189534613Y-54036619D01*
X189874155Y-54858372D01*
X190502321Y-55487636D01*
X191192275Y-55774130D01*
X191172622Y-55778039D01*
X190690853Y-56099946D01*
X190690029Y-56101179D01*
X190683162Y-56064683D01*
X190544090Y-55848559D01*
X190331890Y-55703569D01*
X190080000Y-55652560D01*
X188380000Y-55652560D01*
X188144683Y-55696838D01*
X187928559Y-55835910D01*
X187783569Y-56048110D01*
X187732560Y-56300000D01*
X187732560Y-58000000D01*
X187776838Y-58235317D01*
X187915910Y-58451441D01*
X188128110Y-58596431D01*
X188195541Y-58610086D01*
X188150853Y-58639946D01*
X187828946Y-59121715D01*
X187793822Y-59298294D01*
X187737117Y-59161057D01*
X187474327Y-58897808D01*
X187130799Y-58755162D01*
X186758833Y-58754838D01*
X186415057Y-58896883D01*
X186151808Y-59159673D01*
X186041682Y-59424884D01*
X183439273Y-62027293D01*
X183260327Y-62295104D01*
X183228237Y-62456431D01*
X183197490Y-62611010D01*
X183197490Y-103163077D01*
X178718815Y-107641751D01*
X176136725Y-107641751D01*
X176194838Y-107501799D01*
X176195162Y-107129833D01*
X176085500Y-106864430D01*
X176085500Y-99734005D01*
X176085501Y-99734000D01*
X176022663Y-99418094D01*
X175843717Y-99150283D01*
X175169717Y-98476283D01*
X174901906Y-98297337D01*
X174852440Y-98287498D01*
X174852440Y-98210000D01*
X174809203Y-97980216D01*
X175073201Y-98089838D01*
X175445167Y-98090162D01*
X175788943Y-97948117D01*
X176052192Y-97685327D01*
X176194838Y-97341799D01*
X176195162Y-96969833D01*
X176053117Y-96626057D01*
X175790327Y-96362808D01*
X175525116Y-96252682D01*
X175208717Y-95936283D01*
X174940906Y-95757337D01*
X174625000Y-95694500D01*
X174584189Y-95694500D01*
X174434147Y-95469946D01*
X173952378Y-95148039D01*
X173384093Y-95035000D01*
X173325907Y-95035000D01*
X172757622Y-95148039D01*
X172275853Y-95469946D01*
X171953946Y-95951715D01*
X171840907Y-96520000D01*
X171953946Y-97088285D01*
X172275853Y-97570054D01*
X172317452Y-97597850D01*
X172269683Y-97606838D01*
X172053559Y-97745910D01*
X171908569Y-97958110D01*
X171857560Y-98210000D01*
X171857560Y-99910000D01*
X171901838Y-100145317D01*
X172040910Y-100361441D01*
X172253110Y-100506431D01*
X172505000Y-100557440D01*
X174205000Y-100557440D01*
X174434500Y-100514257D01*
X174434500Y-106864887D01*
X174325162Y-107128201D01*
X174324838Y-107500167D01*
X174338151Y-107532387D01*
X173995806Y-107532089D01*
X173652030Y-107674134D01*
X173388781Y-107936924D01*
X173246135Y-108280452D01*
X173245811Y-108652418D01*
X173387856Y-108996194D01*
X173650646Y-109259443D01*
X173994174Y-109402089D01*
X174366140Y-109402413D01*
X174631543Y-109292751D01*
X179060749Y-109292751D01*
X179376655Y-109229914D01*
X179644466Y-109050968D01*
X184606704Y-104088729D01*
X184606707Y-104088727D01*
X184785653Y-103820915D01*
X184794377Y-103777057D01*
X184848491Y-103505010D01*
X184848490Y-103505005D01*
X184848490Y-62952944D01*
X187209440Y-60591994D01*
X187472943Y-60483117D01*
X187736192Y-60220327D01*
X187793800Y-60081593D01*
X187828946Y-60258285D01*
X188150853Y-60740054D01*
X188480026Y-60960000D01*
X188150853Y-61179946D01*
X187828946Y-61661715D01*
X187715907Y-62230000D01*
X187828946Y-62798285D01*
X188150853Y-63280054D01*
X188480026Y-63500000D01*
X188150853Y-63719946D01*
X187828946Y-64201715D01*
X187715907Y-64770000D01*
X187828946Y-65338285D01*
X188150853Y-65820054D01*
X188480026Y-66040000D01*
X188150853Y-66259946D01*
X187828946Y-66741715D01*
X187715907Y-67310000D01*
X187828946Y-67878285D01*
X188150853Y-68360054D01*
X188480026Y-68580000D01*
X188150853Y-68799946D01*
X187828946Y-69281715D01*
X187715907Y-69850000D01*
X187828946Y-70418285D01*
X188150853Y-70900054D01*
X188480026Y-71120000D01*
X188150853Y-71339946D01*
X187828946Y-71821715D01*
X187715907Y-72390000D01*
X187828946Y-72958285D01*
X188150853Y-73440054D01*
X188480026Y-73660000D01*
X188150853Y-73879946D01*
X187828946Y-74361715D01*
X187715907Y-74930000D01*
X187828946Y-75498285D01*
X188150853Y-75980054D01*
X188480026Y-76200000D01*
X188150853Y-76419946D01*
X187828946Y-76901715D01*
X187715907Y-77470000D01*
X187828946Y-78038285D01*
X188150853Y-78520054D01*
X188480026Y-78740000D01*
X188150853Y-78959946D01*
X187828946Y-79441715D01*
X187715907Y-80010000D01*
X187828946Y-80578285D01*
X188093071Y-80973578D01*
X188079194Y-80976338D01*
X187828331Y-81143960D01*
X187552174Y-81029289D01*
X187180208Y-81028965D01*
X186836432Y-81171010D01*
X186573183Y-81433800D01*
X186463057Y-81699011D01*
X186072467Y-82089601D01*
X185893521Y-82357412D01*
X185834393Y-82654673D01*
X185830684Y-82673318D01*
X185830684Y-111451883D01*
X184519560Y-112763006D01*
X184256057Y-112871883D01*
X183992808Y-113134673D01*
X183850162Y-113478201D01*
X183849838Y-113850167D01*
X183991883Y-114193943D01*
X184254673Y-114457192D01*
X184598201Y-114599838D01*
X184970167Y-114600162D01*
X185313943Y-114458117D01*
X185577192Y-114195327D01*
X185687318Y-113930116D01*
X187239898Y-112377535D01*
X187239901Y-112377533D01*
X187418847Y-112109721D01*
X187437887Y-112014000D01*
X187481685Y-111793816D01*
X187481684Y-111793811D01*
X187481684Y-83015252D01*
X187630815Y-82866121D01*
X187894318Y-82757244D01*
X187910588Y-82741002D01*
X187933819Y-82756525D01*
X187928559Y-82759910D01*
X187783569Y-82972110D01*
X187732560Y-83224000D01*
X187732560Y-84924000D01*
X187776838Y-85159317D01*
X187915910Y-85375441D01*
X188128110Y-85520431D01*
X188195541Y-85534086D01*
X188150853Y-85563946D01*
X187828946Y-86045715D01*
X187715907Y-86614000D01*
X187828946Y-87182285D01*
X188150853Y-87664054D01*
X188480026Y-87884000D01*
X188150853Y-88103946D01*
X187828946Y-88585715D01*
X187715907Y-89154000D01*
X187828946Y-89722285D01*
X188150853Y-90204054D01*
X188480026Y-90424000D01*
X188150853Y-90643946D01*
X187828946Y-91125715D01*
X187715907Y-91694000D01*
X187828946Y-92262285D01*
X188150853Y-92744054D01*
X188480026Y-92964000D01*
X188150853Y-93183946D01*
X187828946Y-93665715D01*
X187715907Y-94234000D01*
X187828946Y-94802285D01*
X188150853Y-95284054D01*
X188480026Y-95504000D01*
X188150853Y-95723946D01*
X187828946Y-96205715D01*
X187715907Y-96774000D01*
X187828946Y-97342285D01*
X188150853Y-97824054D01*
X188480026Y-98044000D01*
X188150853Y-98263946D01*
X187828946Y-98745715D01*
X187715907Y-99314000D01*
X187828946Y-99882285D01*
X188150853Y-100364054D01*
X188480026Y-100584000D01*
X188150853Y-100803946D01*
X187828946Y-101285715D01*
X187715907Y-101854000D01*
X187828946Y-102422285D01*
X188150853Y-102904054D01*
X188480026Y-103124000D01*
X188150853Y-103343946D01*
X187828946Y-103825715D01*
X187715907Y-104394000D01*
X187828946Y-104962285D01*
X188150853Y-105444054D01*
X188480026Y-105664000D01*
X188150853Y-105883946D01*
X187828946Y-106365715D01*
X187715907Y-106934000D01*
X187828946Y-107502285D01*
X188150853Y-107984054D01*
X188480026Y-108204000D01*
X188150853Y-108423946D01*
X187828946Y-108905715D01*
X187715907Y-109474000D01*
X187828946Y-110042285D01*
X188150853Y-110524054D01*
X188480026Y-110744000D01*
X188150853Y-110963946D01*
X187828946Y-111445715D01*
X187715907Y-112014000D01*
X187828946Y-112582285D01*
X188150853Y-113064054D01*
X188480026Y-113284000D01*
X188150853Y-113503946D01*
X187828946Y-113985715D01*
X187715907Y-114554000D01*
X187828946Y-115122285D01*
X188150853Y-115604054D01*
X188480026Y-115824000D01*
X188150853Y-116043946D01*
X187828946Y-116525715D01*
X187715907Y-117094000D01*
X187828946Y-117662285D01*
X188150853Y-118144054D01*
X188480026Y-118364000D01*
X188150853Y-118583946D01*
X187828946Y-119065715D01*
X187715907Y-119634000D01*
X187828946Y-120202285D01*
X188150853Y-120684054D01*
X188480026Y-120904000D01*
X188150853Y-121123946D01*
X187828946Y-121605715D01*
X187715907Y-122174000D01*
X187828946Y-122742285D01*
X188150853Y-123224054D01*
X188480026Y-123444000D01*
X188150853Y-123663946D01*
X187828946Y-124145715D01*
X187715907Y-124714000D01*
X187828946Y-125282285D01*
X188150853Y-125764054D01*
X188632622Y-126085961D01*
X189200907Y-126199000D01*
X189259093Y-126199000D01*
X189827378Y-126085961D01*
X190309147Y-125764054D01*
X190500000Y-125478422D01*
X190690853Y-125764054D01*
X191172622Y-126085961D01*
X191740907Y-126199000D01*
X191799093Y-126199000D01*
X192367378Y-126085961D01*
X192849147Y-125764054D01*
X193171054Y-125282285D01*
X193284093Y-124714000D01*
X193171054Y-124145715D01*
X192849147Y-123663946D01*
X192519974Y-123444000D01*
X192849147Y-123224054D01*
X193171054Y-122742285D01*
X193284093Y-122174000D01*
X193171054Y-121605715D01*
X192849147Y-121123946D01*
X192519974Y-120904000D01*
X192849147Y-120684054D01*
X193171054Y-120202285D01*
X193284093Y-119634000D01*
X193171054Y-119065715D01*
X192849147Y-118583946D01*
X192519974Y-118364000D01*
X192849147Y-118144054D01*
X193171054Y-117662285D01*
X193284093Y-117094000D01*
X193171054Y-116525715D01*
X192849147Y-116043946D01*
X192519974Y-115824000D01*
X192849147Y-115604054D01*
X193171054Y-115122285D01*
X193284093Y-114554000D01*
X193171054Y-113985715D01*
X192849147Y-113503946D01*
X192519974Y-113284000D01*
X192849147Y-113064054D01*
X193171054Y-112582285D01*
X193284093Y-112014000D01*
X193171054Y-111445715D01*
X192849147Y-110963946D01*
X192519974Y-110744000D01*
X192849147Y-110524054D01*
X193171054Y-110042285D01*
X193284093Y-109474000D01*
X193171054Y-108905715D01*
X192849147Y-108423946D01*
X192519974Y-108204000D01*
X192849147Y-107984054D01*
X193171054Y-107502285D01*
X193284093Y-106934000D01*
X193171054Y-106365715D01*
X192849147Y-105883946D01*
X192519974Y-105664000D01*
X192849147Y-105444054D01*
X193171054Y-104962285D01*
X193284093Y-104394000D01*
X193171054Y-103825715D01*
X192849147Y-103343946D01*
X192519974Y-103124000D01*
X192849147Y-102904054D01*
X193171054Y-102422285D01*
X193284093Y-101854000D01*
X193171054Y-101285715D01*
X192849147Y-100803946D01*
X192519974Y-100584000D01*
X192849147Y-100364054D01*
X193171054Y-99882285D01*
X193284093Y-99314000D01*
X193171054Y-98745715D01*
X192849147Y-98263946D01*
X192519974Y-98044000D01*
X192849147Y-97824054D01*
X193171054Y-97342285D01*
X193284093Y-96774000D01*
X193171054Y-96205715D01*
X192849147Y-95723946D01*
X192519974Y-95504000D01*
X192849147Y-95284054D01*
X193171054Y-94802285D01*
X193284093Y-94234000D01*
X193171054Y-93665715D01*
X192849147Y-93183946D01*
X192519974Y-92964000D01*
X192849147Y-92744054D01*
X193171054Y-92262285D01*
X193284093Y-91694000D01*
X193171054Y-91125715D01*
X192849147Y-90643946D01*
X192519974Y-90424000D01*
X192849147Y-90204054D01*
X193171054Y-89722285D01*
X193284093Y-89154000D01*
X193171054Y-88585715D01*
X192849147Y-88103946D01*
X192519974Y-87884000D01*
X192849147Y-87664054D01*
X193171054Y-87182285D01*
X193284093Y-86614000D01*
X193171054Y-86045715D01*
X192849147Y-85563946D01*
X192519974Y-85344000D01*
X192849147Y-85124054D01*
X193171054Y-84642285D01*
X193284093Y-84074000D01*
X193242710Y-83865956D01*
X193479167Y-83866162D01*
X193600000Y-83816235D01*
X193600000Y-126290000D01*
X178676841Y-126290000D01*
X178938422Y-126028419D01*
X178938424Y-126028416D01*
X179005564Y-125961276D01*
X179070000Y-125974093D01*
X179638285Y-125861054D01*
X180120054Y-125539147D01*
X180441961Y-125057378D01*
X180555000Y-124489093D01*
X180555000Y-124430907D01*
X180441961Y-123862622D01*
X180120054Y-123380853D01*
X179638285Y-123058946D01*
X179070000Y-122945907D01*
X178501715Y-123058946D01*
X178019946Y-123380853D01*
X177800000Y-123710026D01*
X177580054Y-123380853D01*
X177098285Y-123058946D01*
X176921706Y-123023822D01*
X177058943Y-122967117D01*
X177322192Y-122704327D01*
X177464838Y-122360799D01*
X177465162Y-121988833D01*
X177355500Y-121723430D01*
X177355500Y-121244189D01*
X177580054Y-121094147D01*
X177800000Y-120764974D01*
X178019946Y-121094147D01*
X178501715Y-121416054D01*
X179070000Y-121529093D01*
X179638285Y-121416054D01*
X180120054Y-121094147D01*
X180441961Y-120612378D01*
X180555000Y-120044093D01*
X180555000Y-119985907D01*
X180441961Y-119417622D01*
X180120054Y-118935853D01*
X179638285Y-118613946D01*
X179070000Y-118500907D01*
X178501715Y-118613946D01*
X178019946Y-118935853D01*
X177800000Y-119265026D01*
X177580054Y-118935853D01*
X177098285Y-118613946D01*
X176530000Y-118500907D01*
X175961715Y-118613946D01*
X175479946Y-118935853D01*
X175260000Y-119265026D01*
X175040054Y-118935853D01*
X174815500Y-118785811D01*
X174815500Y-118560113D01*
X174924838Y-118296799D01*
X174925162Y-117924833D01*
X174783117Y-117581057D01*
X174520327Y-117317808D01*
X174176799Y-117175162D01*
X173804833Y-117174838D01*
X173461057Y-117316883D01*
X173197808Y-117579673D01*
X173055162Y-117923201D01*
X173054838Y-118295167D01*
X173164500Y-118560570D01*
X173164500Y-118785811D01*
X172939946Y-118935853D01*
X172720000Y-119265026D01*
X172500054Y-118935853D01*
X172275500Y-118785811D01*
X172275500Y-118560113D01*
X172384838Y-118296799D01*
X172385162Y-117924833D01*
X172243117Y-117581057D01*
X171980327Y-117317808D01*
X171636799Y-117175162D01*
X171264833Y-117174838D01*
X170921057Y-117316883D01*
X170657808Y-117579673D01*
X170515162Y-117923201D01*
X170514838Y-118295167D01*
X170624500Y-118560570D01*
X170624500Y-118785811D01*
X170399946Y-118935853D01*
X170180000Y-119265026D01*
X169960054Y-118935853D01*
X169735500Y-118785811D01*
X169735500Y-118738266D01*
X169735501Y-118738261D01*
X169672663Y-118422355D01*
X169493717Y-118154544D01*
X168926843Y-117587670D01*
X168659032Y-117408724D01*
X168343126Y-117345887D01*
X166138321Y-117345887D01*
X152543463Y-103751029D01*
X152543463Y-101960206D01*
X152578283Y-102012318D01*
X163544682Y-112978717D01*
X163812493Y-113157663D01*
X164128399Y-113220500D01*
X174555887Y-113220500D01*
X174819201Y-113329838D01*
X175191167Y-113330162D01*
X175534943Y-113188117D01*
X175798192Y-112925327D01*
X175940838Y-112581799D01*
X175941162Y-112209833D01*
X175799117Y-111866057D01*
X175536327Y-111602808D01*
X175192799Y-111460162D01*
X174820833Y-111459838D01*
X174555430Y-111569500D01*
X164470333Y-111569500D01*
X153987500Y-101086667D01*
X153987500Y-86302113D01*
X154096838Y-86038799D01*
X154096950Y-85910167D01*
X174324838Y-85910167D01*
X174466883Y-86253943D01*
X174729673Y-86517192D01*
X175073201Y-86659838D01*
X175445167Y-86660162D01*
X175710570Y-86550500D01*
X176570811Y-86550500D01*
X176720853Y-86775054D01*
X177202622Y-87096961D01*
X177770907Y-87210000D01*
X177829093Y-87210000D01*
X178397378Y-87096961D01*
X178879147Y-86775054D01*
X179201054Y-86293285D01*
X179314093Y-85725000D01*
X179201054Y-85156715D01*
X178879147Y-84674946D01*
X178837548Y-84647150D01*
X178885317Y-84638162D01*
X179101441Y-84499090D01*
X179246431Y-84286890D01*
X179297440Y-84035000D01*
X179297440Y-82335000D01*
X179253162Y-82099683D01*
X179114090Y-81883559D01*
X178901890Y-81738569D01*
X178650000Y-81687560D01*
X176950000Y-81687560D01*
X176714683Y-81731838D01*
X176498559Y-81870910D01*
X176353569Y-82083110D01*
X176302560Y-82335000D01*
X176302560Y-82341830D01*
X176081799Y-82250162D01*
X175709833Y-82249838D01*
X175366057Y-82391883D01*
X175102808Y-82654673D01*
X174960162Y-82998201D01*
X174959838Y-83370167D01*
X175101883Y-83713943D01*
X175364673Y-83977192D01*
X175708201Y-84119838D01*
X176080167Y-84120162D01*
X176302560Y-84028271D01*
X176302560Y-84035000D01*
X176346838Y-84270317D01*
X176485910Y-84486441D01*
X176698110Y-84631431D01*
X176765541Y-84645086D01*
X176720853Y-84674946D01*
X176570811Y-84899500D01*
X175710113Y-84899500D01*
X175446799Y-84790162D01*
X175074833Y-84789838D01*
X174731057Y-84931883D01*
X174467808Y-85194673D01*
X174325162Y-85538201D01*
X174324838Y-85910167D01*
X154096950Y-85910167D01*
X154097162Y-85666833D01*
X153955117Y-85323057D01*
X153692327Y-85059808D01*
X153348799Y-84917162D01*
X152976833Y-84916838D01*
X152633057Y-85058883D01*
X152543463Y-85148321D01*
X152543463Y-81890366D01*
X155177165Y-81890366D01*
X155319210Y-82234142D01*
X155582000Y-82497391D01*
X155925528Y-82640037D01*
X156086818Y-82640177D01*
X156033569Y-82718110D01*
X155982560Y-82970000D01*
X155982560Y-84670000D01*
X156026838Y-84905317D01*
X156165910Y-85121441D01*
X156378110Y-85266431D01*
X156630000Y-85317440D01*
X158330000Y-85317440D01*
X158565317Y-85273162D01*
X158781441Y-85134090D01*
X158926431Y-84921890D01*
X158948301Y-84813893D01*
X159253076Y-85091645D01*
X159663110Y-85261476D01*
X159893000Y-85140155D01*
X159893000Y-83947000D01*
X160147000Y-83947000D01*
X160147000Y-85140155D01*
X160376890Y-85261476D01*
X160786924Y-85091645D01*
X161215183Y-84701358D01*
X161461486Y-84176892D01*
X161340819Y-83947000D01*
X160147000Y-83947000D01*
X159893000Y-83947000D01*
X159873000Y-83947000D01*
X159873000Y-83693000D01*
X159893000Y-83693000D01*
X159893000Y-82499845D01*
X160147000Y-82499845D01*
X160147000Y-83693000D01*
X161340819Y-83693000D01*
X161461486Y-83463108D01*
X161215183Y-82938642D01*
X160786924Y-82548355D01*
X160376890Y-82378524D01*
X160147000Y-82499845D01*
X159893000Y-82499845D01*
X159663110Y-82378524D01*
X159253076Y-82548355D01*
X158950063Y-82824501D01*
X158933162Y-82734683D01*
X158794090Y-82518559D01*
X158581890Y-82373569D01*
X158330000Y-82322560D01*
X158252502Y-82322560D01*
X158242663Y-82273095D01*
X158063717Y-82005283D01*
X158063714Y-82005281D01*
X157179916Y-81121482D01*
X156912105Y-80942536D01*
X156596199Y-80879699D01*
X156562440Y-80879699D01*
X156299126Y-80770361D01*
X155927160Y-80770037D01*
X155583384Y-80912082D01*
X155320135Y-81174872D01*
X155177489Y-81518400D01*
X155177165Y-81890366D01*
X152543463Y-81890366D01*
X152543463Y-66040000D01*
X153035000Y-66040000D01*
X153035000Y-76200000D01*
X153078427Y-76430795D01*
X153214827Y-76642767D01*
X153422949Y-76784971D01*
X153670000Y-76835000D01*
X156544999Y-76835000D01*
X156544838Y-77020167D01*
X156686883Y-77363943D01*
X156949673Y-77627192D01*
X157293201Y-77769838D01*
X157665167Y-77770162D01*
X158008943Y-77628117D01*
X158272192Y-77365327D01*
X158382318Y-77100116D01*
X158647434Y-76835000D01*
X163830000Y-76835000D01*
X164060795Y-76791573D01*
X164272767Y-76655173D01*
X164414971Y-76447051D01*
X164465000Y-76200000D01*
X164465000Y-66040000D01*
X164421573Y-65809205D01*
X164285173Y-65597233D01*
X164077051Y-65455029D01*
X163830000Y-65405000D01*
X153670000Y-65405000D01*
X153439205Y-65448427D01*
X153227233Y-65584827D01*
X153085029Y-65792949D01*
X153035000Y-66040000D01*
X152543463Y-66040000D01*
X152543463Y-61145167D01*
X156544838Y-61145167D01*
X156686883Y-61488943D01*
X156949673Y-61752192D01*
X157293201Y-61894838D01*
X157665167Y-61895162D01*
X157837560Y-61823931D01*
X157837560Y-61860000D01*
X157881838Y-62095317D01*
X158020910Y-62311441D01*
X158233110Y-62456431D01*
X158485000Y-62507440D01*
X160285000Y-62507440D01*
X160520317Y-62463162D01*
X160736441Y-62324090D01*
X160881431Y-62111890D01*
X160885567Y-62091466D01*
X161054357Y-62260551D01*
X161618330Y-62494733D01*
X162228991Y-62495265D01*
X162793371Y-62262068D01*
X163225551Y-61830643D01*
X163459733Y-61266670D01*
X163460265Y-60656009D01*
X163441599Y-60610834D01*
X163490855Y-60561578D01*
X163643201Y-60624838D01*
X164015167Y-60625162D01*
X164358943Y-60483117D01*
X164622192Y-60220327D01*
X164764838Y-59876799D01*
X164765162Y-59504833D01*
X164623117Y-59161057D01*
X164360327Y-58897808D01*
X164016799Y-58755162D01*
X163644833Y-58754838D01*
X163379430Y-58864500D01*
X163195000Y-58864500D01*
X162879094Y-58927337D01*
X162771824Y-58999013D01*
X162611283Y-59106283D01*
X162611281Y-59106286D01*
X162274511Y-59443056D01*
X162231670Y-59425267D01*
X161621009Y-59424735D01*
X161056629Y-59657932D01*
X160888387Y-59825880D01*
X160888162Y-59824683D01*
X160749090Y-59608559D01*
X160536890Y-59463569D01*
X160285000Y-59412560D01*
X158485000Y-59412560D01*
X158249683Y-59456838D01*
X158033559Y-59595910D01*
X157888569Y-59808110D01*
X157837560Y-60060000D01*
X157837560Y-60096069D01*
X157666799Y-60025162D01*
X157294833Y-60024838D01*
X156951057Y-60166883D01*
X156687808Y-60429673D01*
X156545162Y-60773201D01*
X156544838Y-61145167D01*
X152543463Y-61145167D01*
X152543463Y-59443971D01*
X156551933Y-55435500D01*
X163457631Y-55435500D01*
X163721814Y-55612021D01*
X164136865Y-55694580D01*
X164382146Y-55694580D01*
X164833006Y-56145439D01*
X164941883Y-56408943D01*
X165204673Y-56672192D01*
X165548201Y-56814838D01*
X165920167Y-56815162D01*
X166263943Y-56673117D01*
X166527192Y-56410327D01*
X166669838Y-56066799D01*
X166670162Y-55694833D01*
X166528117Y-55351057D01*
X166265327Y-55087808D01*
X166000115Y-54977682D01*
X165837020Y-54814587D01*
X165877715Y-54610000D01*
X165827191Y-54356000D01*
X167640000Y-54356000D01*
X168028806Y-54278662D01*
X168206145Y-54160167D01*
X170514838Y-54160167D01*
X170624500Y-54425570D01*
X170624500Y-56064887D01*
X170515162Y-56328201D01*
X170514838Y-56700167D01*
X170656883Y-57043943D01*
X170919673Y-57307192D01*
X171263201Y-57449838D01*
X171635167Y-57450162D01*
X171978943Y-57308117D01*
X172242192Y-57045327D01*
X172384838Y-56701799D01*
X172385162Y-56329833D01*
X172275500Y-56064430D01*
X172275500Y-54425113D01*
X172384838Y-54161799D01*
X172385162Y-53789833D01*
X172243117Y-53446057D01*
X171980327Y-53182808D01*
X171636799Y-53040162D01*
X171264833Y-53039838D01*
X170921057Y-53181883D01*
X170657808Y-53444673D01*
X170515162Y-53788201D01*
X170514838Y-54160167D01*
X168206145Y-54160167D01*
X168358420Y-54058420D01*
X168578662Y-53728806D01*
X168656000Y-53340000D01*
X168578662Y-52951194D01*
X168358420Y-52621580D01*
X168028806Y-52401338D01*
X167640000Y-52324000D01*
X165827191Y-52324000D01*
X165840882Y-52255167D01*
X172419838Y-52255167D01*
X172529500Y-52520570D01*
X172529500Y-56064887D01*
X172420162Y-56328201D01*
X172419838Y-56700167D01*
X172561883Y-57043943D01*
X172824673Y-57307192D01*
X173168201Y-57449838D01*
X173540167Y-57450162D01*
X173883943Y-57308117D01*
X174147192Y-57045327D01*
X174289838Y-56701799D01*
X174290162Y-56329833D01*
X174180500Y-56064430D01*
X174180500Y-52520113D01*
X174289838Y-52256799D01*
X174290162Y-51884833D01*
X174148117Y-51541057D01*
X173885327Y-51277808D01*
X173541799Y-51135162D01*
X173169833Y-51134838D01*
X172826057Y-51276883D01*
X172562808Y-51539673D01*
X172420162Y-51883201D01*
X172419838Y-52255167D01*
X165840882Y-52255167D01*
X165877715Y-52070000D01*
X165795156Y-51654949D01*
X165560049Y-51303086D01*
X165208186Y-51067979D01*
X164793135Y-50985420D01*
X164136865Y-50985420D01*
X163792091Y-51054000D01*
X162560000Y-51054000D01*
X162171194Y-51131338D01*
X161841580Y-51351580D01*
X161621338Y-51681194D01*
X161544000Y-52070000D01*
X161621338Y-52458806D01*
X161841580Y-52788420D01*
X162171194Y-53008662D01*
X162560000Y-53086000D01*
X163102809Y-53086000D01*
X163052285Y-53340000D01*
X163134844Y-53755051D01*
X163154521Y-53784500D01*
X156210005Y-53784500D01*
X156210000Y-53784499D01*
X155915466Y-53843086D01*
X155894095Y-53847337D01*
X155626283Y-54026283D01*
X155626281Y-54026286D01*
X155321000Y-54331567D01*
X155321000Y-53536205D01*
X155390317Y-53523162D01*
X155606441Y-53384090D01*
X155751431Y-53171890D01*
X155802440Y-52920000D01*
X155802440Y-52009400D01*
X156376695Y-51435146D01*
X156461510Y-51435220D01*
X156928458Y-51242282D01*
X157286026Y-50885337D01*
X157479779Y-50418727D01*
X157480220Y-49913490D01*
X157352755Y-49605000D01*
X193600000Y-49605000D01*
X193600000Y-52263668D01*
G36*
X163703000Y-76073000D02*
X159384309Y-76073000D01*
X159499796Y-75900162D01*
X159512663Y-75880906D01*
X159575500Y-75565000D01*
X159575500Y-75078320D01*
X160221285Y-75078320D01*
X160350533Y-75371123D01*
X161050806Y-75639388D01*
X161800435Y-75619250D01*
X162399467Y-75371123D01*
X162528715Y-75078320D01*
X161375000Y-73924605D01*
X160221285Y-75078320D01*
X159575500Y-75078320D01*
X159575500Y-74350898D01*
X159748877Y-74769467D01*
X160041680Y-74898715D01*
X161195395Y-73745000D01*
X161554605Y-73745000D01*
X162708320Y-74898715D01*
X163001123Y-74769467D01*
X163269388Y-74069194D01*
X163249250Y-73319565D01*
X163001123Y-72720533D01*
X162708320Y-72591285D01*
X161554605Y-73745000D01*
X161195395Y-73745000D01*
X160041680Y-72591285D01*
X159748877Y-72720533D01*
X159575500Y-73173112D01*
X159575500Y-72547432D01*
X159674655Y-72506462D01*
X159769602Y-72411680D01*
X160221285Y-72411680D01*
X161375000Y-73565395D01*
X162528715Y-72411680D01*
X162399467Y-72118877D01*
X161699194Y-71850612D01*
X160949565Y-71870750D01*
X160350533Y-72118877D01*
X160221285Y-72411680D01*
X159769602Y-72411680D01*
X160134846Y-72047073D01*
X160384206Y-71446547D01*
X160384774Y-70796306D01*
X160136462Y-70195345D01*
X159770077Y-69828320D01*
X160221285Y-69828320D01*
X160350533Y-70121123D01*
X161050806Y-70389388D01*
X161800435Y-70369250D01*
X162399467Y-70121123D01*
X162528715Y-69828320D01*
X161375000Y-68674605D01*
X160221285Y-69828320D01*
X159770077Y-69828320D01*
X159677073Y-69735154D01*
X159076547Y-69485794D01*
X158426306Y-69485226D01*
X157825345Y-69733538D01*
X157365154Y-70192927D01*
X157115794Y-70793453D01*
X157115226Y-71443694D01*
X157363538Y-72044655D01*
X157822927Y-72504846D01*
X157924500Y-72547023D01*
X157924500Y-73139102D01*
X157751123Y-72720533D01*
X157458320Y-72591285D01*
X156304605Y-73745000D01*
X157458320Y-74898715D01*
X157751123Y-74769467D01*
X157924500Y-74316888D01*
X157924500Y-75223067D01*
X157214560Y-75933006D01*
X156951057Y-76041883D01*
X156919886Y-76073000D01*
X153797000Y-76073000D01*
X153797000Y-75078320D01*
X154971285Y-75078320D01*
X155100533Y-75371123D01*
X155800806Y-75639388D01*
X156550435Y-75619250D01*
X157149467Y-75371123D01*
X157278715Y-75078320D01*
X156125000Y-73924605D01*
X154971285Y-75078320D01*
X153797000Y-75078320D01*
X153797000Y-73420806D01*
X154230612Y-73420806D01*
X154250750Y-74170435D01*
X154498877Y-74769467D01*
X154791680Y-74898715D01*
X155945395Y-73745000D01*
X154791680Y-72591285D01*
X154498877Y-72720533D01*
X154230612Y-73420806D01*
X153797000Y-73420806D01*
X153797000Y-72411680D01*
X154971285Y-72411680D01*
X156125000Y-73565395D01*
X157278715Y-72411680D01*
X157149467Y-72118877D01*
X156449194Y-71850612D01*
X155699565Y-71870750D01*
X155100533Y-72118877D01*
X154971285Y-72411680D01*
X153797000Y-72411680D01*
X153797000Y-69828320D01*
X154971285Y-69828320D01*
X155100533Y-70121123D01*
X155800806Y-70389388D01*
X156550435Y-70369250D01*
X157149467Y-70121123D01*
X157278715Y-69828320D01*
X156125000Y-68674605D01*
X154971285Y-69828320D01*
X153797000Y-69828320D01*
X153797000Y-68170806D01*
X154230612Y-68170806D01*
X154250750Y-68920435D01*
X154498877Y-69519467D01*
X154791680Y-69648715D01*
X155945395Y-68495000D01*
X156304605Y-68495000D01*
X157458320Y-69648715D01*
X157751123Y-69519467D01*
X158019388Y-68819194D01*
X158001970Y-68170806D01*
X159480612Y-68170806D01*
X159500750Y-68920435D01*
X159748877Y-69519467D01*
X160041680Y-69648715D01*
X161195395Y-68495000D01*
X161554605Y-68495000D01*
X162708320Y-69648715D01*
X163001123Y-69519467D01*
X163269388Y-68819194D01*
X163249250Y-68069565D01*
X163001123Y-67470533D01*
X162708320Y-67341285D01*
X161554605Y-68495000D01*
X161195395Y-68495000D01*
X160041680Y-67341285D01*
X159748877Y-67470533D01*
X159480612Y-68170806D01*
X158001970Y-68170806D01*
X157999250Y-68069565D01*
X157751123Y-67470533D01*
X157458320Y-67341285D01*
X156304605Y-68495000D01*
X155945395Y-68495000D01*
X154791680Y-67341285D01*
X154498877Y-67470533D01*
X154230612Y-68170806D01*
X153797000Y-68170806D01*
X153797000Y-67161680D01*
X154971285Y-67161680D01*
X156125000Y-68315395D01*
X157278715Y-67161680D01*
X160221285Y-67161680D01*
X161375000Y-68315395D01*
X162528715Y-67161680D01*
X162399467Y-66868877D01*
X161699194Y-66600612D01*
X160949565Y-66620750D01*
X160350533Y-66868877D01*
X160221285Y-67161680D01*
X157278715Y-67161680D01*
X157149467Y-66868877D01*
X156449194Y-66600612D01*
X155699565Y-66620750D01*
X155100533Y-66868877D01*
X154971285Y-67161680D01*
X153797000Y-67161680D01*
X153797000Y-66167000D01*
X163703000Y-66167000D01*
X163703000Y-76073000D01*
X163703000Y-76073000D01*
G37*
X163703000Y-76073000D02*
X159384309Y-76073000D01*
X159499796Y-75900162D01*
X159512663Y-75880906D01*
X159575500Y-75565000D01*
X159575500Y-75078320D01*
X160221285Y-75078320D01*
X160350533Y-75371123D01*
X161050806Y-75639388D01*
X161800435Y-75619250D01*
X162399467Y-75371123D01*
X162528715Y-75078320D01*
X161375000Y-73924605D01*
X160221285Y-75078320D01*
X159575500Y-75078320D01*
X159575500Y-74350898D01*
X159748877Y-74769467D01*
X160041680Y-74898715D01*
X161195395Y-73745000D01*
X161554605Y-73745000D01*
X162708320Y-74898715D01*
X163001123Y-74769467D01*
X163269388Y-74069194D01*
X163249250Y-73319565D01*
X163001123Y-72720533D01*
X162708320Y-72591285D01*
X161554605Y-73745000D01*
X161195395Y-73745000D01*
X160041680Y-72591285D01*
X159748877Y-72720533D01*
X159575500Y-73173112D01*
X159575500Y-72547432D01*
X159674655Y-72506462D01*
X159769602Y-72411680D01*
X160221285Y-72411680D01*
X161375000Y-73565395D01*
X162528715Y-72411680D01*
X162399467Y-72118877D01*
X161699194Y-71850612D01*
X160949565Y-71870750D01*
X160350533Y-72118877D01*
X160221285Y-72411680D01*
X159769602Y-72411680D01*
X160134846Y-72047073D01*
X160384206Y-71446547D01*
X160384774Y-70796306D01*
X160136462Y-70195345D01*
X159770077Y-69828320D01*
X160221285Y-69828320D01*
X160350533Y-70121123D01*
X161050806Y-70389388D01*
X161800435Y-70369250D01*
X162399467Y-70121123D01*
X162528715Y-69828320D01*
X161375000Y-68674605D01*
X160221285Y-69828320D01*
X159770077Y-69828320D01*
X159677073Y-69735154D01*
X159076547Y-69485794D01*
X158426306Y-69485226D01*
X157825345Y-69733538D01*
X157365154Y-70192927D01*
X157115794Y-70793453D01*
X157115226Y-71443694D01*
X157363538Y-72044655D01*
X157822927Y-72504846D01*
X157924500Y-72547023D01*
X157924500Y-73139102D01*
X157751123Y-72720533D01*
X157458320Y-72591285D01*
X156304605Y-73745000D01*
X157458320Y-74898715D01*
X157751123Y-74769467D01*
X157924500Y-74316888D01*
X157924500Y-75223067D01*
X157214560Y-75933006D01*
X156951057Y-76041883D01*
X156919886Y-76073000D01*
X153797000Y-76073000D01*
X153797000Y-75078320D01*
X154971285Y-75078320D01*
X155100533Y-75371123D01*
X155800806Y-75639388D01*
X156550435Y-75619250D01*
X157149467Y-75371123D01*
X157278715Y-75078320D01*
X156125000Y-73924605D01*
X154971285Y-75078320D01*
X153797000Y-75078320D01*
X153797000Y-73420806D01*
X154230612Y-73420806D01*
X154250750Y-74170435D01*
X154498877Y-74769467D01*
X154791680Y-74898715D01*
X155945395Y-73745000D01*
X154791680Y-72591285D01*
X154498877Y-72720533D01*
X154230612Y-73420806D01*
X153797000Y-73420806D01*
X153797000Y-72411680D01*
X154971285Y-72411680D01*
X156125000Y-73565395D01*
X157278715Y-72411680D01*
X157149467Y-72118877D01*
X156449194Y-71850612D01*
X155699565Y-71870750D01*
X155100533Y-72118877D01*
X154971285Y-72411680D01*
X153797000Y-72411680D01*
X153797000Y-69828320D01*
X154971285Y-69828320D01*
X155100533Y-70121123D01*
X155800806Y-70389388D01*
X156550435Y-70369250D01*
X157149467Y-70121123D01*
X157278715Y-69828320D01*
X156125000Y-68674605D01*
X154971285Y-69828320D01*
X153797000Y-69828320D01*
X153797000Y-68170806D01*
X154230612Y-68170806D01*
X154250750Y-68920435D01*
X154498877Y-69519467D01*
X154791680Y-69648715D01*
X155945395Y-68495000D01*
X156304605Y-68495000D01*
X157458320Y-69648715D01*
X157751123Y-69519467D01*
X158019388Y-68819194D01*
X158001970Y-68170806D01*
X159480612Y-68170806D01*
X159500750Y-68920435D01*
X159748877Y-69519467D01*
X160041680Y-69648715D01*
X161195395Y-68495000D01*
X161554605Y-68495000D01*
X162708320Y-69648715D01*
X163001123Y-69519467D01*
X163269388Y-68819194D01*
X163249250Y-68069565D01*
X163001123Y-67470533D01*
X162708320Y-67341285D01*
X161554605Y-68495000D01*
X161195395Y-68495000D01*
X160041680Y-67341285D01*
X159748877Y-67470533D01*
X159480612Y-68170806D01*
X158001970Y-68170806D01*
X157999250Y-68069565D01*
X157751123Y-67470533D01*
X157458320Y-67341285D01*
X156304605Y-68495000D01*
X155945395Y-68495000D01*
X154791680Y-67341285D01*
X154498877Y-67470533D01*
X154230612Y-68170806D01*
X153797000Y-68170806D01*
X153797000Y-67161680D01*
X154971285Y-67161680D01*
X156125000Y-68315395D01*
X157278715Y-67161680D01*
X160221285Y-67161680D01*
X161375000Y-68315395D01*
X162528715Y-67161680D01*
X162399467Y-66868877D01*
X161699194Y-66600612D01*
X160949565Y-66620750D01*
X160350533Y-66868877D01*
X160221285Y-67161680D01*
X157278715Y-67161680D01*
X157149467Y-66868877D01*
X156449194Y-66600612D01*
X155699565Y-66620750D01*
X155100533Y-66868877D01*
X154971285Y-67161680D01*
X153797000Y-67161680D01*
X153797000Y-66167000D01*
X163703000Y-66167000D01*
X163703000Y-76073000D01*
G36*
X152908000Y-50895765D02*
X152858569Y-50968110D01*
X152836699Y-51076107D01*
X152531924Y-50798355D01*
X152121890Y-50628524D01*
X151892000Y-50749845D01*
X151892000Y-51943000D01*
X151912000Y-51943000D01*
X151912000Y-52197000D01*
X151892000Y-52197000D01*
X151892000Y-53390155D01*
X152121890Y-53511476D01*
X152531924Y-53341645D01*
X152834937Y-53065499D01*
X152851838Y-53155317D01*
X152908000Y-53242595D01*
X152908000Y-54483000D01*
X148717000Y-54483000D01*
X148717000Y-52426892D01*
X150323514Y-52426892D01*
X150569817Y-52951358D01*
X150998076Y-53341645D01*
X151408110Y-53511476D01*
X151638000Y-53390155D01*
X151638000Y-52197000D01*
X150444181Y-52197000D01*
X150323514Y-52426892D01*
X148717000Y-52426892D01*
X148717000Y-51713108D01*
X150323514Y-51713108D01*
X150444181Y-51943000D01*
X151638000Y-51943000D01*
X151638000Y-50749845D01*
X151408110Y-50628524D01*
X150998076Y-50798355D01*
X150569817Y-51188642D01*
X150323514Y-51713108D01*
X148717000Y-51713108D01*
X148717000Y-49657000D01*
X152908000Y-49657000D01*
X152908000Y-50895765D01*
X152908000Y-50895765D01*
G37*
X152908000Y-50895765D02*
X152858569Y-50968110D01*
X152836699Y-51076107D01*
X152531924Y-50798355D01*
X152121890Y-50628524D01*
X151892000Y-50749845D01*
X151892000Y-51943000D01*
X151912000Y-51943000D01*
X151912000Y-52197000D01*
X151892000Y-52197000D01*
X151892000Y-53390155D01*
X152121890Y-53511476D01*
X152531924Y-53341645D01*
X152834937Y-53065499D01*
X152851838Y-53155317D01*
X152908000Y-53242595D01*
X152908000Y-54483000D01*
X148717000Y-54483000D01*
X148717000Y-52426892D01*
X150323514Y-52426892D01*
X150569817Y-52951358D01*
X150998076Y-53341645D01*
X151408110Y-53511476D01*
X151638000Y-53390155D01*
X151638000Y-52197000D01*
X150444181Y-52197000D01*
X150323514Y-52426892D01*
X148717000Y-52426892D01*
X148717000Y-51713108D01*
X150323514Y-51713108D01*
X150444181Y-51943000D01*
X151638000Y-51943000D01*
X151638000Y-50749845D01*
X151408110Y-50628524D01*
X150998076Y-50798355D01*
X150569817Y-51188642D01*
X150323514Y-51713108D01*
X148717000Y-51713108D01*
X148717000Y-49657000D01*
X152908000Y-49657000D01*
X152908000Y-50895765D01*
M02*
