G04 #@! TF.FileFunction,Copper,L2,Bot,Signal*
%FSLAX46Y46*%
G04 Gerber Fmt 4.6, Leading zero omitted, Abs format (unit mm)*
G04 Created by KiCad (PCBNEW 4.0.6) date Thursday, July 13, 2017 'PMt' 02:05:31 PM*
%MOMM*%
%LPD*%
G01*
G04 APERTURE LIST*
%ADD10C,0.100000*%
%ADD11C,1.524000*%
%ADD12R,1.800000X1.800000*%
%ADD13C,1.800000*%
%ADD14R,1.700000X1.700000*%
%ADD15O,1.700000X1.700000*%
%ADD16C,1.998980*%
%ADD17C,2.500000*%
%ADD18R,1.600000X1.600000*%
%ADD19O,1.600000X1.600000*%
%ADD20C,1.270000*%
%ADD21C,0.762000*%
%ADD22C,0.762000*%
%ADD23C,0.381000*%
%ADD24C,0.254000*%
G04 APERTURE END LIST*
D10*
D11*
X164592000Y-53086000D03*
X164592000Y-55626000D03*
X164592000Y-50546000D03*
D12*
X159385000Y-60960000D03*
D13*
X161925000Y-60960000D03*
D14*
X166370000Y-120015000D03*
D15*
X168910000Y-120015000D03*
X171450000Y-120015000D03*
X173990000Y-120015000D03*
X176530000Y-120015000D03*
X179070000Y-120015000D03*
D14*
X166370000Y-124460000D03*
D15*
X168910000Y-124460000D03*
X171450000Y-124460000D03*
X173990000Y-124460000D03*
X176530000Y-124460000D03*
X179070000Y-124460000D03*
D14*
X154305000Y-52070000D03*
D15*
X151765000Y-52070000D03*
D14*
X177800000Y-83185000D03*
D15*
X177800000Y-85725000D03*
D16*
X158750000Y-71120000D03*
D17*
X161375000Y-68495000D03*
X156125000Y-68495000D03*
X161375000Y-73745000D03*
X156125000Y-73745000D03*
D14*
X157480000Y-83820000D03*
D15*
X160020000Y-83820000D03*
D14*
X189230000Y-57150000D03*
D15*
X191770000Y-57150000D03*
X189230000Y-59690000D03*
X191770000Y-59690000D03*
X189230000Y-62230000D03*
X191770000Y-62230000D03*
X189230000Y-64770000D03*
X191770000Y-64770000D03*
X189230000Y-67310000D03*
X191770000Y-67310000D03*
X189230000Y-69850000D03*
X191770000Y-69850000D03*
X189230000Y-72390000D03*
X191770000Y-72390000D03*
X189230000Y-74930000D03*
X191770000Y-74930000D03*
X189230000Y-77470000D03*
X191770000Y-77470000D03*
X189230000Y-80010000D03*
X191770000Y-80010000D03*
D14*
X143510000Y-66294000D03*
D15*
X146050000Y-66294000D03*
X143510000Y-68834000D03*
X146050000Y-68834000D03*
X143510000Y-71374000D03*
X146050000Y-71374000D03*
X143510000Y-73914000D03*
X146050000Y-73914000D03*
X143510000Y-76454000D03*
X146050000Y-76454000D03*
X143510000Y-78994000D03*
X146050000Y-78994000D03*
X143510000Y-81534000D03*
X146050000Y-81534000D03*
X143510000Y-84074000D03*
X146050000Y-84074000D03*
D14*
X143510000Y-89154000D03*
D15*
X146050000Y-89154000D03*
X143510000Y-91694000D03*
X146050000Y-91694000D03*
X143510000Y-94234000D03*
X146050000Y-94234000D03*
X143510000Y-96774000D03*
X146050000Y-96774000D03*
X143510000Y-99314000D03*
X146050000Y-99314000D03*
X143510000Y-101854000D03*
X146050000Y-101854000D03*
X143510000Y-104394000D03*
X146050000Y-104394000D03*
X143510000Y-106934000D03*
X146050000Y-106934000D03*
X143510000Y-109474000D03*
X146050000Y-109474000D03*
X143510000Y-112014000D03*
X146050000Y-112014000D03*
X143510000Y-114554000D03*
X146050000Y-114554000D03*
X143510000Y-117094000D03*
X146050000Y-117094000D03*
X143510000Y-119634000D03*
X146050000Y-119634000D03*
X143510000Y-122174000D03*
X146050000Y-122174000D03*
X143510000Y-124714000D03*
X146050000Y-124714000D03*
D14*
X189230000Y-84074000D03*
D15*
X191770000Y-84074000D03*
X189230000Y-86614000D03*
X191770000Y-86614000D03*
X189230000Y-89154000D03*
X191770000Y-89154000D03*
X189230000Y-91694000D03*
X191770000Y-91694000D03*
X189230000Y-94234000D03*
X191770000Y-94234000D03*
X189230000Y-96774000D03*
X191770000Y-96774000D03*
X189230000Y-99314000D03*
X191770000Y-99314000D03*
X189230000Y-101854000D03*
X191770000Y-101854000D03*
X189230000Y-104394000D03*
X191770000Y-104394000D03*
X189230000Y-106934000D03*
X191770000Y-106934000D03*
X189230000Y-109474000D03*
X191770000Y-109474000D03*
X189230000Y-112014000D03*
X191770000Y-112014000D03*
X189230000Y-114554000D03*
X191770000Y-114554000D03*
X189230000Y-117094000D03*
X191770000Y-117094000D03*
X189230000Y-119634000D03*
X191770000Y-119634000D03*
X189230000Y-122174000D03*
X191770000Y-122174000D03*
X189230000Y-124714000D03*
X191770000Y-124714000D03*
D14*
X173355000Y-99060000D03*
D15*
X173355000Y-96520000D03*
D18*
X157353000Y-79883000D03*
D19*
X164973000Y-79883000D03*
D20*
X161651236Y-50938904D03*
X156210000Y-50165000D03*
X158750000Y-114300000D03*
D21*
X162532799Y-75778414D03*
X163377940Y-75045958D03*
X163377940Y-73721904D03*
X163377942Y-68566543D03*
X154081390Y-73665561D03*
X154025045Y-68482029D03*
X156194238Y-66425519D03*
X167640000Y-52070000D03*
X152146000Y-50292000D03*
X150622000Y-50292000D03*
X149225000Y-50292000D03*
X149225000Y-51689000D03*
X149225000Y-52959000D03*
X151257000Y-54102000D03*
X152400000Y-53975000D03*
X193294000Y-82931000D03*
X193294000Y-68707000D03*
X176530000Y-122174000D03*
X148590000Y-89535000D03*
X175260000Y-85725000D03*
X175260000Y-97155000D03*
X161290000Y-66675000D03*
X162560000Y-66675000D03*
X163195000Y-67310000D03*
X163195000Y-69850000D03*
X163195000Y-71120000D03*
X163195000Y-72390000D03*
X161290000Y-75565000D03*
X160020000Y-75565000D03*
X157480000Y-75565000D03*
X156210000Y-75565000D03*
X154940000Y-75565000D03*
X154305000Y-74930000D03*
X154305000Y-72390000D03*
X154305000Y-71120000D03*
X154305000Y-69850000D03*
X154305000Y-67310000D03*
X154940000Y-66675000D03*
X160020000Y-66675000D03*
X158750000Y-66675000D03*
X157480000Y-66675000D03*
X157480000Y-60960000D03*
X171450000Y-56515000D03*
X171450000Y-53975000D03*
X167767000Y-55626000D03*
X173355000Y-56515000D03*
X173355000Y-52070000D03*
X180467000Y-53848000D03*
X180467000Y-52705000D03*
X179451000Y-52070000D03*
X178181000Y-52070000D03*
X178181000Y-52070000D03*
X177038000Y-52070000D03*
X175641000Y-52070000D03*
X177165000Y-102870000D03*
X168910000Y-76200000D03*
X158496000Y-81661000D03*
X164973000Y-78232000D03*
X163830000Y-59690000D03*
D20*
X160655000Y-115316000D03*
X148590000Y-106045000D03*
D21*
X175895000Y-83185000D03*
X157404827Y-77475873D03*
X175006000Y-112395000D03*
X153162000Y-85852000D03*
X187365375Y-81964127D03*
X184785000Y-113665000D03*
X175260000Y-107315000D03*
X174180973Y-108467251D03*
X186944000Y-59690000D03*
X171450000Y-118110000D03*
X173990000Y-118110000D03*
D22*
X162044140Y-50546000D02*
X161651236Y-50938904D01*
X164592000Y-50546000D02*
X162044140Y-50546000D01*
X158115001Y-113665001D02*
X158750000Y-114300000D01*
X149957685Y-105507685D02*
X158115001Y-113665001D01*
X154305000Y-54610000D02*
X149957685Y-58957315D01*
X154305000Y-52070000D02*
X154305000Y-54610000D01*
X149957685Y-58957315D02*
X149957685Y-105507685D01*
X154305000Y-52070000D02*
X156210000Y-50165000D01*
D23*
X162645484Y-75778414D02*
X162532799Y-75778414D01*
X163377940Y-75045958D02*
X162645484Y-75778414D01*
X163195000Y-73538964D02*
X163377940Y-73721904D01*
X163195000Y-72390000D02*
X163195000Y-73538964D01*
X163195000Y-68383601D02*
X163377942Y-68566543D01*
X163195000Y-67310000D02*
X163195000Y-68383601D01*
X154305000Y-73441951D02*
X154081390Y-73665561D01*
X154305000Y-72390000D02*
X154305000Y-73441951D01*
X154305000Y-68761984D02*
X154025045Y-68482029D01*
X154305000Y-69850000D02*
X154305000Y-68761984D01*
X156125000Y-66494757D02*
X156194238Y-66425519D01*
X156125000Y-68495000D02*
X156125000Y-66494757D01*
X164592000Y-53086000D02*
X166624000Y-53086000D01*
X166624000Y-53086000D02*
X167640000Y-52070000D01*
X151765000Y-52070000D02*
X151765000Y-50673000D01*
X151765000Y-50673000D02*
X152146000Y-50292000D01*
X151765000Y-52070000D02*
X151765000Y-51435000D01*
X151765000Y-51435000D02*
X150622000Y-50292000D01*
X151765000Y-52070000D02*
X151003000Y-52070000D01*
X151003000Y-52070000D02*
X149225000Y-50292000D01*
X151765000Y-52070000D02*
X149606000Y-52070000D01*
X149606000Y-52070000D02*
X149225000Y-51689000D01*
X151765000Y-52070000D02*
X150114000Y-52070000D01*
X150114000Y-52070000D02*
X149225000Y-52959000D01*
X151765000Y-52070000D02*
X151765000Y-53594000D01*
X151765000Y-53594000D02*
X151257000Y-54102000D01*
X151765000Y-52070000D02*
X151765000Y-53340000D01*
X151765000Y-53340000D02*
X152400000Y-53975000D01*
X193375589Y-81026000D02*
X193160125Y-81026000D01*
X193160125Y-81026000D02*
X192271125Y-81915000D01*
X192271125Y-81915000D02*
X188468000Y-81915000D01*
X193375589Y-81026000D02*
X193375589Y-82849411D01*
X193375589Y-68788589D02*
X193375589Y-81026000D01*
X193294000Y-68707000D02*
X193375589Y-68788589D01*
X193375589Y-82849411D02*
X193294000Y-82931000D01*
X176530000Y-120015000D02*
X176530000Y-122174000D01*
X148590000Y-55245000D02*
X148590000Y-89535000D01*
X151765000Y-52070000D02*
X148590000Y-55245000D01*
X177800000Y-85725000D02*
X175260000Y-85725000D01*
X173355000Y-96520000D02*
X174625000Y-96520000D01*
X174625000Y-96520000D02*
X175260000Y-97155000D01*
X162560000Y-66675000D02*
X161290000Y-66675000D01*
X163195000Y-71120000D02*
X163195000Y-69850000D01*
X160020000Y-75565000D02*
X161290000Y-75565000D01*
X154940000Y-75565000D02*
X156210000Y-75565000D01*
X154940000Y-66675000D02*
X154305000Y-67310000D01*
X158750000Y-66675000D02*
X160020000Y-66675000D01*
X156125000Y-68495000D02*
X156125000Y-68030000D01*
X156125000Y-68030000D02*
X157480000Y-66675000D01*
X159385000Y-60960000D02*
X157480000Y-60960000D01*
X171450000Y-53975000D02*
X171450000Y-56515000D01*
X164592000Y-55626000D02*
X155194000Y-55626000D01*
X155194000Y-55626000D02*
X151717963Y-59102037D01*
X164592000Y-55626000D02*
X167767000Y-55626000D01*
X168910000Y-120015000D02*
X168910000Y-118738261D01*
X165796387Y-118171387D02*
X151717963Y-104092963D01*
X168910000Y-118738261D02*
X168343126Y-118171387D01*
X168343126Y-118171387D02*
X165796387Y-118171387D01*
X151717963Y-104092963D02*
X151717963Y-59102037D01*
X173355000Y-52070000D02*
X173355000Y-56515000D01*
X158496000Y-81661000D02*
X158496000Y-82804000D01*
X158496000Y-82804000D02*
X157480000Y-83820000D01*
X157353000Y-79883000D02*
X157353000Y-83693000D01*
X157353000Y-83693000D02*
X157480000Y-83820000D01*
X164973000Y-79883000D02*
X164973000Y-78232000D01*
X163830000Y-59690000D02*
X163195000Y-59690000D01*
X163195000Y-59690000D02*
X161925000Y-60960000D01*
D22*
X160655000Y-115316000D02*
X160655000Y-120357000D01*
X160655000Y-120357000D02*
X164758000Y-124460000D01*
X164758000Y-124460000D02*
X166370000Y-124460000D01*
X148590000Y-106045000D02*
X148590000Y-116205000D01*
X148590000Y-116205000D02*
X158765510Y-126380510D01*
X177149490Y-126380510D02*
X178220001Y-125309999D01*
X158765510Y-126380510D02*
X177149490Y-126380510D01*
X178220001Y-125309999D02*
X179070000Y-124460000D01*
D23*
X175895000Y-83185000D02*
X177800000Y-83185000D01*
X157785826Y-77094874D02*
X157404827Y-77475873D01*
X158750000Y-71120000D02*
X158750000Y-76130700D01*
X158750000Y-76130700D02*
X157785826Y-77094874D01*
X153162000Y-85852000D02*
X153162000Y-101428601D01*
X153162000Y-101428601D02*
X164128399Y-112395000D01*
X164128399Y-112395000D02*
X175006000Y-112395000D01*
X184785000Y-113665000D02*
X186656184Y-111793816D01*
X186656184Y-111793816D02*
X186656184Y-82673318D01*
X186656184Y-82673318D02*
X187065376Y-82264126D01*
X187065376Y-82264126D02*
X187365375Y-81964127D01*
X175260000Y-107315000D02*
X175260000Y-99734000D01*
X175260000Y-99734000D02*
X174586000Y-99060000D01*
X174586000Y-99060000D02*
X173355000Y-99060000D01*
X174605237Y-108467251D02*
X174180973Y-108467251D01*
X179060749Y-108467251D02*
X174605237Y-108467251D01*
X184022990Y-103505010D02*
X179060749Y-108467251D01*
X184022990Y-62611010D02*
X184022990Y-103505010D01*
X186944000Y-59690000D02*
X184022990Y-62611010D01*
X171450000Y-118110000D02*
X171450000Y-120015000D01*
X173990000Y-118110000D02*
X173990000Y-120015000D01*
D24*
G36*
X193600000Y-52263668D02*
X193037679Y-51700364D01*
X192216519Y-51359389D01*
X191327381Y-51358613D01*
X190505628Y-51698155D01*
X189876364Y-52326321D01*
X189535389Y-53147481D01*
X189534613Y-54036619D01*
X189874155Y-54858372D01*
X190502321Y-55487636D01*
X191192275Y-55774130D01*
X191172622Y-55778039D01*
X190690853Y-56099946D01*
X190690029Y-56101179D01*
X190683162Y-56064683D01*
X190544090Y-55848559D01*
X190331890Y-55703569D01*
X190080000Y-55652560D01*
X188380000Y-55652560D01*
X188144683Y-55696838D01*
X187928559Y-55835910D01*
X187783569Y-56048110D01*
X187732560Y-56300000D01*
X187732560Y-58000000D01*
X187776838Y-58235317D01*
X187915910Y-58451441D01*
X188128110Y-58596431D01*
X188195541Y-58610086D01*
X188150853Y-58639946D01*
X187828946Y-59121715D01*
X187822303Y-59155113D01*
X187805825Y-59115234D01*
X187520269Y-58829179D01*
X187146982Y-58674176D01*
X186742792Y-58673824D01*
X186369234Y-58828175D01*
X186083179Y-59113731D01*
X185928176Y-59487018D01*
X185928131Y-59538435D01*
X183439273Y-62027293D01*
X183260327Y-62295104D01*
X183228237Y-62456431D01*
X183197490Y-62611010D01*
X183197490Y-103163077D01*
X178718815Y-107641751D01*
X176224430Y-107641751D01*
X176275824Y-107517982D01*
X176276176Y-107113792D01*
X176121825Y-106740234D01*
X176085500Y-106703846D01*
X176085500Y-99734005D01*
X176085501Y-99734000D01*
X176022663Y-99418094D01*
X175843717Y-99150283D01*
X175169717Y-98476283D01*
X174901906Y-98297337D01*
X174852440Y-98287498D01*
X174852440Y-98210000D01*
X174827105Y-98075355D01*
X175057018Y-98170824D01*
X175461208Y-98171176D01*
X175834766Y-98016825D01*
X176120821Y-97731269D01*
X176275824Y-97357982D01*
X176276176Y-96953792D01*
X176121825Y-96580234D01*
X175836269Y-96294179D01*
X175462982Y-96139176D01*
X175411565Y-96139131D01*
X175208717Y-95936283D01*
X174940906Y-95757337D01*
X174625000Y-95694500D01*
X174584189Y-95694500D01*
X174434147Y-95469946D01*
X173952378Y-95148039D01*
X173384093Y-95035000D01*
X173325907Y-95035000D01*
X172757622Y-95148039D01*
X172275853Y-95469946D01*
X171953946Y-95951715D01*
X171840907Y-96520000D01*
X171953946Y-97088285D01*
X172275853Y-97570054D01*
X172317452Y-97597850D01*
X172269683Y-97606838D01*
X172053559Y-97745910D01*
X171908569Y-97958110D01*
X171857560Y-98210000D01*
X171857560Y-99910000D01*
X171901838Y-100145317D01*
X172040910Y-100361441D01*
X172253110Y-100506431D01*
X172505000Y-100557440D01*
X174205000Y-100557440D01*
X174434500Y-100514257D01*
X174434500Y-106703472D01*
X174399179Y-106738731D01*
X174244176Y-107112018D01*
X174243881Y-107451305D01*
X173979765Y-107451075D01*
X173606207Y-107605426D01*
X173320152Y-107890982D01*
X173165149Y-108264269D01*
X173164797Y-108668459D01*
X173319148Y-109042017D01*
X173604704Y-109328072D01*
X173977991Y-109483075D01*
X174382181Y-109483427D01*
X174755739Y-109329076D01*
X174792127Y-109292751D01*
X179060749Y-109292751D01*
X179376655Y-109229914D01*
X179644466Y-109050968D01*
X184606704Y-104088729D01*
X184606707Y-104088727D01*
X184785653Y-103820915D01*
X184794377Y-103777057D01*
X184848491Y-103505010D01*
X184848490Y-103505005D01*
X184848490Y-62952944D01*
X187095301Y-60706133D01*
X187145208Y-60706176D01*
X187518766Y-60551825D01*
X187804821Y-60266269D01*
X187822206Y-60224401D01*
X187828946Y-60258285D01*
X188150853Y-60740054D01*
X188480026Y-60960000D01*
X188150853Y-61179946D01*
X187828946Y-61661715D01*
X187715907Y-62230000D01*
X187828946Y-62798285D01*
X188150853Y-63280054D01*
X188480026Y-63500000D01*
X188150853Y-63719946D01*
X187828946Y-64201715D01*
X187715907Y-64770000D01*
X187828946Y-65338285D01*
X188150853Y-65820054D01*
X188480026Y-66040000D01*
X188150853Y-66259946D01*
X187828946Y-66741715D01*
X187715907Y-67310000D01*
X187828946Y-67878285D01*
X188150853Y-68360054D01*
X188480026Y-68580000D01*
X188150853Y-68799946D01*
X187828946Y-69281715D01*
X187715907Y-69850000D01*
X187828946Y-70418285D01*
X188150853Y-70900054D01*
X188480026Y-71120000D01*
X188150853Y-71339946D01*
X187828946Y-71821715D01*
X187715907Y-72390000D01*
X187828946Y-72958285D01*
X188150853Y-73440054D01*
X188480026Y-73660000D01*
X188150853Y-73879946D01*
X187828946Y-74361715D01*
X187715907Y-74930000D01*
X187828946Y-75498285D01*
X188150853Y-75980054D01*
X188480026Y-76200000D01*
X188150853Y-76419946D01*
X187828946Y-76901715D01*
X187715907Y-77470000D01*
X187828946Y-78038285D01*
X188150853Y-78520054D01*
X188480026Y-78740000D01*
X188150853Y-78959946D01*
X187828946Y-79441715D01*
X187715907Y-80010000D01*
X187828946Y-80578285D01*
X188150853Y-81060054D01*
X188257567Y-81131358D01*
X188152095Y-81152337D01*
X188055212Y-81217072D01*
X187941644Y-81103306D01*
X187568357Y-80948303D01*
X187164167Y-80947951D01*
X186790609Y-81102302D01*
X186504554Y-81387858D01*
X186349551Y-81761145D01*
X186349506Y-81812562D01*
X186072467Y-82089601D01*
X185893521Y-82357412D01*
X185849930Y-82576560D01*
X185830684Y-82673318D01*
X185830684Y-111451883D01*
X184633699Y-112648867D01*
X184583792Y-112648824D01*
X184210234Y-112803175D01*
X183924179Y-113088731D01*
X183769176Y-113462018D01*
X183768824Y-113866208D01*
X183923175Y-114239766D01*
X184208731Y-114525821D01*
X184582018Y-114680824D01*
X184986208Y-114681176D01*
X185359766Y-114526825D01*
X185645821Y-114241269D01*
X185800824Y-113867982D01*
X185800869Y-113816565D01*
X187239898Y-112377535D01*
X187239901Y-112377533D01*
X187418847Y-112109721D01*
X187437887Y-112014000D01*
X187481685Y-111793816D01*
X187481684Y-111793811D01*
X187481684Y-83015252D01*
X187516676Y-82980260D01*
X187566583Y-82980303D01*
X187861127Y-82858600D01*
X187783569Y-82972110D01*
X187732560Y-83224000D01*
X187732560Y-84924000D01*
X187776838Y-85159317D01*
X187915910Y-85375441D01*
X188128110Y-85520431D01*
X188195541Y-85534086D01*
X188150853Y-85563946D01*
X187828946Y-86045715D01*
X187715907Y-86614000D01*
X187828946Y-87182285D01*
X188150853Y-87664054D01*
X188480026Y-87884000D01*
X188150853Y-88103946D01*
X187828946Y-88585715D01*
X187715907Y-89154000D01*
X187828946Y-89722285D01*
X188150853Y-90204054D01*
X188480026Y-90424000D01*
X188150853Y-90643946D01*
X187828946Y-91125715D01*
X187715907Y-91694000D01*
X187828946Y-92262285D01*
X188150853Y-92744054D01*
X188480026Y-92964000D01*
X188150853Y-93183946D01*
X187828946Y-93665715D01*
X187715907Y-94234000D01*
X187828946Y-94802285D01*
X188150853Y-95284054D01*
X188480026Y-95504000D01*
X188150853Y-95723946D01*
X187828946Y-96205715D01*
X187715907Y-96774000D01*
X187828946Y-97342285D01*
X188150853Y-97824054D01*
X188480026Y-98044000D01*
X188150853Y-98263946D01*
X187828946Y-98745715D01*
X187715907Y-99314000D01*
X187828946Y-99882285D01*
X188150853Y-100364054D01*
X188480026Y-100584000D01*
X188150853Y-100803946D01*
X187828946Y-101285715D01*
X187715907Y-101854000D01*
X187828946Y-102422285D01*
X188150853Y-102904054D01*
X188480026Y-103124000D01*
X188150853Y-103343946D01*
X187828946Y-103825715D01*
X187715907Y-104394000D01*
X187828946Y-104962285D01*
X188150853Y-105444054D01*
X188480026Y-105664000D01*
X188150853Y-105883946D01*
X187828946Y-106365715D01*
X187715907Y-106934000D01*
X187828946Y-107502285D01*
X188150853Y-107984054D01*
X188480026Y-108204000D01*
X188150853Y-108423946D01*
X187828946Y-108905715D01*
X187715907Y-109474000D01*
X187828946Y-110042285D01*
X188150853Y-110524054D01*
X188480026Y-110744000D01*
X188150853Y-110963946D01*
X187828946Y-111445715D01*
X187715907Y-112014000D01*
X187828946Y-112582285D01*
X188150853Y-113064054D01*
X188480026Y-113284000D01*
X188150853Y-113503946D01*
X187828946Y-113985715D01*
X187715907Y-114554000D01*
X187828946Y-115122285D01*
X188150853Y-115604054D01*
X188480026Y-115824000D01*
X188150853Y-116043946D01*
X187828946Y-116525715D01*
X187715907Y-117094000D01*
X187828946Y-117662285D01*
X188150853Y-118144054D01*
X188480026Y-118364000D01*
X188150853Y-118583946D01*
X187828946Y-119065715D01*
X187715907Y-119634000D01*
X187828946Y-120202285D01*
X188150853Y-120684054D01*
X188480026Y-120904000D01*
X188150853Y-121123946D01*
X187828946Y-121605715D01*
X187715907Y-122174000D01*
X187828946Y-122742285D01*
X188150853Y-123224054D01*
X188480026Y-123444000D01*
X188150853Y-123663946D01*
X187828946Y-124145715D01*
X187715907Y-124714000D01*
X187828946Y-125282285D01*
X188150853Y-125764054D01*
X188632622Y-126085961D01*
X189200907Y-126199000D01*
X189259093Y-126199000D01*
X189827378Y-126085961D01*
X190309147Y-125764054D01*
X190500000Y-125478422D01*
X190690853Y-125764054D01*
X191172622Y-126085961D01*
X191740907Y-126199000D01*
X191799093Y-126199000D01*
X192367378Y-126085961D01*
X192849147Y-125764054D01*
X193171054Y-125282285D01*
X193284093Y-124714000D01*
X193171054Y-124145715D01*
X192849147Y-123663946D01*
X192519974Y-123444000D01*
X192849147Y-123224054D01*
X193171054Y-122742285D01*
X193284093Y-122174000D01*
X193171054Y-121605715D01*
X192849147Y-121123946D01*
X192519974Y-120904000D01*
X192849147Y-120684054D01*
X193171054Y-120202285D01*
X193284093Y-119634000D01*
X193171054Y-119065715D01*
X192849147Y-118583946D01*
X192519974Y-118364000D01*
X192849147Y-118144054D01*
X193171054Y-117662285D01*
X193284093Y-117094000D01*
X193171054Y-116525715D01*
X192849147Y-116043946D01*
X192519974Y-115824000D01*
X192849147Y-115604054D01*
X193171054Y-115122285D01*
X193284093Y-114554000D01*
X193171054Y-113985715D01*
X192849147Y-113503946D01*
X192519974Y-113284000D01*
X192849147Y-113064054D01*
X193171054Y-112582285D01*
X193284093Y-112014000D01*
X193171054Y-111445715D01*
X192849147Y-110963946D01*
X192519974Y-110744000D01*
X192849147Y-110524054D01*
X193171054Y-110042285D01*
X193284093Y-109474000D01*
X193171054Y-108905715D01*
X192849147Y-108423946D01*
X192519974Y-108204000D01*
X192849147Y-107984054D01*
X193171054Y-107502285D01*
X193284093Y-106934000D01*
X193171054Y-106365715D01*
X192849147Y-105883946D01*
X192519974Y-105664000D01*
X192849147Y-105444054D01*
X193171054Y-104962285D01*
X193284093Y-104394000D01*
X193171054Y-103825715D01*
X192849147Y-103343946D01*
X192519974Y-103124000D01*
X192849147Y-102904054D01*
X193171054Y-102422285D01*
X193284093Y-101854000D01*
X193171054Y-101285715D01*
X192849147Y-100803946D01*
X192519974Y-100584000D01*
X192849147Y-100364054D01*
X193171054Y-99882285D01*
X193284093Y-99314000D01*
X193171054Y-98745715D01*
X192849147Y-98263946D01*
X192519974Y-98044000D01*
X192849147Y-97824054D01*
X193171054Y-97342285D01*
X193284093Y-96774000D01*
X193171054Y-96205715D01*
X192849147Y-95723946D01*
X192519974Y-95504000D01*
X192849147Y-95284054D01*
X193171054Y-94802285D01*
X193284093Y-94234000D01*
X193171054Y-93665715D01*
X192849147Y-93183946D01*
X192519974Y-92964000D01*
X192849147Y-92744054D01*
X193171054Y-92262285D01*
X193284093Y-91694000D01*
X193171054Y-91125715D01*
X192849147Y-90643946D01*
X192519974Y-90424000D01*
X192849147Y-90204054D01*
X193171054Y-89722285D01*
X193284093Y-89154000D01*
X193171054Y-88585715D01*
X192849147Y-88103946D01*
X192519974Y-87884000D01*
X192849147Y-87664054D01*
X193171054Y-87182285D01*
X193284093Y-86614000D01*
X193171054Y-86045715D01*
X192849147Y-85563946D01*
X192519974Y-85344000D01*
X192849147Y-85124054D01*
X193171054Y-84642285D01*
X193284093Y-84074000D01*
X193258825Y-83946970D01*
X193495208Y-83947176D01*
X193600000Y-83903877D01*
X193600000Y-126290000D01*
X178676841Y-126290000D01*
X178938421Y-126028420D01*
X178938423Y-126028417D01*
X179005564Y-125961276D01*
X179070000Y-125974093D01*
X179638285Y-125861054D01*
X180120054Y-125539147D01*
X180441961Y-125057378D01*
X180555000Y-124489093D01*
X180555000Y-124430907D01*
X180441961Y-123862622D01*
X180120054Y-123380853D01*
X179638285Y-123058946D01*
X179070000Y-122945907D01*
X178501715Y-123058946D01*
X178019946Y-123380853D01*
X177800000Y-123710026D01*
X177580054Y-123380853D01*
X177098285Y-123058946D01*
X177064887Y-123052303D01*
X177104766Y-123035825D01*
X177390821Y-122750269D01*
X177545824Y-122376982D01*
X177546176Y-121972792D01*
X177391825Y-121599234D01*
X177355500Y-121562846D01*
X177355500Y-121244189D01*
X177580054Y-121094147D01*
X177800000Y-120764974D01*
X178019946Y-121094147D01*
X178501715Y-121416054D01*
X179070000Y-121529093D01*
X179638285Y-121416054D01*
X180120054Y-121094147D01*
X180441961Y-120612378D01*
X180555000Y-120044093D01*
X180555000Y-119985907D01*
X180441961Y-119417622D01*
X180120054Y-118935853D01*
X179638285Y-118613946D01*
X179070000Y-118500907D01*
X178501715Y-118613946D01*
X178019946Y-118935853D01*
X177800000Y-119265026D01*
X177580054Y-118935853D01*
X177098285Y-118613946D01*
X176530000Y-118500907D01*
X175961715Y-118613946D01*
X175479946Y-118935853D01*
X175260000Y-119265026D01*
X175040054Y-118935853D01*
X174815500Y-118785811D01*
X174815500Y-118721528D01*
X174850821Y-118686269D01*
X175005824Y-118312982D01*
X175006176Y-117908792D01*
X174851825Y-117535234D01*
X174566269Y-117249179D01*
X174192982Y-117094176D01*
X173788792Y-117093824D01*
X173415234Y-117248175D01*
X173129179Y-117533731D01*
X172974176Y-117907018D01*
X172973824Y-118311208D01*
X173128175Y-118684766D01*
X173164500Y-118721154D01*
X173164500Y-118785811D01*
X172939946Y-118935853D01*
X172720000Y-119265026D01*
X172500054Y-118935853D01*
X172275500Y-118785811D01*
X172275500Y-118721528D01*
X172310821Y-118686269D01*
X172465824Y-118312982D01*
X172466176Y-117908792D01*
X172311825Y-117535234D01*
X172026269Y-117249179D01*
X171652982Y-117094176D01*
X171248792Y-117093824D01*
X170875234Y-117248175D01*
X170589179Y-117533731D01*
X170434176Y-117907018D01*
X170433824Y-118311208D01*
X170588175Y-118684766D01*
X170624500Y-118721154D01*
X170624500Y-118785811D01*
X170399946Y-118935853D01*
X170180000Y-119265026D01*
X169960054Y-118935853D01*
X169735500Y-118785811D01*
X169735500Y-118738266D01*
X169735501Y-118738261D01*
X169672663Y-118422355D01*
X169493717Y-118154544D01*
X168926843Y-117587670D01*
X168659032Y-117408724D01*
X168343126Y-117345887D01*
X166138321Y-117345887D01*
X152543463Y-103751029D01*
X152543463Y-101960206D01*
X152578283Y-102012318D01*
X163544682Y-112978717D01*
X163812493Y-113157663D01*
X164128399Y-113220500D01*
X174394472Y-113220500D01*
X174429731Y-113255821D01*
X174803018Y-113410824D01*
X175207208Y-113411176D01*
X175580766Y-113256825D01*
X175866821Y-112971269D01*
X176021824Y-112597982D01*
X176022176Y-112193792D01*
X175867825Y-111820234D01*
X175582269Y-111534179D01*
X175208982Y-111379176D01*
X174804792Y-111378824D01*
X174431234Y-111533175D01*
X174394846Y-111569500D01*
X164470333Y-111569500D01*
X153987500Y-101086667D01*
X153987500Y-86463528D01*
X154022821Y-86428269D01*
X154177824Y-86054982D01*
X154177936Y-85926208D01*
X174243824Y-85926208D01*
X174398175Y-86299766D01*
X174683731Y-86585821D01*
X175057018Y-86740824D01*
X175461208Y-86741176D01*
X175834766Y-86586825D01*
X175871154Y-86550500D01*
X176570811Y-86550500D01*
X176720853Y-86775054D01*
X177202622Y-87096961D01*
X177770907Y-87210000D01*
X177829093Y-87210000D01*
X178397378Y-87096961D01*
X178879147Y-86775054D01*
X179201054Y-86293285D01*
X179314093Y-85725000D01*
X179201054Y-85156715D01*
X178879147Y-84674946D01*
X178837548Y-84647150D01*
X178885317Y-84638162D01*
X179101441Y-84499090D01*
X179246431Y-84286890D01*
X179297440Y-84035000D01*
X179297440Y-82335000D01*
X179253162Y-82099683D01*
X179114090Y-81883559D01*
X178901890Y-81738569D01*
X178650000Y-81687560D01*
X176950000Y-81687560D01*
X176714683Y-81731838D01*
X176498559Y-81870910D01*
X176353569Y-82083110D01*
X176317667Y-82260398D01*
X176097982Y-82169176D01*
X175693792Y-82168824D01*
X175320234Y-82323175D01*
X175034179Y-82608731D01*
X174879176Y-82982018D01*
X174878824Y-83386208D01*
X175033175Y-83759766D01*
X175318731Y-84045821D01*
X175692018Y-84200824D01*
X176096208Y-84201176D01*
X176316687Y-84110076D01*
X176346838Y-84270317D01*
X176485910Y-84486441D01*
X176698110Y-84631431D01*
X176765541Y-84645086D01*
X176720853Y-84674946D01*
X176570811Y-84899500D01*
X175871528Y-84899500D01*
X175836269Y-84864179D01*
X175462982Y-84709176D01*
X175058792Y-84708824D01*
X174685234Y-84863175D01*
X174399179Y-85148731D01*
X174244176Y-85522018D01*
X174243824Y-85926208D01*
X154177936Y-85926208D01*
X154178176Y-85650792D01*
X154023825Y-85277234D01*
X153738269Y-84991179D01*
X153364982Y-84836176D01*
X152960792Y-84835824D01*
X152587234Y-84990175D01*
X152543463Y-85033870D01*
X152543463Y-68683237D01*
X153008869Y-68683237D01*
X153035000Y-68746479D01*
X153035000Y-76200000D01*
X153078427Y-76430795D01*
X153214827Y-76642767D01*
X153422949Y-76784971D01*
X153670000Y-76835000D01*
X156608723Y-76835000D01*
X156544006Y-76899604D01*
X156389003Y-77272891D01*
X156388651Y-77677081D01*
X156543002Y-78050639D01*
X156828558Y-78336694D01*
X157066653Y-78435560D01*
X156553000Y-78435560D01*
X156317683Y-78479838D01*
X156101559Y-78618910D01*
X155956569Y-78831110D01*
X155905560Y-79083000D01*
X155905560Y-80683000D01*
X155949838Y-80918317D01*
X156088910Y-81134441D01*
X156301110Y-81279431D01*
X156527500Y-81325276D01*
X156527500Y-82341847D01*
X156394683Y-82366838D01*
X156178559Y-82505910D01*
X156033569Y-82718110D01*
X155982560Y-82970000D01*
X155982560Y-84670000D01*
X156026838Y-84905317D01*
X156165910Y-85121441D01*
X156378110Y-85266431D01*
X156630000Y-85317440D01*
X158330000Y-85317440D01*
X158565317Y-85273162D01*
X158781441Y-85134090D01*
X158926431Y-84921890D01*
X158948301Y-84813893D01*
X159253076Y-85091645D01*
X159663110Y-85261476D01*
X159893000Y-85140155D01*
X159893000Y-83947000D01*
X160147000Y-83947000D01*
X160147000Y-85140155D01*
X160376890Y-85261476D01*
X160786924Y-85091645D01*
X161215183Y-84701358D01*
X161461486Y-84176892D01*
X161340819Y-83947000D01*
X160147000Y-83947000D01*
X159893000Y-83947000D01*
X159873000Y-83947000D01*
X159873000Y-83693000D01*
X159893000Y-83693000D01*
X159893000Y-82499845D01*
X160147000Y-82499845D01*
X160147000Y-83693000D01*
X161340819Y-83693000D01*
X161461486Y-83463108D01*
X161215183Y-82938642D01*
X160786924Y-82548355D01*
X160376890Y-82378524D01*
X160147000Y-82499845D01*
X159893000Y-82499845D01*
X159663110Y-82378524D01*
X159321500Y-82520015D01*
X159321500Y-82272528D01*
X159356821Y-82237269D01*
X159511824Y-81863982D01*
X159512176Y-81459792D01*
X159357825Y-81086234D01*
X159072269Y-80800179D01*
X158799636Y-80686971D01*
X158800440Y-80683000D01*
X158800440Y-79883000D01*
X163509887Y-79883000D01*
X163619120Y-80432151D01*
X163930189Y-80897698D01*
X164395736Y-81208767D01*
X164944887Y-81318000D01*
X165001113Y-81318000D01*
X165550264Y-81208767D01*
X166015811Y-80897698D01*
X166326880Y-80432151D01*
X166436113Y-79883000D01*
X166326880Y-79333849D01*
X166015811Y-78868302D01*
X165853834Y-78760072D01*
X165988824Y-78434982D01*
X165989176Y-78030792D01*
X165834825Y-77657234D01*
X165549269Y-77371179D01*
X165175982Y-77216176D01*
X164771792Y-77215824D01*
X164398234Y-77370175D01*
X164112179Y-77655731D01*
X163957176Y-78029018D01*
X163956824Y-78433208D01*
X164091943Y-78760221D01*
X163930189Y-78868302D01*
X163619120Y-79333849D01*
X163509887Y-79883000D01*
X158800440Y-79883000D01*
X158800440Y-79083000D01*
X158756162Y-78847683D01*
X158617090Y-78631559D01*
X158404890Y-78486569D01*
X158153000Y-78435560D01*
X157742749Y-78435560D01*
X157979593Y-78337698D01*
X158265648Y-78052142D01*
X158420651Y-77678855D01*
X158420696Y-77627438D01*
X159213134Y-76835000D01*
X163830000Y-76835000D01*
X164060795Y-76791573D01*
X164272767Y-76655173D01*
X164414971Y-76447051D01*
X164465000Y-76200000D01*
X164465000Y-66040000D01*
X164421573Y-65809205D01*
X164285173Y-65597233D01*
X164077051Y-65455029D01*
X163830000Y-65405000D01*
X153670000Y-65405000D01*
X153439205Y-65448427D01*
X153227233Y-65584827D01*
X153085029Y-65792949D01*
X153035000Y-66040000D01*
X153035000Y-68216965D01*
X153009221Y-68279047D01*
X153008869Y-68683237D01*
X152543463Y-68683237D01*
X152543463Y-61161208D01*
X156463824Y-61161208D01*
X156618175Y-61534766D01*
X156903731Y-61820821D01*
X157277018Y-61975824D01*
X157681208Y-61976176D01*
X157846564Y-61907852D01*
X157881838Y-62095317D01*
X158020910Y-62311441D01*
X158233110Y-62456431D01*
X158485000Y-62507440D01*
X160285000Y-62507440D01*
X160520317Y-62463162D01*
X160736441Y-62324090D01*
X160881431Y-62111890D01*
X160885567Y-62091466D01*
X161054357Y-62260551D01*
X161618330Y-62494733D01*
X162228991Y-62495265D01*
X162793371Y-62262068D01*
X163225551Y-61830643D01*
X163459733Y-61266670D01*
X163460265Y-60656009D01*
X163450575Y-60632558D01*
X163627018Y-60705824D01*
X164031208Y-60706176D01*
X164404766Y-60551825D01*
X164690821Y-60266269D01*
X164845824Y-59892982D01*
X164846176Y-59488792D01*
X164691825Y-59115234D01*
X164406269Y-58829179D01*
X164032982Y-58674176D01*
X163628792Y-58673824D01*
X163255234Y-58828175D01*
X163218846Y-58864500D01*
X163195000Y-58864500D01*
X162879094Y-58927337D01*
X162771824Y-58999013D01*
X162611283Y-59106283D01*
X162611281Y-59106286D01*
X162274511Y-59443056D01*
X162231670Y-59425267D01*
X161621009Y-59424735D01*
X161056629Y-59657932D01*
X160888387Y-59825880D01*
X160888162Y-59824683D01*
X160749090Y-59608559D01*
X160536890Y-59463569D01*
X160285000Y-59412560D01*
X158485000Y-59412560D01*
X158249683Y-59456838D01*
X158033559Y-59595910D01*
X157888569Y-59808110D01*
X157847206Y-60012368D01*
X157682982Y-59944176D01*
X157278792Y-59943824D01*
X156905234Y-60098175D01*
X156619179Y-60383731D01*
X156464176Y-60757018D01*
X156463824Y-61161208D01*
X152543463Y-61161208D01*
X152543463Y-59443971D01*
X155535933Y-56451500D01*
X163442126Y-56451500D01*
X163799630Y-56809629D01*
X164312900Y-57022757D01*
X164868661Y-57023242D01*
X165382303Y-56811010D01*
X165742441Y-56451500D01*
X167155472Y-56451500D01*
X167190731Y-56486821D01*
X167564018Y-56641824D01*
X167968208Y-56642176D01*
X168341766Y-56487825D01*
X168627821Y-56202269D01*
X168782824Y-55828982D01*
X168783176Y-55424792D01*
X168628825Y-55051234D01*
X168343269Y-54765179D01*
X167969982Y-54610176D01*
X167565792Y-54609824D01*
X167192234Y-54764175D01*
X167155846Y-54800500D01*
X165741874Y-54800500D01*
X165384370Y-54442371D01*
X165176488Y-54356051D01*
X165382303Y-54271010D01*
X165477270Y-54176208D01*
X170433824Y-54176208D01*
X170588175Y-54549766D01*
X170624500Y-54586154D01*
X170624500Y-55903472D01*
X170589179Y-55938731D01*
X170434176Y-56312018D01*
X170433824Y-56716208D01*
X170588175Y-57089766D01*
X170873731Y-57375821D01*
X171247018Y-57530824D01*
X171651208Y-57531176D01*
X172024766Y-57376825D01*
X172310821Y-57091269D01*
X172402535Y-56870399D01*
X172493175Y-57089766D01*
X172778731Y-57375821D01*
X173152018Y-57530824D01*
X173556208Y-57531176D01*
X173929766Y-57376825D01*
X174215821Y-57091269D01*
X174370824Y-56717982D01*
X174371176Y-56313792D01*
X174216825Y-55940234D01*
X174180500Y-55903846D01*
X174180500Y-52681528D01*
X174215821Y-52646269D01*
X174370824Y-52272982D01*
X174371176Y-51868792D01*
X174216825Y-51495234D01*
X173931269Y-51209179D01*
X173557982Y-51054176D01*
X173153792Y-51053824D01*
X172780234Y-51208175D01*
X172494179Y-51493731D01*
X172339176Y-51867018D01*
X172338824Y-52271208D01*
X172493175Y-52644766D01*
X172529500Y-52681154D01*
X172529500Y-55903472D01*
X172494179Y-55938731D01*
X172402465Y-56159601D01*
X172311825Y-55940234D01*
X172275500Y-55903846D01*
X172275500Y-54586528D01*
X172310821Y-54551269D01*
X172465824Y-54177982D01*
X172466176Y-53773792D01*
X172311825Y-53400234D01*
X172026269Y-53114179D01*
X171652982Y-52959176D01*
X171248792Y-52958824D01*
X170875234Y-53113175D01*
X170589179Y-53398731D01*
X170434176Y-53772018D01*
X170433824Y-54176208D01*
X165477270Y-54176208D01*
X165742441Y-53911500D01*
X166624000Y-53911500D01*
X166939906Y-53848663D01*
X167207717Y-53669717D01*
X167791301Y-53086133D01*
X167841208Y-53086176D01*
X168214766Y-52931825D01*
X168500821Y-52646269D01*
X168655824Y-52272982D01*
X168656176Y-51868792D01*
X168501825Y-51495234D01*
X168216269Y-51209179D01*
X167842982Y-51054176D01*
X167438792Y-51053824D01*
X167065234Y-51208175D01*
X166779179Y-51493731D01*
X166624176Y-51867018D01*
X166624131Y-51918435D01*
X166282066Y-52260500D01*
X165741874Y-52260500D01*
X165384370Y-51902371D01*
X165176488Y-51816051D01*
X165382303Y-51731010D01*
X165775629Y-51338370D01*
X165988757Y-50825100D01*
X165989242Y-50269339D01*
X165777010Y-49755697D01*
X165626576Y-49605000D01*
X193600000Y-49605000D01*
X193600000Y-52263668D01*
X193600000Y-52263668D01*
G37*
X193600000Y-52263668D02*
X193037679Y-51700364D01*
X192216519Y-51359389D01*
X191327381Y-51358613D01*
X190505628Y-51698155D01*
X189876364Y-52326321D01*
X189535389Y-53147481D01*
X189534613Y-54036619D01*
X189874155Y-54858372D01*
X190502321Y-55487636D01*
X191192275Y-55774130D01*
X191172622Y-55778039D01*
X190690853Y-56099946D01*
X190690029Y-56101179D01*
X190683162Y-56064683D01*
X190544090Y-55848559D01*
X190331890Y-55703569D01*
X190080000Y-55652560D01*
X188380000Y-55652560D01*
X188144683Y-55696838D01*
X187928559Y-55835910D01*
X187783569Y-56048110D01*
X187732560Y-56300000D01*
X187732560Y-58000000D01*
X187776838Y-58235317D01*
X187915910Y-58451441D01*
X188128110Y-58596431D01*
X188195541Y-58610086D01*
X188150853Y-58639946D01*
X187828946Y-59121715D01*
X187822303Y-59155113D01*
X187805825Y-59115234D01*
X187520269Y-58829179D01*
X187146982Y-58674176D01*
X186742792Y-58673824D01*
X186369234Y-58828175D01*
X186083179Y-59113731D01*
X185928176Y-59487018D01*
X185928131Y-59538435D01*
X183439273Y-62027293D01*
X183260327Y-62295104D01*
X183228237Y-62456431D01*
X183197490Y-62611010D01*
X183197490Y-103163077D01*
X178718815Y-107641751D01*
X176224430Y-107641751D01*
X176275824Y-107517982D01*
X176276176Y-107113792D01*
X176121825Y-106740234D01*
X176085500Y-106703846D01*
X176085500Y-99734005D01*
X176085501Y-99734000D01*
X176022663Y-99418094D01*
X175843717Y-99150283D01*
X175169717Y-98476283D01*
X174901906Y-98297337D01*
X174852440Y-98287498D01*
X174852440Y-98210000D01*
X174827105Y-98075355D01*
X175057018Y-98170824D01*
X175461208Y-98171176D01*
X175834766Y-98016825D01*
X176120821Y-97731269D01*
X176275824Y-97357982D01*
X176276176Y-96953792D01*
X176121825Y-96580234D01*
X175836269Y-96294179D01*
X175462982Y-96139176D01*
X175411565Y-96139131D01*
X175208717Y-95936283D01*
X174940906Y-95757337D01*
X174625000Y-95694500D01*
X174584189Y-95694500D01*
X174434147Y-95469946D01*
X173952378Y-95148039D01*
X173384093Y-95035000D01*
X173325907Y-95035000D01*
X172757622Y-95148039D01*
X172275853Y-95469946D01*
X171953946Y-95951715D01*
X171840907Y-96520000D01*
X171953946Y-97088285D01*
X172275853Y-97570054D01*
X172317452Y-97597850D01*
X172269683Y-97606838D01*
X172053559Y-97745910D01*
X171908569Y-97958110D01*
X171857560Y-98210000D01*
X171857560Y-99910000D01*
X171901838Y-100145317D01*
X172040910Y-100361441D01*
X172253110Y-100506431D01*
X172505000Y-100557440D01*
X174205000Y-100557440D01*
X174434500Y-100514257D01*
X174434500Y-106703472D01*
X174399179Y-106738731D01*
X174244176Y-107112018D01*
X174243881Y-107451305D01*
X173979765Y-107451075D01*
X173606207Y-107605426D01*
X173320152Y-107890982D01*
X173165149Y-108264269D01*
X173164797Y-108668459D01*
X173319148Y-109042017D01*
X173604704Y-109328072D01*
X173977991Y-109483075D01*
X174382181Y-109483427D01*
X174755739Y-109329076D01*
X174792127Y-109292751D01*
X179060749Y-109292751D01*
X179376655Y-109229914D01*
X179644466Y-109050968D01*
X184606704Y-104088729D01*
X184606707Y-104088727D01*
X184785653Y-103820915D01*
X184794377Y-103777057D01*
X184848491Y-103505010D01*
X184848490Y-103505005D01*
X184848490Y-62952944D01*
X187095301Y-60706133D01*
X187145208Y-60706176D01*
X187518766Y-60551825D01*
X187804821Y-60266269D01*
X187822206Y-60224401D01*
X187828946Y-60258285D01*
X188150853Y-60740054D01*
X188480026Y-60960000D01*
X188150853Y-61179946D01*
X187828946Y-61661715D01*
X187715907Y-62230000D01*
X187828946Y-62798285D01*
X188150853Y-63280054D01*
X188480026Y-63500000D01*
X188150853Y-63719946D01*
X187828946Y-64201715D01*
X187715907Y-64770000D01*
X187828946Y-65338285D01*
X188150853Y-65820054D01*
X188480026Y-66040000D01*
X188150853Y-66259946D01*
X187828946Y-66741715D01*
X187715907Y-67310000D01*
X187828946Y-67878285D01*
X188150853Y-68360054D01*
X188480026Y-68580000D01*
X188150853Y-68799946D01*
X187828946Y-69281715D01*
X187715907Y-69850000D01*
X187828946Y-70418285D01*
X188150853Y-70900054D01*
X188480026Y-71120000D01*
X188150853Y-71339946D01*
X187828946Y-71821715D01*
X187715907Y-72390000D01*
X187828946Y-72958285D01*
X188150853Y-73440054D01*
X188480026Y-73660000D01*
X188150853Y-73879946D01*
X187828946Y-74361715D01*
X187715907Y-74930000D01*
X187828946Y-75498285D01*
X188150853Y-75980054D01*
X188480026Y-76200000D01*
X188150853Y-76419946D01*
X187828946Y-76901715D01*
X187715907Y-77470000D01*
X187828946Y-78038285D01*
X188150853Y-78520054D01*
X188480026Y-78740000D01*
X188150853Y-78959946D01*
X187828946Y-79441715D01*
X187715907Y-80010000D01*
X187828946Y-80578285D01*
X188150853Y-81060054D01*
X188257567Y-81131358D01*
X188152095Y-81152337D01*
X188055212Y-81217072D01*
X187941644Y-81103306D01*
X187568357Y-80948303D01*
X187164167Y-80947951D01*
X186790609Y-81102302D01*
X186504554Y-81387858D01*
X186349551Y-81761145D01*
X186349506Y-81812562D01*
X186072467Y-82089601D01*
X185893521Y-82357412D01*
X185849930Y-82576560D01*
X185830684Y-82673318D01*
X185830684Y-111451883D01*
X184633699Y-112648867D01*
X184583792Y-112648824D01*
X184210234Y-112803175D01*
X183924179Y-113088731D01*
X183769176Y-113462018D01*
X183768824Y-113866208D01*
X183923175Y-114239766D01*
X184208731Y-114525821D01*
X184582018Y-114680824D01*
X184986208Y-114681176D01*
X185359766Y-114526825D01*
X185645821Y-114241269D01*
X185800824Y-113867982D01*
X185800869Y-113816565D01*
X187239898Y-112377535D01*
X187239901Y-112377533D01*
X187418847Y-112109721D01*
X187437887Y-112014000D01*
X187481685Y-111793816D01*
X187481684Y-111793811D01*
X187481684Y-83015252D01*
X187516676Y-82980260D01*
X187566583Y-82980303D01*
X187861127Y-82858600D01*
X187783569Y-82972110D01*
X187732560Y-83224000D01*
X187732560Y-84924000D01*
X187776838Y-85159317D01*
X187915910Y-85375441D01*
X188128110Y-85520431D01*
X188195541Y-85534086D01*
X188150853Y-85563946D01*
X187828946Y-86045715D01*
X187715907Y-86614000D01*
X187828946Y-87182285D01*
X188150853Y-87664054D01*
X188480026Y-87884000D01*
X188150853Y-88103946D01*
X187828946Y-88585715D01*
X187715907Y-89154000D01*
X187828946Y-89722285D01*
X188150853Y-90204054D01*
X188480026Y-90424000D01*
X188150853Y-90643946D01*
X187828946Y-91125715D01*
X187715907Y-91694000D01*
X187828946Y-92262285D01*
X188150853Y-92744054D01*
X188480026Y-92964000D01*
X188150853Y-93183946D01*
X187828946Y-93665715D01*
X187715907Y-94234000D01*
X187828946Y-94802285D01*
X188150853Y-95284054D01*
X188480026Y-95504000D01*
X188150853Y-95723946D01*
X187828946Y-96205715D01*
X187715907Y-96774000D01*
X187828946Y-97342285D01*
X188150853Y-97824054D01*
X188480026Y-98044000D01*
X188150853Y-98263946D01*
X187828946Y-98745715D01*
X187715907Y-99314000D01*
X187828946Y-99882285D01*
X188150853Y-100364054D01*
X188480026Y-100584000D01*
X188150853Y-100803946D01*
X187828946Y-101285715D01*
X187715907Y-101854000D01*
X187828946Y-102422285D01*
X188150853Y-102904054D01*
X188480026Y-103124000D01*
X188150853Y-103343946D01*
X187828946Y-103825715D01*
X187715907Y-104394000D01*
X187828946Y-104962285D01*
X188150853Y-105444054D01*
X188480026Y-105664000D01*
X188150853Y-105883946D01*
X187828946Y-106365715D01*
X187715907Y-106934000D01*
X187828946Y-107502285D01*
X188150853Y-107984054D01*
X188480026Y-108204000D01*
X188150853Y-108423946D01*
X187828946Y-108905715D01*
X187715907Y-109474000D01*
X187828946Y-110042285D01*
X188150853Y-110524054D01*
X188480026Y-110744000D01*
X188150853Y-110963946D01*
X187828946Y-111445715D01*
X187715907Y-112014000D01*
X187828946Y-112582285D01*
X188150853Y-113064054D01*
X188480026Y-113284000D01*
X188150853Y-113503946D01*
X187828946Y-113985715D01*
X187715907Y-114554000D01*
X187828946Y-115122285D01*
X188150853Y-115604054D01*
X188480026Y-115824000D01*
X188150853Y-116043946D01*
X187828946Y-116525715D01*
X187715907Y-117094000D01*
X187828946Y-117662285D01*
X188150853Y-118144054D01*
X188480026Y-118364000D01*
X188150853Y-118583946D01*
X187828946Y-119065715D01*
X187715907Y-119634000D01*
X187828946Y-120202285D01*
X188150853Y-120684054D01*
X188480026Y-120904000D01*
X188150853Y-121123946D01*
X187828946Y-121605715D01*
X187715907Y-122174000D01*
X187828946Y-122742285D01*
X188150853Y-123224054D01*
X188480026Y-123444000D01*
X188150853Y-123663946D01*
X187828946Y-124145715D01*
X187715907Y-124714000D01*
X187828946Y-125282285D01*
X188150853Y-125764054D01*
X188632622Y-126085961D01*
X189200907Y-126199000D01*
X189259093Y-126199000D01*
X189827378Y-126085961D01*
X190309147Y-125764054D01*
X190500000Y-125478422D01*
X190690853Y-125764054D01*
X191172622Y-126085961D01*
X191740907Y-126199000D01*
X191799093Y-126199000D01*
X192367378Y-126085961D01*
X192849147Y-125764054D01*
X193171054Y-125282285D01*
X193284093Y-124714000D01*
X193171054Y-124145715D01*
X192849147Y-123663946D01*
X192519974Y-123444000D01*
X192849147Y-123224054D01*
X193171054Y-122742285D01*
X193284093Y-122174000D01*
X193171054Y-121605715D01*
X192849147Y-121123946D01*
X192519974Y-120904000D01*
X192849147Y-120684054D01*
X193171054Y-120202285D01*
X193284093Y-119634000D01*
X193171054Y-119065715D01*
X192849147Y-118583946D01*
X192519974Y-118364000D01*
X192849147Y-118144054D01*
X193171054Y-117662285D01*
X193284093Y-117094000D01*
X193171054Y-116525715D01*
X192849147Y-116043946D01*
X192519974Y-115824000D01*
X192849147Y-115604054D01*
X193171054Y-115122285D01*
X193284093Y-114554000D01*
X193171054Y-113985715D01*
X192849147Y-113503946D01*
X192519974Y-113284000D01*
X192849147Y-113064054D01*
X193171054Y-112582285D01*
X193284093Y-112014000D01*
X193171054Y-111445715D01*
X192849147Y-110963946D01*
X192519974Y-110744000D01*
X192849147Y-110524054D01*
X193171054Y-110042285D01*
X193284093Y-109474000D01*
X193171054Y-108905715D01*
X192849147Y-108423946D01*
X192519974Y-108204000D01*
X192849147Y-107984054D01*
X193171054Y-107502285D01*
X193284093Y-106934000D01*
X193171054Y-106365715D01*
X192849147Y-105883946D01*
X192519974Y-105664000D01*
X192849147Y-105444054D01*
X193171054Y-104962285D01*
X193284093Y-104394000D01*
X193171054Y-103825715D01*
X192849147Y-103343946D01*
X192519974Y-103124000D01*
X192849147Y-102904054D01*
X193171054Y-102422285D01*
X193284093Y-101854000D01*
X193171054Y-101285715D01*
X192849147Y-100803946D01*
X192519974Y-100584000D01*
X192849147Y-100364054D01*
X193171054Y-99882285D01*
X193284093Y-99314000D01*
X193171054Y-98745715D01*
X192849147Y-98263946D01*
X192519974Y-98044000D01*
X192849147Y-97824054D01*
X193171054Y-97342285D01*
X193284093Y-96774000D01*
X193171054Y-96205715D01*
X192849147Y-95723946D01*
X192519974Y-95504000D01*
X192849147Y-95284054D01*
X193171054Y-94802285D01*
X193284093Y-94234000D01*
X193171054Y-93665715D01*
X192849147Y-93183946D01*
X192519974Y-92964000D01*
X192849147Y-92744054D01*
X193171054Y-92262285D01*
X193284093Y-91694000D01*
X193171054Y-91125715D01*
X192849147Y-90643946D01*
X192519974Y-90424000D01*
X192849147Y-90204054D01*
X193171054Y-89722285D01*
X193284093Y-89154000D01*
X193171054Y-88585715D01*
X192849147Y-88103946D01*
X192519974Y-87884000D01*
X192849147Y-87664054D01*
X193171054Y-87182285D01*
X193284093Y-86614000D01*
X193171054Y-86045715D01*
X192849147Y-85563946D01*
X192519974Y-85344000D01*
X192849147Y-85124054D01*
X193171054Y-84642285D01*
X193284093Y-84074000D01*
X193258825Y-83946970D01*
X193495208Y-83947176D01*
X193600000Y-83903877D01*
X193600000Y-126290000D01*
X178676841Y-126290000D01*
X178938421Y-126028420D01*
X178938423Y-126028417D01*
X179005564Y-125961276D01*
X179070000Y-125974093D01*
X179638285Y-125861054D01*
X180120054Y-125539147D01*
X180441961Y-125057378D01*
X180555000Y-124489093D01*
X180555000Y-124430907D01*
X180441961Y-123862622D01*
X180120054Y-123380853D01*
X179638285Y-123058946D01*
X179070000Y-122945907D01*
X178501715Y-123058946D01*
X178019946Y-123380853D01*
X177800000Y-123710026D01*
X177580054Y-123380853D01*
X177098285Y-123058946D01*
X177064887Y-123052303D01*
X177104766Y-123035825D01*
X177390821Y-122750269D01*
X177545824Y-122376982D01*
X177546176Y-121972792D01*
X177391825Y-121599234D01*
X177355500Y-121562846D01*
X177355500Y-121244189D01*
X177580054Y-121094147D01*
X177800000Y-120764974D01*
X178019946Y-121094147D01*
X178501715Y-121416054D01*
X179070000Y-121529093D01*
X179638285Y-121416054D01*
X180120054Y-121094147D01*
X180441961Y-120612378D01*
X180555000Y-120044093D01*
X180555000Y-119985907D01*
X180441961Y-119417622D01*
X180120054Y-118935853D01*
X179638285Y-118613946D01*
X179070000Y-118500907D01*
X178501715Y-118613946D01*
X178019946Y-118935853D01*
X177800000Y-119265026D01*
X177580054Y-118935853D01*
X177098285Y-118613946D01*
X176530000Y-118500907D01*
X175961715Y-118613946D01*
X175479946Y-118935853D01*
X175260000Y-119265026D01*
X175040054Y-118935853D01*
X174815500Y-118785811D01*
X174815500Y-118721528D01*
X174850821Y-118686269D01*
X175005824Y-118312982D01*
X175006176Y-117908792D01*
X174851825Y-117535234D01*
X174566269Y-117249179D01*
X174192982Y-117094176D01*
X173788792Y-117093824D01*
X173415234Y-117248175D01*
X173129179Y-117533731D01*
X172974176Y-117907018D01*
X172973824Y-118311208D01*
X173128175Y-118684766D01*
X173164500Y-118721154D01*
X173164500Y-118785811D01*
X172939946Y-118935853D01*
X172720000Y-119265026D01*
X172500054Y-118935853D01*
X172275500Y-118785811D01*
X172275500Y-118721528D01*
X172310821Y-118686269D01*
X172465824Y-118312982D01*
X172466176Y-117908792D01*
X172311825Y-117535234D01*
X172026269Y-117249179D01*
X171652982Y-117094176D01*
X171248792Y-117093824D01*
X170875234Y-117248175D01*
X170589179Y-117533731D01*
X170434176Y-117907018D01*
X170433824Y-118311208D01*
X170588175Y-118684766D01*
X170624500Y-118721154D01*
X170624500Y-118785811D01*
X170399946Y-118935853D01*
X170180000Y-119265026D01*
X169960054Y-118935853D01*
X169735500Y-118785811D01*
X169735500Y-118738266D01*
X169735501Y-118738261D01*
X169672663Y-118422355D01*
X169493717Y-118154544D01*
X168926843Y-117587670D01*
X168659032Y-117408724D01*
X168343126Y-117345887D01*
X166138321Y-117345887D01*
X152543463Y-103751029D01*
X152543463Y-101960206D01*
X152578283Y-102012318D01*
X163544682Y-112978717D01*
X163812493Y-113157663D01*
X164128399Y-113220500D01*
X174394472Y-113220500D01*
X174429731Y-113255821D01*
X174803018Y-113410824D01*
X175207208Y-113411176D01*
X175580766Y-113256825D01*
X175866821Y-112971269D01*
X176021824Y-112597982D01*
X176022176Y-112193792D01*
X175867825Y-111820234D01*
X175582269Y-111534179D01*
X175208982Y-111379176D01*
X174804792Y-111378824D01*
X174431234Y-111533175D01*
X174394846Y-111569500D01*
X164470333Y-111569500D01*
X153987500Y-101086667D01*
X153987500Y-86463528D01*
X154022821Y-86428269D01*
X154177824Y-86054982D01*
X154177936Y-85926208D01*
X174243824Y-85926208D01*
X174398175Y-86299766D01*
X174683731Y-86585821D01*
X175057018Y-86740824D01*
X175461208Y-86741176D01*
X175834766Y-86586825D01*
X175871154Y-86550500D01*
X176570811Y-86550500D01*
X176720853Y-86775054D01*
X177202622Y-87096961D01*
X177770907Y-87210000D01*
X177829093Y-87210000D01*
X178397378Y-87096961D01*
X178879147Y-86775054D01*
X179201054Y-86293285D01*
X179314093Y-85725000D01*
X179201054Y-85156715D01*
X178879147Y-84674946D01*
X178837548Y-84647150D01*
X178885317Y-84638162D01*
X179101441Y-84499090D01*
X179246431Y-84286890D01*
X179297440Y-84035000D01*
X179297440Y-82335000D01*
X179253162Y-82099683D01*
X179114090Y-81883559D01*
X178901890Y-81738569D01*
X178650000Y-81687560D01*
X176950000Y-81687560D01*
X176714683Y-81731838D01*
X176498559Y-81870910D01*
X176353569Y-82083110D01*
X176317667Y-82260398D01*
X176097982Y-82169176D01*
X175693792Y-82168824D01*
X175320234Y-82323175D01*
X175034179Y-82608731D01*
X174879176Y-82982018D01*
X174878824Y-83386208D01*
X175033175Y-83759766D01*
X175318731Y-84045821D01*
X175692018Y-84200824D01*
X176096208Y-84201176D01*
X176316687Y-84110076D01*
X176346838Y-84270317D01*
X176485910Y-84486441D01*
X176698110Y-84631431D01*
X176765541Y-84645086D01*
X176720853Y-84674946D01*
X176570811Y-84899500D01*
X175871528Y-84899500D01*
X175836269Y-84864179D01*
X175462982Y-84709176D01*
X175058792Y-84708824D01*
X174685234Y-84863175D01*
X174399179Y-85148731D01*
X174244176Y-85522018D01*
X174243824Y-85926208D01*
X154177936Y-85926208D01*
X154178176Y-85650792D01*
X154023825Y-85277234D01*
X153738269Y-84991179D01*
X153364982Y-84836176D01*
X152960792Y-84835824D01*
X152587234Y-84990175D01*
X152543463Y-85033870D01*
X152543463Y-68683237D01*
X153008869Y-68683237D01*
X153035000Y-68746479D01*
X153035000Y-76200000D01*
X153078427Y-76430795D01*
X153214827Y-76642767D01*
X153422949Y-76784971D01*
X153670000Y-76835000D01*
X156608723Y-76835000D01*
X156544006Y-76899604D01*
X156389003Y-77272891D01*
X156388651Y-77677081D01*
X156543002Y-78050639D01*
X156828558Y-78336694D01*
X157066653Y-78435560D01*
X156553000Y-78435560D01*
X156317683Y-78479838D01*
X156101559Y-78618910D01*
X155956569Y-78831110D01*
X155905560Y-79083000D01*
X155905560Y-80683000D01*
X155949838Y-80918317D01*
X156088910Y-81134441D01*
X156301110Y-81279431D01*
X156527500Y-81325276D01*
X156527500Y-82341847D01*
X156394683Y-82366838D01*
X156178559Y-82505910D01*
X156033569Y-82718110D01*
X155982560Y-82970000D01*
X155982560Y-84670000D01*
X156026838Y-84905317D01*
X156165910Y-85121441D01*
X156378110Y-85266431D01*
X156630000Y-85317440D01*
X158330000Y-85317440D01*
X158565317Y-85273162D01*
X158781441Y-85134090D01*
X158926431Y-84921890D01*
X158948301Y-84813893D01*
X159253076Y-85091645D01*
X159663110Y-85261476D01*
X159893000Y-85140155D01*
X159893000Y-83947000D01*
X160147000Y-83947000D01*
X160147000Y-85140155D01*
X160376890Y-85261476D01*
X160786924Y-85091645D01*
X161215183Y-84701358D01*
X161461486Y-84176892D01*
X161340819Y-83947000D01*
X160147000Y-83947000D01*
X159893000Y-83947000D01*
X159873000Y-83947000D01*
X159873000Y-83693000D01*
X159893000Y-83693000D01*
X159893000Y-82499845D01*
X160147000Y-82499845D01*
X160147000Y-83693000D01*
X161340819Y-83693000D01*
X161461486Y-83463108D01*
X161215183Y-82938642D01*
X160786924Y-82548355D01*
X160376890Y-82378524D01*
X160147000Y-82499845D01*
X159893000Y-82499845D01*
X159663110Y-82378524D01*
X159321500Y-82520015D01*
X159321500Y-82272528D01*
X159356821Y-82237269D01*
X159511824Y-81863982D01*
X159512176Y-81459792D01*
X159357825Y-81086234D01*
X159072269Y-80800179D01*
X158799636Y-80686971D01*
X158800440Y-80683000D01*
X158800440Y-79883000D01*
X163509887Y-79883000D01*
X163619120Y-80432151D01*
X163930189Y-80897698D01*
X164395736Y-81208767D01*
X164944887Y-81318000D01*
X165001113Y-81318000D01*
X165550264Y-81208767D01*
X166015811Y-80897698D01*
X166326880Y-80432151D01*
X166436113Y-79883000D01*
X166326880Y-79333849D01*
X166015811Y-78868302D01*
X165853834Y-78760072D01*
X165988824Y-78434982D01*
X165989176Y-78030792D01*
X165834825Y-77657234D01*
X165549269Y-77371179D01*
X165175982Y-77216176D01*
X164771792Y-77215824D01*
X164398234Y-77370175D01*
X164112179Y-77655731D01*
X163957176Y-78029018D01*
X163956824Y-78433208D01*
X164091943Y-78760221D01*
X163930189Y-78868302D01*
X163619120Y-79333849D01*
X163509887Y-79883000D01*
X158800440Y-79883000D01*
X158800440Y-79083000D01*
X158756162Y-78847683D01*
X158617090Y-78631559D01*
X158404890Y-78486569D01*
X158153000Y-78435560D01*
X157742749Y-78435560D01*
X157979593Y-78337698D01*
X158265648Y-78052142D01*
X158420651Y-77678855D01*
X158420696Y-77627438D01*
X159213134Y-76835000D01*
X163830000Y-76835000D01*
X164060795Y-76791573D01*
X164272767Y-76655173D01*
X164414971Y-76447051D01*
X164465000Y-76200000D01*
X164465000Y-66040000D01*
X164421573Y-65809205D01*
X164285173Y-65597233D01*
X164077051Y-65455029D01*
X163830000Y-65405000D01*
X153670000Y-65405000D01*
X153439205Y-65448427D01*
X153227233Y-65584827D01*
X153085029Y-65792949D01*
X153035000Y-66040000D01*
X153035000Y-68216965D01*
X153009221Y-68279047D01*
X153008869Y-68683237D01*
X152543463Y-68683237D01*
X152543463Y-61161208D01*
X156463824Y-61161208D01*
X156618175Y-61534766D01*
X156903731Y-61820821D01*
X157277018Y-61975824D01*
X157681208Y-61976176D01*
X157846564Y-61907852D01*
X157881838Y-62095317D01*
X158020910Y-62311441D01*
X158233110Y-62456431D01*
X158485000Y-62507440D01*
X160285000Y-62507440D01*
X160520317Y-62463162D01*
X160736441Y-62324090D01*
X160881431Y-62111890D01*
X160885567Y-62091466D01*
X161054357Y-62260551D01*
X161618330Y-62494733D01*
X162228991Y-62495265D01*
X162793371Y-62262068D01*
X163225551Y-61830643D01*
X163459733Y-61266670D01*
X163460265Y-60656009D01*
X163450575Y-60632558D01*
X163627018Y-60705824D01*
X164031208Y-60706176D01*
X164404766Y-60551825D01*
X164690821Y-60266269D01*
X164845824Y-59892982D01*
X164846176Y-59488792D01*
X164691825Y-59115234D01*
X164406269Y-58829179D01*
X164032982Y-58674176D01*
X163628792Y-58673824D01*
X163255234Y-58828175D01*
X163218846Y-58864500D01*
X163195000Y-58864500D01*
X162879094Y-58927337D01*
X162771824Y-58999013D01*
X162611283Y-59106283D01*
X162611281Y-59106286D01*
X162274511Y-59443056D01*
X162231670Y-59425267D01*
X161621009Y-59424735D01*
X161056629Y-59657932D01*
X160888387Y-59825880D01*
X160888162Y-59824683D01*
X160749090Y-59608559D01*
X160536890Y-59463569D01*
X160285000Y-59412560D01*
X158485000Y-59412560D01*
X158249683Y-59456838D01*
X158033559Y-59595910D01*
X157888569Y-59808110D01*
X157847206Y-60012368D01*
X157682982Y-59944176D01*
X157278792Y-59943824D01*
X156905234Y-60098175D01*
X156619179Y-60383731D01*
X156464176Y-60757018D01*
X156463824Y-61161208D01*
X152543463Y-61161208D01*
X152543463Y-59443971D01*
X155535933Y-56451500D01*
X163442126Y-56451500D01*
X163799630Y-56809629D01*
X164312900Y-57022757D01*
X164868661Y-57023242D01*
X165382303Y-56811010D01*
X165742441Y-56451500D01*
X167155472Y-56451500D01*
X167190731Y-56486821D01*
X167564018Y-56641824D01*
X167968208Y-56642176D01*
X168341766Y-56487825D01*
X168627821Y-56202269D01*
X168782824Y-55828982D01*
X168783176Y-55424792D01*
X168628825Y-55051234D01*
X168343269Y-54765179D01*
X167969982Y-54610176D01*
X167565792Y-54609824D01*
X167192234Y-54764175D01*
X167155846Y-54800500D01*
X165741874Y-54800500D01*
X165384370Y-54442371D01*
X165176488Y-54356051D01*
X165382303Y-54271010D01*
X165477270Y-54176208D01*
X170433824Y-54176208D01*
X170588175Y-54549766D01*
X170624500Y-54586154D01*
X170624500Y-55903472D01*
X170589179Y-55938731D01*
X170434176Y-56312018D01*
X170433824Y-56716208D01*
X170588175Y-57089766D01*
X170873731Y-57375821D01*
X171247018Y-57530824D01*
X171651208Y-57531176D01*
X172024766Y-57376825D01*
X172310821Y-57091269D01*
X172402535Y-56870399D01*
X172493175Y-57089766D01*
X172778731Y-57375821D01*
X173152018Y-57530824D01*
X173556208Y-57531176D01*
X173929766Y-57376825D01*
X174215821Y-57091269D01*
X174370824Y-56717982D01*
X174371176Y-56313792D01*
X174216825Y-55940234D01*
X174180500Y-55903846D01*
X174180500Y-52681528D01*
X174215821Y-52646269D01*
X174370824Y-52272982D01*
X174371176Y-51868792D01*
X174216825Y-51495234D01*
X173931269Y-51209179D01*
X173557982Y-51054176D01*
X173153792Y-51053824D01*
X172780234Y-51208175D01*
X172494179Y-51493731D01*
X172339176Y-51867018D01*
X172338824Y-52271208D01*
X172493175Y-52644766D01*
X172529500Y-52681154D01*
X172529500Y-55903472D01*
X172494179Y-55938731D01*
X172402465Y-56159601D01*
X172311825Y-55940234D01*
X172275500Y-55903846D01*
X172275500Y-54586528D01*
X172310821Y-54551269D01*
X172465824Y-54177982D01*
X172466176Y-53773792D01*
X172311825Y-53400234D01*
X172026269Y-53114179D01*
X171652982Y-52959176D01*
X171248792Y-52958824D01*
X170875234Y-53113175D01*
X170589179Y-53398731D01*
X170434176Y-53772018D01*
X170433824Y-54176208D01*
X165477270Y-54176208D01*
X165742441Y-53911500D01*
X166624000Y-53911500D01*
X166939906Y-53848663D01*
X167207717Y-53669717D01*
X167791301Y-53086133D01*
X167841208Y-53086176D01*
X168214766Y-52931825D01*
X168500821Y-52646269D01*
X168655824Y-52272982D01*
X168656176Y-51868792D01*
X168501825Y-51495234D01*
X168216269Y-51209179D01*
X167842982Y-51054176D01*
X167438792Y-51053824D01*
X167065234Y-51208175D01*
X166779179Y-51493731D01*
X166624176Y-51867018D01*
X166624131Y-51918435D01*
X166282066Y-52260500D01*
X165741874Y-52260500D01*
X165384370Y-51902371D01*
X165176488Y-51816051D01*
X165382303Y-51731010D01*
X165775629Y-51338370D01*
X165988757Y-50825100D01*
X165989242Y-50269339D01*
X165777010Y-49755697D01*
X165626576Y-49605000D01*
X193600000Y-49605000D01*
X193600000Y-52263668D01*
G36*
X163703000Y-76073000D02*
X159575500Y-76073000D01*
X159575500Y-75078320D01*
X160221285Y-75078320D01*
X160350533Y-75371123D01*
X161050806Y-75639388D01*
X161800435Y-75619250D01*
X162399467Y-75371123D01*
X162528715Y-75078320D01*
X161375000Y-73924605D01*
X160221285Y-75078320D01*
X159575500Y-75078320D01*
X159575500Y-74350898D01*
X159748877Y-74769467D01*
X160041680Y-74898715D01*
X161195395Y-73745000D01*
X161554605Y-73745000D01*
X162708320Y-74898715D01*
X163001123Y-74769467D01*
X163269388Y-74069194D01*
X163249250Y-73319565D01*
X163001123Y-72720533D01*
X162708320Y-72591285D01*
X161554605Y-73745000D01*
X161195395Y-73745000D01*
X160041680Y-72591285D01*
X159748877Y-72720533D01*
X159575500Y-73173112D01*
X159575500Y-72547432D01*
X159674655Y-72506462D01*
X159769602Y-72411680D01*
X160221285Y-72411680D01*
X161375000Y-73565395D01*
X162528715Y-72411680D01*
X162399467Y-72118877D01*
X161699194Y-71850612D01*
X160949565Y-71870750D01*
X160350533Y-72118877D01*
X160221285Y-72411680D01*
X159769602Y-72411680D01*
X160134846Y-72047073D01*
X160384206Y-71446547D01*
X160384774Y-70796306D01*
X160136462Y-70195345D01*
X159770077Y-69828320D01*
X160221285Y-69828320D01*
X160350533Y-70121123D01*
X161050806Y-70389388D01*
X161800435Y-70369250D01*
X162399467Y-70121123D01*
X162528715Y-69828320D01*
X161375000Y-68674605D01*
X160221285Y-69828320D01*
X159770077Y-69828320D01*
X159677073Y-69735154D01*
X159076547Y-69485794D01*
X158426306Y-69485226D01*
X157825345Y-69733538D01*
X157365154Y-70192927D01*
X157115794Y-70793453D01*
X157115226Y-71443694D01*
X157363538Y-72044655D01*
X157822927Y-72504846D01*
X157924500Y-72547023D01*
X157924500Y-73139102D01*
X157751123Y-72720533D01*
X157458320Y-72591285D01*
X156304605Y-73745000D01*
X157458320Y-74898715D01*
X157751123Y-74769467D01*
X157924500Y-74316888D01*
X157924500Y-75788766D01*
X157640266Y-76073000D01*
X153797000Y-76073000D01*
X153797000Y-75078320D01*
X154971285Y-75078320D01*
X155100533Y-75371123D01*
X155800806Y-75639388D01*
X156550435Y-75619250D01*
X157149467Y-75371123D01*
X157278715Y-75078320D01*
X156125000Y-73924605D01*
X154971285Y-75078320D01*
X153797000Y-75078320D01*
X153797000Y-73420806D01*
X154230612Y-73420806D01*
X154250750Y-74170435D01*
X154498877Y-74769467D01*
X154791680Y-74898715D01*
X155945395Y-73745000D01*
X154791680Y-72591285D01*
X154498877Y-72720533D01*
X154230612Y-73420806D01*
X153797000Y-73420806D01*
X153797000Y-72411680D01*
X154971285Y-72411680D01*
X156125000Y-73565395D01*
X157278715Y-72411680D01*
X157149467Y-72118877D01*
X156449194Y-71850612D01*
X155699565Y-71870750D01*
X155100533Y-72118877D01*
X154971285Y-72411680D01*
X153797000Y-72411680D01*
X153797000Y-69828320D01*
X154971285Y-69828320D01*
X155100533Y-70121123D01*
X155800806Y-70389388D01*
X156550435Y-70369250D01*
X157149467Y-70121123D01*
X157278715Y-69828320D01*
X156125000Y-68674605D01*
X154971285Y-69828320D01*
X153797000Y-69828320D01*
X153797000Y-68170806D01*
X154230612Y-68170806D01*
X154250750Y-68920435D01*
X154498877Y-69519467D01*
X154791680Y-69648715D01*
X155945395Y-68495000D01*
X156304605Y-68495000D01*
X157458320Y-69648715D01*
X157751123Y-69519467D01*
X158019388Y-68819194D01*
X158001970Y-68170806D01*
X159480612Y-68170806D01*
X159500750Y-68920435D01*
X159748877Y-69519467D01*
X160041680Y-69648715D01*
X161195395Y-68495000D01*
X161554605Y-68495000D01*
X162708320Y-69648715D01*
X163001123Y-69519467D01*
X163269388Y-68819194D01*
X163249250Y-68069565D01*
X163001123Y-67470533D01*
X162708320Y-67341285D01*
X161554605Y-68495000D01*
X161195395Y-68495000D01*
X160041680Y-67341285D01*
X159748877Y-67470533D01*
X159480612Y-68170806D01*
X158001970Y-68170806D01*
X157999250Y-68069565D01*
X157751123Y-67470533D01*
X157458320Y-67341285D01*
X156304605Y-68495000D01*
X155945395Y-68495000D01*
X154791680Y-67341285D01*
X154498877Y-67470533D01*
X154230612Y-68170806D01*
X153797000Y-68170806D01*
X153797000Y-67161680D01*
X154971285Y-67161680D01*
X156125000Y-68315395D01*
X157278715Y-67161680D01*
X160221285Y-67161680D01*
X161375000Y-68315395D01*
X162528715Y-67161680D01*
X162399467Y-66868877D01*
X161699194Y-66600612D01*
X160949565Y-66620750D01*
X160350533Y-66868877D01*
X160221285Y-67161680D01*
X157278715Y-67161680D01*
X157149467Y-66868877D01*
X156449194Y-66600612D01*
X155699565Y-66620750D01*
X155100533Y-66868877D01*
X154971285Y-67161680D01*
X153797000Y-67161680D01*
X153797000Y-66167000D01*
X163703000Y-66167000D01*
X163703000Y-76073000D01*
X163703000Y-76073000D01*
G37*
X163703000Y-76073000D02*
X159575500Y-76073000D01*
X159575500Y-75078320D01*
X160221285Y-75078320D01*
X160350533Y-75371123D01*
X161050806Y-75639388D01*
X161800435Y-75619250D01*
X162399467Y-75371123D01*
X162528715Y-75078320D01*
X161375000Y-73924605D01*
X160221285Y-75078320D01*
X159575500Y-75078320D01*
X159575500Y-74350898D01*
X159748877Y-74769467D01*
X160041680Y-74898715D01*
X161195395Y-73745000D01*
X161554605Y-73745000D01*
X162708320Y-74898715D01*
X163001123Y-74769467D01*
X163269388Y-74069194D01*
X163249250Y-73319565D01*
X163001123Y-72720533D01*
X162708320Y-72591285D01*
X161554605Y-73745000D01*
X161195395Y-73745000D01*
X160041680Y-72591285D01*
X159748877Y-72720533D01*
X159575500Y-73173112D01*
X159575500Y-72547432D01*
X159674655Y-72506462D01*
X159769602Y-72411680D01*
X160221285Y-72411680D01*
X161375000Y-73565395D01*
X162528715Y-72411680D01*
X162399467Y-72118877D01*
X161699194Y-71850612D01*
X160949565Y-71870750D01*
X160350533Y-72118877D01*
X160221285Y-72411680D01*
X159769602Y-72411680D01*
X160134846Y-72047073D01*
X160384206Y-71446547D01*
X160384774Y-70796306D01*
X160136462Y-70195345D01*
X159770077Y-69828320D01*
X160221285Y-69828320D01*
X160350533Y-70121123D01*
X161050806Y-70389388D01*
X161800435Y-70369250D01*
X162399467Y-70121123D01*
X162528715Y-69828320D01*
X161375000Y-68674605D01*
X160221285Y-69828320D01*
X159770077Y-69828320D01*
X159677073Y-69735154D01*
X159076547Y-69485794D01*
X158426306Y-69485226D01*
X157825345Y-69733538D01*
X157365154Y-70192927D01*
X157115794Y-70793453D01*
X157115226Y-71443694D01*
X157363538Y-72044655D01*
X157822927Y-72504846D01*
X157924500Y-72547023D01*
X157924500Y-73139102D01*
X157751123Y-72720533D01*
X157458320Y-72591285D01*
X156304605Y-73745000D01*
X157458320Y-74898715D01*
X157751123Y-74769467D01*
X157924500Y-74316888D01*
X157924500Y-75788766D01*
X157640266Y-76073000D01*
X153797000Y-76073000D01*
X153797000Y-75078320D01*
X154971285Y-75078320D01*
X155100533Y-75371123D01*
X155800806Y-75639388D01*
X156550435Y-75619250D01*
X157149467Y-75371123D01*
X157278715Y-75078320D01*
X156125000Y-73924605D01*
X154971285Y-75078320D01*
X153797000Y-75078320D01*
X153797000Y-73420806D01*
X154230612Y-73420806D01*
X154250750Y-74170435D01*
X154498877Y-74769467D01*
X154791680Y-74898715D01*
X155945395Y-73745000D01*
X154791680Y-72591285D01*
X154498877Y-72720533D01*
X154230612Y-73420806D01*
X153797000Y-73420806D01*
X153797000Y-72411680D01*
X154971285Y-72411680D01*
X156125000Y-73565395D01*
X157278715Y-72411680D01*
X157149467Y-72118877D01*
X156449194Y-71850612D01*
X155699565Y-71870750D01*
X155100533Y-72118877D01*
X154971285Y-72411680D01*
X153797000Y-72411680D01*
X153797000Y-69828320D01*
X154971285Y-69828320D01*
X155100533Y-70121123D01*
X155800806Y-70389388D01*
X156550435Y-70369250D01*
X157149467Y-70121123D01*
X157278715Y-69828320D01*
X156125000Y-68674605D01*
X154971285Y-69828320D01*
X153797000Y-69828320D01*
X153797000Y-68170806D01*
X154230612Y-68170806D01*
X154250750Y-68920435D01*
X154498877Y-69519467D01*
X154791680Y-69648715D01*
X155945395Y-68495000D01*
X156304605Y-68495000D01*
X157458320Y-69648715D01*
X157751123Y-69519467D01*
X158019388Y-68819194D01*
X158001970Y-68170806D01*
X159480612Y-68170806D01*
X159500750Y-68920435D01*
X159748877Y-69519467D01*
X160041680Y-69648715D01*
X161195395Y-68495000D01*
X161554605Y-68495000D01*
X162708320Y-69648715D01*
X163001123Y-69519467D01*
X163269388Y-68819194D01*
X163249250Y-68069565D01*
X163001123Y-67470533D01*
X162708320Y-67341285D01*
X161554605Y-68495000D01*
X161195395Y-68495000D01*
X160041680Y-67341285D01*
X159748877Y-67470533D01*
X159480612Y-68170806D01*
X158001970Y-68170806D01*
X157999250Y-68069565D01*
X157751123Y-67470533D01*
X157458320Y-67341285D01*
X156304605Y-68495000D01*
X155945395Y-68495000D01*
X154791680Y-67341285D01*
X154498877Y-67470533D01*
X154230612Y-68170806D01*
X153797000Y-68170806D01*
X153797000Y-67161680D01*
X154971285Y-67161680D01*
X156125000Y-68315395D01*
X157278715Y-67161680D01*
X160221285Y-67161680D01*
X161375000Y-68315395D01*
X162528715Y-67161680D01*
X162399467Y-66868877D01*
X161699194Y-66600612D01*
X160949565Y-66620750D01*
X160350533Y-66868877D01*
X160221285Y-67161680D01*
X157278715Y-67161680D01*
X157149467Y-66868877D01*
X156449194Y-66600612D01*
X155699565Y-66620750D01*
X155100533Y-66868877D01*
X154971285Y-67161680D01*
X153797000Y-67161680D01*
X153797000Y-66167000D01*
X163703000Y-66167000D01*
X163703000Y-76073000D01*
G36*
X152908000Y-50895765D02*
X152858569Y-50968110D01*
X152836699Y-51076107D01*
X152531924Y-50798355D01*
X152121890Y-50628524D01*
X151892000Y-50749845D01*
X151892000Y-51943000D01*
X151912000Y-51943000D01*
X151912000Y-52197000D01*
X151892000Y-52197000D01*
X151892000Y-53390155D01*
X152121890Y-53511476D01*
X152531924Y-53341645D01*
X152834937Y-53065499D01*
X152851838Y-53155317D01*
X152908000Y-53242595D01*
X152908000Y-54483000D01*
X148717000Y-54483000D01*
X148717000Y-52426892D01*
X150323514Y-52426892D01*
X150569817Y-52951358D01*
X150998076Y-53341645D01*
X151408110Y-53511476D01*
X151638000Y-53390155D01*
X151638000Y-52197000D01*
X150444181Y-52197000D01*
X150323514Y-52426892D01*
X148717000Y-52426892D01*
X148717000Y-51713108D01*
X150323514Y-51713108D01*
X150444181Y-51943000D01*
X151638000Y-51943000D01*
X151638000Y-50749845D01*
X151408110Y-50628524D01*
X150998076Y-50798355D01*
X150569817Y-51188642D01*
X150323514Y-51713108D01*
X148717000Y-51713108D01*
X148717000Y-49657000D01*
X152908000Y-49657000D01*
X152908000Y-50895765D01*
X152908000Y-50895765D01*
G37*
X152908000Y-50895765D02*
X152858569Y-50968110D01*
X152836699Y-51076107D01*
X152531924Y-50798355D01*
X152121890Y-50628524D01*
X151892000Y-50749845D01*
X151892000Y-51943000D01*
X151912000Y-51943000D01*
X151912000Y-52197000D01*
X151892000Y-52197000D01*
X151892000Y-53390155D01*
X152121890Y-53511476D01*
X152531924Y-53341645D01*
X152834937Y-53065499D01*
X152851838Y-53155317D01*
X152908000Y-53242595D01*
X152908000Y-54483000D01*
X148717000Y-54483000D01*
X148717000Y-52426892D01*
X150323514Y-52426892D01*
X150569817Y-52951358D01*
X150998076Y-53341645D01*
X151408110Y-53511476D01*
X151638000Y-53390155D01*
X151638000Y-52197000D01*
X150444181Y-52197000D01*
X150323514Y-52426892D01*
X148717000Y-52426892D01*
X148717000Y-51713108D01*
X150323514Y-51713108D01*
X150444181Y-51943000D01*
X151638000Y-51943000D01*
X151638000Y-50749845D01*
X151408110Y-50628524D01*
X150998076Y-50798355D01*
X150569817Y-51188642D01*
X150323514Y-51713108D01*
X148717000Y-51713108D01*
X148717000Y-49657000D01*
X152908000Y-49657000D01*
X152908000Y-50895765D01*
M02*
