M48
;DRILL file {KiCad 4.0.6} date Thursday, July 13, 2017 'PMt' 02:05:32 PM
;FORMAT={-:-/ absolute / inch / decimal}
FMAT,2
INCH,TZ
T1C0.016
T2C0.030
T3C0.031
T4C0.035
T5C0.039
T6C0.039
T7C0.059
T8C0.126
%
G90
G05
M72
T1
X5.85Y-3.525
X5.875Y-1.98
X5.875Y-2.035
X5.875Y-2.085
X5.93Y-1.98
X5.955Y-2.13
X5.99Y-1.98
X6.Y-2.125
X6.03Y-3.38
X6.064Y-2.6961
X6.0662Y-2.9002
X6.075Y-2.65
X6.075Y-2.75
X6.075Y-2.8
X6.075Y-2.85
X6.075Y-2.95
X6.1Y-2.625
X6.1Y-2.975
X6.1494Y-2.6152
X6.15Y-2.975
X6.197Y-3.0502
X6.2Y-2.4
X6.2Y-2.625
X6.2Y-2.975
X6.24Y-3.215
X6.25Y-2.625
X6.3Y-2.625
X6.3Y-2.975
X6.35Y-2.625
X6.35Y-2.975
X6.3989Y-2.9834
X6.4Y-2.625
X6.425Y-2.65
X6.425Y-2.75
X6.425Y-2.8
X6.425Y-2.85
X6.4322Y-2.9024
X6.4322Y-2.9546
X6.4322Y-2.6995
X6.45Y-2.35
X6.495Y-3.08
X6.6Y-2.05
X6.605Y-2.19
X6.65Y-3.
X6.75Y-2.125
X6.75Y-2.225
X6.75Y-4.65
X6.825Y-2.05
X6.825Y-2.225
X6.85Y-4.65
X6.8575Y-4.2704
X6.89Y-4.425
X6.9Y-3.375
X6.9Y-3.825
X6.9Y-4.225
X6.915Y-2.05
X6.925Y-3.275
X6.95Y-4.81
X6.97Y-2.05
X6.975Y-4.05
X7.015Y-2.05
X7.015Y-2.05
X7.065Y-2.05
X7.105Y-2.075
X7.105Y-2.12
X7.275Y-4.475
X7.36Y-2.35
X7.3766Y-3.2269
X7.61Y-2.705
X7.61Y-3.265
T2
X5.85Y-4.175
X6.15Y-1.975
X6.25Y-4.5
X6.325Y-4.54
X6.3642Y-2.0055
T3
X6.195Y-3.145
X6.48Y-1.99
X6.48Y-2.09
X6.48Y-2.19
X6.495Y-3.145
T4
X6.275Y-2.4
X6.375Y-2.4
T5
X5.65Y-2.61
X5.65Y-2.71
X5.65Y-2.81
X5.65Y-2.91
X5.65Y-3.01
X5.65Y-3.11
X5.65Y-3.21
X5.65Y-3.31
X5.65Y-3.51
X5.65Y-3.61
X5.65Y-3.71
X5.65Y-3.81
X5.65Y-3.91
X5.65Y-4.01
X5.65Y-4.11
X5.65Y-4.21
X5.65Y-4.31
X5.65Y-4.41
X5.65Y-4.51
X5.65Y-4.61
X5.65Y-4.71
X5.65Y-4.81
X5.65Y-4.91
X5.75Y-2.61
X5.75Y-2.71
X5.75Y-2.81
X5.75Y-2.91
X5.75Y-3.01
X5.75Y-3.11
X5.75Y-3.21
X5.75Y-3.31
X5.75Y-3.51
X5.75Y-3.61
X5.75Y-3.71
X5.75Y-3.81
X5.75Y-3.91
X5.75Y-4.01
X5.75Y-4.11
X5.75Y-4.21
X5.75Y-4.31
X5.75Y-4.41
X5.75Y-4.51
X5.75Y-4.61
X5.75Y-4.71
X5.75Y-4.81
X5.75Y-4.91
X5.975Y-2.05
X6.075Y-2.05
X6.2Y-3.3
X6.3Y-3.3
X6.55Y-4.725
X6.55Y-4.9
X6.65Y-4.725
X6.65Y-4.9
X6.75Y-4.725
X6.75Y-4.9
X6.825Y-3.8
X6.825Y-3.9
X6.85Y-4.725
X6.85Y-4.9
X6.95Y-4.725
X6.95Y-4.9
X7.Y-3.275
X7.Y-3.375
X7.05Y-4.725
X7.05Y-4.9
X7.45Y-2.25
X7.45Y-2.35
X7.45Y-2.45
X7.45Y-2.55
X7.45Y-2.65
X7.45Y-2.75
X7.45Y-2.85
X7.45Y-2.95
X7.45Y-3.05
X7.45Y-3.15
X7.45Y-3.31
X7.45Y-3.41
X7.45Y-3.51
X7.45Y-3.61
X7.45Y-3.71
X7.45Y-3.81
X7.45Y-3.91
X7.45Y-4.01
X7.45Y-4.11
X7.45Y-4.21
X7.45Y-4.31
X7.45Y-4.41
X7.45Y-4.51
X7.45Y-4.61
X7.45Y-4.71
X7.45Y-4.81
X7.45Y-4.91
X7.55Y-2.25
X7.55Y-2.35
X7.55Y-2.45
X7.55Y-2.55
X7.55Y-2.65
X7.55Y-2.75
X7.55Y-2.85
X7.55Y-2.95
X7.55Y-3.05
X7.55Y-3.15
X7.55Y-3.31
X7.55Y-3.41
X7.55Y-3.51
X7.55Y-3.61
X7.55Y-3.71
X7.55Y-3.81
X7.55Y-3.91
X7.55Y-4.01
X7.55Y-4.11
X7.55Y-4.21
X7.55Y-4.31
X7.55Y-4.41
X7.55Y-4.51
X7.55Y-4.61
X7.55Y-4.71
X7.55Y-4.81
X7.55Y-4.91
T6
X6.25Y-2.8
T7
X6.1467Y-2.6967
X6.1467Y-2.9033
X6.3533Y-2.6967
X6.3533Y-2.9033
T8
X5.655Y-2.055
X7.55Y-2.11
T0
M30
